{
.appVersion = "983";
copyright = "Copyright © 2018 by Cadson Demak Co.,Ltd.. All rights reserved.";
customParameters = (
{
name = vendorID;
value = CDK;
},
{
name = description;
value = "Copyright (c) 2018, Cadson Demak (info@cadsondemak.com)";
},
{
name = license;

glyphs = (
{
glyphname = A;
lastChange = "2017-12-19 05:45:55 +0000";
layers = (
{
layerId = "0B1DFD06-3317-40CA-B510-4969A0718C16";
paths = (
{
closed = 1;
nodes = (
"536 231 LINE",
"508 310 OFFCURVE",
"485 385 OFFCURVE",
"465 445 CURVE SMOOTH",
"439 528 OFFCURVE",
"416 593 OFFCURVE",
"398 641 CURVE SMOOTH",
"380 689 OFFCURVE",
"361 712 OFFCURVE",
"343 712 CURVE SMOOTH",
"304 712 OFFCURVE",
"271 615 OFFCURVE",
"218 449 CURVE SMOOTH",
"145 235 LINE",
"80 23 LINE",
"77 3 OFFCURVE",
"105 2 OFFCURVE",
"116 21 CURVE",
"173 202 LINE",
"507 202 LINE",
"553 17 LINE",
"556 11 OFFCURVE",
"562 9 OFFCURVE",
"572 9 CURVE SMOOTH",
"583 10 OFFCURVE",
"589 15 OFFCURVE",
"590 25 CURVE",
"541 202 LINE",
"555 202 LINE SMOOTH",
"575 202 OFFCURVE",
"574 227 OFFCURVE",
"557 231 CURVE"
);
},
{
closed = 1;
nodes = (
"184 239 LINE",
"194 259 OFFCURVE",
"209 306 OFFCURVE",
"223 350 CURVE",
"268 479 OFFCURVE",
"332 670 OFFCURVE",
"341 670 CURVE SMOOTH",
"354 670 OFFCURVE",
"454 343 OFFCURVE",
"489 235 CURVE"
);
}
);
width = 653;
}
);
note = A;
unicode = 0041;
},
{
glyphname = B;
lastChange = "2017-12-19 05:45:55 +0000";
layers = (
{
layerId = "0B1DFD06-3317-40CA-B510-4969A0718C16";
paths = (
{
closed = 1;
nodes = (
"77 26 LINE",
"77 14 OFFCURVE",
"83 7 OFFCURVE",
"93 7 CURVE SMOOTH",
"103 7 OFFCURVE",
"110 14 OFFCURVE",
"113 26 CURVE",
"150 26 OFFCURVE",
"191 26 OFFCURVE",
"236 23 CURVE SMOOTH",
"281 20 OFFCURVE",
"325 23 OFFCURVE",
"366 31 CURVE SMOOTH",
"406 38 OFFCURVE",
"441 53 OFFCURVE",
"469 75 CURVE SMOOTH",
"497 97 OFFCURVE",
"513 133 OFFCURVE",
"515 181 CURVE SMOOTH",
"518 222 OFFCURVE",
"505 258 OFFCURVE",
"479 290 CURVE SMOOTH",
"452 321 OFFCURVE",
"418 343 OFFCURVE",
"377 354 CURVE",
"455 372 OFFCURVE",
"525 448 OFFCURVE",
"525 517 CURVE SMOOTH",
"525 650 OFFCURVE",
"405 706 OFFCURVE",
"269 706 CURVE SMOOTH",
"207 706 OFFCURVE",
"144 694 OFFCURVE",
"85 670 CURVE",
"54 659 OFFCURVE",
"46 639 OFFCURVE",
"63 626 CURVE",
"70 626 OFFCURVE",
"83 628 OFFCURVE",
"90 628 CURVE",
"94 566 OFFCURVE",
"94 502 OFFCURVE",
"94 435 CURVE SMOOTH",
"94 315 OFFCURVE",
"89 183 OFFCURVE",
"78 65 CURVE",
"48 65 LINE",
"37 62 OFFCURVE",
"31 56 OFFCURVE",
"31 45 CURVE SMOOTH",
"30 35 OFFCURVE",
"36 29 OFFCURVE",
"48 26 CURVE"
);
},
{
closed = 1;
nodes = (
"128 653 LINE",
"162 669 OFFCURVE",
"205 677 OFFCURVE",
"256 677 CURVE SMOOTH",
"371 677 OFFCURVE",
"495 629 OFFCURVE",
"495 517 CURVE SMOOTH",
"495 420 OFFCURVE",
"377 370 OFFCURVE",
"259 374 CURVE",
"248 371 OFFCURVE",
"237 372 OFFCURVE",
"228 372 CURVE SMOOTH",
"203 372 OFFCURVE",
"196 373 OFFCURVE",
"196 357 CURVE SMOOTH",
"196 345 OFFCURVE",
"204 339 OFFCURVE",
"219 339 CURVE SMOOTH",
"254 339 LINE SMOOTH",
"398 337 OFFCURVE",
"486 288 OFFCURVE",
"484 179 CURVE SMOOTH",
"483 139 OFFCURVE",
"468 111 OFFCURVE",
"439 94 CURVE SMOOTH",
"410 77 OFFCURVE",
"375 65 OFFCURVE",
"335 60 CURVE SMOOTH",
"295 54 OFFCURVE",
"255 53 OFFCURVE",
"213 54 CURVE SMOOTH",
"172 57 OFFCURVE",
"139 57 OFFCURVE",
"113 56 CURVE",
"137 263 OFFCURVE",
"133 457 OFFCURVE",
"129 655 CURVE"
);
}
);
width = 585;
}
);
note = B;
unicode = 0042;
},
{
glyphname = C;
lastChange = "2017-12-19 05:45:55 +0000";
layers = (
{
layerId = "0B1DFD06-3317-40CA-B510-4969A0718C16";
paths = (
{
closed = 1;
nodes = (
"621 706 OFFCURVE",
"615 708 OFFCURVE",
"604 707 CURVE SMOOTH",
"593 706 OFFCURVE",
"588 701 OFFCURVE",
"588 692 CURVE SMOOTH",
"588 672 OFFCURVE",
"587 638 OFFCURVE",
"587 611 CURVE",
"529 666 OFFCURVE",
"465 712 OFFCURVE",
"387 712 CURVE SMOOTH",
"213 712 OFFCURVE",
"50 568 OFFCURVE",
"50 326 CURVE SMOOTH",
"50 82 OFFCURVE",
"231 -2 OFFCURVE",
"372 -2 CURVE SMOOTH",
"516 -2 OFFCURVE",
"635 64 OFFCURVE",
"658 235 CURVE",
"659 249 OFFCURVE",
"654 256 OFFCURVE",
"641 257 CURVE SMOOTH",
"629 258 OFFCURVE",
"622 252 OFFCURVE",
"620 239 CURVE SMOOTH",
"595 95 OFFCURVE",
"502 35 OFFCURVE",
"372 35 CURVE SMOOTH",
"241 35 OFFCURVE",
"85 110 OFFCURVE",
"85 327 CURVE SMOOTH",
"85 545 OFFCURVE",
"231 680 OFFCURVE",
"387 676 CURVE SMOOTH",
"462 676 OFFCURVE",
"515 631 OFFCURVE",
"583 550 CURVE",
"594 539 OFFCURVE",
"614 537 OFFCURVE",
"618 555 CURVE",
"621 575 OFFCURVE",
"621 608 OFFCURVE",
"621 641 CURVE SMOOTH",
"621 698 LINE"
);
}
);
width = 688;
}
);
note = C;
unicode = 0043;
},
{
glyphname = D;
lastChange = "2017-12-19 05:45:55 +0000";
layers = (
{
layerId = "0B1DFD06-3317-40CA-B510-4969A0718C16";
paths = (
{
closed = 1;
nodes = (
"156 40 LINE",
"101 47 LINE",
"93 46 OFFCURVE",
"88 39 OFFCURVE",
"89 28 CURVE SMOOTH",
"90 17 OFFCURVE",
"95 11 OFFCURVE",
"105 10 CURVE",
"128 6 OFFCURVE",
"155 5 OFFCURVE",
"181 5 CURVE SMOOTH",
"437 1 OFFCURVE",
"621 139 OFFCURVE",
"625 362 CURVE",
"611 596 OFFCURVE",
"410 694 OFFCURVE",
"173 698 CURVE",
"170 707 OFFCURVE",
"164 712 OFFCURVE",
"153 712 CURVE SMOOTH",
"143 712 OFFCURVE",
"137 707 OFFCURVE",
"136 698 CURVE",
"92 701 OFFCURVE",
"82 689 OFFCURVE",
"88 672 CURVE",
"93 663 OFFCURVE",
"109 659 OFFCURVE",
"138 660 CURVE"
);
},
{
closed = 1;
nodes = (
"173 661 LINE",
"371 657 OFFCURVE",
"572 586 OFFCURVE",
"581 360 CURVE SMOOTH",
"591 178 OFFCURVE",
"400 32 OFFCURVE",
"191 42 CURVE"
);
}
);
width = 672;
}
);
note = D;
unicode = 0044;
},
{
glyphname = E;
lastChange = "2017-12-19 05:45:55 +0000";
layers = (
{
layerId = "0B1DFD06-3317-40CA-B510-4969A0718C16";
paths = (
{
closed = 1;
nodes = (
"59 61 OFFCURVE",
"45 61 OFFCURVE",
"45 47 CURVE SMOOTH",
"45 33 OFFCURVE",
"46 20 OFFCURVE",
"71 23 CURVE SMOOTH",
"97 26 OFFCURVE",
"150 22 OFFCURVE",
"213 19 CURVE SMOOTH",
"337 14 OFFCURVE",
"493 4 OFFCURVE",
"493 38 CURVE SMOOTH",
"493 45 OFFCURVE",
"482 54 OFFCURVE",
"468 54 CURVE",
"328 31 OFFCURVE",
"251 52 OFFCURVE",
"122 61 CURVE",
"122 141 OFFCURVE",
"138 272 OFFCURVE",
"138 350 CURVE",
"222 360 OFFCURVE",
"400 343 OFFCURVE",
"404 350 CURVE",
"411 350 OFFCURVE",
"415 355 OFFCURVE",
"413 365 CURVE SMOOTH",
"411 374 OFFCURVE",
"407 380 OFFCURVE",
"400 382 CURVE",
"323 390 OFFCURVE",
"203 384 OFFCURVE",
"136 388 CURVE",
"137 423 OFFCURVE",
"138 456 OFFCURVE",
"138 489 CURVE SMOOTH",
"138 546 OFFCURVE",
"139 611 OFFCURVE",
"136 658 CURVE",
"256 667 OFFCURVE",
"431 659 OFFCURVE",
"480 655 CURVE",
"490 655 OFFCURVE",
"496 660 OFFCURVE",
"498 669 CURVE SMOOTH",
"501 678 OFFCURVE",
"497 683 OFFCURVE",
"489 686 CURVE",
"448 695 OFFCURVE",
"232 700 OFFCURVE",
"99 691 CURVE",
"83 691 OFFCURVE",
"76 686 OFFCURVE",
"77 676 CURVE SMOOTH",
"77 666 OFFCURVE",
"85 662 OFFCURVE",
"99 663 CURVE",
"109 543 OFFCURVE",
"101 425 OFFCURVE",
"101 385 CURVE",
"68 388 OFFCURVE",
"68 385 OFFCURVE",
"61 372 CURVE",
"54 361 OFFCURVE",
"65 354 OFFCURVE",
"77 354 CURVE",
"101 350 LINE",
"97 245 OFFCURVE",
"94 145 OFFCURVE",
"80 54 CURVE"
);
}
);
width = 535;
}
);
note = E;
unicode = 0045;
},
{
glyphname = F;
lastChange = "2017-12-19 05:45:55 +0000";
layers = (
{
layerId = "0B1DFD06-3317-40CA-B510-4969A0718C16";
paths = (
{
closed = 1;
nodes = (
"45 349 LINE",
"38 346 OFFCURVE",
"35 340 OFFCURVE",
"35 329 CURVE SMOOTH",
"35 319 OFFCURVE",
"39 314 OFFCURVE",
"48 314 CURVE SMOOTH",
"61 314 OFFCURVE",
"83 323 OFFCURVE",
"110 332 CURVE",
"110 281 OFFCURVE",
"110 230 OFFCURVE",
"109 182 CURVE SMOOTH",
"108 133 OFFCURVE",
"105 79 OFFCURVE",
"98 17 CURVE",
"100 3 OFFCURVE",
"112 7 OFFCURVE",
"123 7 CURVE SMOOTH",
"150 7 OFFCURVE",
"148 167 OFFCURVE",
"148 332 CURVE",
"246 343 OFFCURVE",
"326 337 OFFCURVE",
"409 331 CURVE",
"420 331 OFFCURVE",
"425 337 OFFCURVE",
"425 349 CURVE SMOOTH",
"425 392 OFFCURVE",
"168 369 OFFCURVE",
"148 369 CURVE",
"148 471 OFFCURVE",
"144 573 OFFCURVE",
"134 661 CURVE",
"329 666 OFFCURVE",
"402 663 OFFCURVE",
"472 649 CURVE",
"482 654 OFFCURVE",
"487 660 OFFCURVE",
"487 668 CURVE SMOOTH",
"487 680 OFFCURVE",
"472 689 OFFCURVE",
"440 693 CURVE SMOOTH",
"409 697 OFFCURVE",
"373 700 OFFCURVE",
"332 700 CURVE SMOOTH",
"292 701 OFFCURVE",
"252 700 OFFCURVE",
"213 699 CURVE SMOOTH",
"175 697 OFFCURVE",
"149 696 OFFCURVE",
"134 696 CURVE",
"129 719 LINE",
"129 748 OFFCURVE",
"90 755 OFFCURVE",
"90 726 CURVE",
"94 691 LINE",
"50 689 LINE",
"37 689 OFFCURVE",
"31 683 OFFCURVE",
"32 672 CURVE SMOOTH",
"33 661 OFFCURVE",
"39 656 OFFCURVE",
"50 656 CURVE",
"98 658 LINE",
"102 584 OFFCURVE",
"110 479 OFFCURVE",
"110 360 CURVE",
"43 349 LINE"
);
}
);
width = 517;
}
);
note = F;
unicode = 0046;
},
{
glyphname = G;
lastChange = "2017-12-19 05:45:55 +0000";
layers = (
{
layerId = "0B1DFD06-3317-40CA-B510-4969A0718C16";
paths = (
{
closed = 1;
nodes = (
"616 338 OFFCURVE",
"634 330 OFFCURVE",
"533 339 CURVE",
"511 339 OFFCURVE",
"504 307 OFFCURVE",
"535 303 CURVE",
"583 298 OFFCURVE",
"596 298 OFFCURVE",
"592 298 CURVE",
"592 154 OFFCURVE",
"545 40 OFFCURVE",
"376 40 CURVE SMOOTH",
"195 40 OFFCURVE",
"93 173 OFFCURVE",
"93 349 CURVE SMOOTH",
"93 521 OFFCURVE",
"211 649 OFFCURVE",
"355 649 CURVE SMOOTH",
"406 650 OFFCURVE",
"445 646 OFFCURVE",
"469 637 CURVE SMOOTH",
"494 627 OFFCURVE",
"517 615 OFFCURVE",
"536 597 CURVE SMOOTH",
"561 574 OFFCURVE",
"582 551 OFFCURVE",
"613 555 CURVE",
"624 554 OFFCURVE",
"632 563 OFFCURVE",
"635 582 CURVE",
"639 602 OFFCURVE",
"639 622 OFFCURVE",
"636 644 CURVE",
"636 651 OFFCURVE",
"631 655 OFFCURVE",
"621 655 CURVE SMOOTH",
"611 655 OFFCURVE",
"607 650 OFFCURVE",
"608 641 CURVE SMOOTH",
"612 604 OFFCURVE",
"612 591 OFFCURVE",
"601 588 CURVE",
"560 632 OFFCURVE",
"521 659 OFFCURVE",
"484 671 CURVE SMOOTH",
"447 683 OFFCURVE",
"405 689 OFFCURVE",
"357 688 CURVE SMOOTH",
"175 683 OFFCURVE",
"50 525 OFFCURVE",
"50 349 CURVE SMOOTH",
"50 169 OFFCURVE",
"170 3 OFFCURVE",
"376 3 CURVE SMOOTH",
"578 3 OFFCURVE",
"634 168 OFFCURVE",
"630 304 CURVE",
"656 304 LINE SMOOTH",
"664 304 OFFCURVE",
"669 309 OFFCURVE",
"670 318 CURVE",
"672 327 OFFCURVE",
"667 333 OFFCURVE",
"656 334 CURVE SMOOTH"
);
}
);
width = 729;
}
);
note = G;
unicode = 0047;
},
{
glyphname = H;
lastChange = "2017-12-19 05:45:55 +0000";
layers = (
{
layerId = "0B1DFD06-3317-40CA-B510-4969A0718C16";
paths = (
{
closed = 1;
nodes = (
"73 337 LINE",
"64 337 OFFCURVE",
"59 332 OFFCURVE",
"56 322 CURVE",
"54 313 OFFCURVE",
"60 307 OFFCURVE",
"71 304 CURVE",
"115 303 LINE",
"94 17 LINE",
"92 9 OFFCURVE",
"96 4 OFFCURVE",
"107 3 CURVE SMOOTH",
"119 1 OFFCURVE",
"127 4 OFFCURVE",
"129 12 CURVE",
"148 301 LINE",
"530 294 LINE",
"530 23 LINE SMOOTH",
"530 -4 OFFCURVE",
"568 7 OFFCURVE",
"568 33 CURVE",
"563 294 LINE",
"604 294 LINE SMOOTH",
"615 294 OFFCURVE",
"621 299 OFFCURVE",
"621 310 CURVE SMOOTH",
"621 321 OFFCURVE",
"615 328 OFFCURVE",
"603 329 CURVE SMOOTH",
"563 331 LINE",
"548 705 LINE",
"553 724 OFFCURVE",
"510 728 OFFCURVE",
"510 703 CURVE",
"525 331 LINE",
"155 336 LINE",
"190 701 LINE",
"194 722 OFFCURVE",
"154 731 OFFCURVE",
"150 703 CURVE",
"120 336 LINE"
);
}
);
width = 665;
}
);
note = H;
unicode = 0048;
},
{
glyphname = I;
lastChange = "2017-12-19 05:45:55 +0000";
layers = (
{
layerId = "0B1DFD06-3317-40CA-B510-4969A0718C16";
paths = (
{
closed = 1;
nodes = (
"163 41 OFFCURVE",
"129 42 OFFCURVE",
"99 42 CURVE SMOOTH",
"82 42 OFFCURVE",
"63 43 OFFCURVE",
"43 43 CURVE",
"37 43 OFFCURVE",
"34 38 OFFCURVE",
"31 29 CURVE SMOOTH",
"29 20 OFFCURVE",
"33 14 OFFCURVE",
"43 10 CURVE",
"347 5 LINE SMOOTH",
"357 5 OFFCURVE",
"363 10 OFFCURVE",
"364 20 CURVE SMOOTH",
"365 31 OFFCURVE",
"360 37 OFFCURVE",
"347 38 CURVE",
"332 37 OFFCURVE",
"316 37 OFFCURVE",
"301 38 CURVE",
"276 38 OFFCURVE",
"241 41 OFFCURVE",
"216 45 CURVE",
"223 129 OFFCURVE",
"237 589 OFFCURVE",
"237 670 CURVE",
"254 672 OFFCURVE",
"269 672 OFFCURVE",
"282 672 CURVE SMOOTH",
"296 672 OFFCURVE",
"318 671 OFFCURVE",
"349 668 CURVE",
"355 668 OFFCURVE",
"360 673 OFFCURVE",
"364 683 CURVE SMOOTH",
"367 693 OFFCURVE",
"363 699 OFFCURVE",
"352 701 CURVE",
"336 704 OFFCURVE",
"309 706 OFFCURVE",
"274 706 CURVE SMOOTH",
"239 708 OFFCURVE",
"203 708 OFFCURVE",
"167 706 CURVE SMOOTH",
"131 706 OFFCURVE",
"99 703 OFFCURVE",
"71 700 CURVE SMOOTH",
"43 698 OFFCURVE",
"27 694 OFFCURVE",
"26 688 CURVE",
"22 677 OFFCURVE",
"33 664 OFFCURVE",
"54 666 CURVE",
"133 671 OFFCURVE",
"152 672 OFFCURVE",
"202 668 CURVE",
"202 627 OFFCURVE",
"199 490 OFFCURVE",
"194 356 CURVE SMOOTH",
"189 223 OFFCURVE",
"184 88 OFFCURVE",
"181 45 CURVE"
);
}
);
width = 387;
}
);
note = I;
unicode = 0049;
},
{
glyphname = J;
lastChange = "2017-12-19 05:45:55 +0000";
layers = (
{
layerId = "0B1DFD06-3317-40CA-B510-4969A0718C16";
paths = (
{
closed = 1;
nodes = (
"475 669 OFFCURVE",
"504 663 OFFCURVE",
"508 677 CURVE",
"513 689 OFFCURVE",
"512 695 OFFCURVE",
"485 698 CURVE SMOOTH",
"439 702 OFFCURVE",
"303 706 OFFCURVE",
"291 693 CURVE SMOOTH",
"281 683 OFFCURVE",
"283 662 OFFCURVE",
"306 665 CURVE",
"333 666 OFFCURVE",
"359 666 OFFCURVE",
"383 666 CURVE",
"374 526 OFFCURVE",
"391 416 OFFCURVE",
"379 258 CURVE SMOOTH",
"370 95 OFFCURVE",
"299 35 OFFCURVE",
"224 35 CURVE SMOOTH",
"160 35 OFFCURVE",
"58 53 OFFCURVE",
"58 251 CURVE SMOOTH",
"58 264 OFFCURVE",
"52 270 OFFCURVE",
"41 271 CURVE",
"30 273 OFFCURVE",
"25 266 OFFCURVE",
"25 251 CURVE SMOOTH",
"20 37 OFFCURVE",
"143 2 OFFCURVE",
"228 2 CURVE SMOOTH",
"319 1 OFFCURVE",
"413 75 OFFCURVE",
"416 259 CURVE SMOOTH",
"419 403 OFFCURVE",
"411 514 OFFCURVE",
"422 666 CURVE"
);
}
);
width = 489;
}
);
note = J;
unicode = 004A;
},
{
glyphname = K;
lastChange = "2017-12-19 05:45:55 +0000";
layers = (
{
layerId = "0B1DFD06-3317-40CA-B510-4969A0718C16";
paths = (
{
closed = 1;
nodes = (
"234 424 OFFCURVE",
"292 462 OFFCURVE",
"345 500 CURVE SMOOTH",
"434 561 OFFCURVE",
"536 634 OFFCURVE",
"571 668 CURVE",
"577 673 OFFCURVE",
"577 681 OFFCURVE",
"573 692 CURVE SMOOTH",
"569 703 OFFCURVE",
"561 706 OFFCURVE",
"550 700 CURVE",
"519 668 OFFCURVE",
"415 595 OFFCURVE",
"317 531 CURVE SMOOTH",
"133 409 LINE",
"128 497 OFFCURVE",
"127 581 OFFCURVE",
"129 693 CURVE SMOOTH",
"129 712 OFFCURVE",
"90 717 OFFCURVE",
"90 696 CURVE SMOOTH",
"97 492 OFFCURVE",
"91 317 OFFCURVE",
"87 40 CURVE",
"85 9 OFFCURVE",
"122 4 OFFCURVE",
"128 38 CURVE",
"133 366 LINE",
"245 235 OFFCURVE",
"332 154 OFFCURVE",
"524 20 CURVE",
"546 1 OFFCURVE",
"564 37 OFFCURVE",
"547 48 CURVE SMOOTH",
"363 174 OFFCURVE",
"182 341 OFFCURVE",
"173 385 CURVE"
);
}
);
width = 585;
}
);
note = K;
unicode = 004B;
},
{
glyphname = L;
lastChange = "2017-12-19 05:45:55 +0000";
layers = (
{
layerId = "0B1DFD06-3317-40CA-B510-4969A0718C16";
paths = (
{
closed = 1;
nodes = (
"105 337 OFFCURVE",
"110 521 OFFCURVE",
"143 694 CURVE SMOOTH",
"148 719 OFFCURVE",
"106 721 OFFCURVE",
"105 700 CURVE",
"98 657 OFFCURVE",
"91 609 OFFCURVE",
"85 557 CURVE SMOOTH",
"74 466 OFFCURVE",
"65 342 OFFCURVE",
"61 193 CURVE SMOOTH",
"61 14 OFFCURVE",
"109 12 OFFCURVE",
"230 12 CURVE SMOOTH",
"316 12 OFFCURVE",
"358 23 OFFCURVE",
"449 37 CURVE SMOOTH",
"485 42 OFFCURVE",
"465 84 OFFCURVE",
"442 77 CURVE",
"356 65 OFFCURVE",
"292 53 OFFCURVE",
"226 48 CURVE SMOOTH",
"108 39 OFFCURVE",
"92 104 OFFCURVE",
"96 173 CURVE SMOOTH"
);
}
);
width = 503;
}
);
note = L;
unicode = 004C;
},
{
glyphname = M;
lastChange = "2017-12-19 05:45:55 +0000";
layers = (
{
layerId = "0B1DFD06-3317-40CA-B510-4969A0718C16";
paths = (
{
closed = 1;
nodes = (
"684 431 OFFCURVE",
"698 716 OFFCURVE",
"636 716 CURVE SMOOTH",
"551 716 OFFCURVE",
"432 559 OFFCURVE",
"400 350 CURVE",
"355 559 OFFCURVE",
"268 716 OFFCURVE",
"184 716 CURVE SMOOTH",
"117 716 OFFCURVE",
"97 479 OFFCURVE",
"94 12 CURVE",
"105 3 OFFCURVE",
"126 2 OFFCURVE",
"133 15 CURVE",
"133 369 OFFCURVE",
"161 679 OFFCURVE",
"190 677 CURVE",
"209 677 OFFCURVE",
"230 662 OFFCURVE",
"250 632 CURVE SMOOTH",
"270 602 OFFCURVE",
"289 564 OFFCURVE",
"307 521 CURVE SMOOTH",
"325 478 OFFCURVE",
"341 433 OFFCURVE",
"354 385 CURVE SMOOTH",
"367 337 OFFCURVE",
"377 297 OFFCURVE",
"383 263 CURVE",
"386 253 OFFCURVE",
"391 249 OFFCURVE",
"400 249 CURVE SMOOTH",
"410 249 OFFCURVE",
"415 255 OFFCURVE",
"416 268 CURVE",
"420 305 OFFCURVE",
"428 347 OFFCURVE",
"442 393 CURVE SMOOTH",
"456 439 OFFCURVE",
"473 482 OFFCURVE",
"492 522 CURVE SMOOTH",
"532 604 OFFCURVE",
"579 668 OFFCURVE",
"623 676 CURVE SMOOTH",
"646 679 OFFCURVE",
"665 180 OFFCURVE",
"670 5 CURVE",
"678 2 OFFCURVE",
"685 0 OFFCURVE",
"691 0 CURVE SMOOTH",
"702 0 OFFCURVE",
"711 3 OFFCURVE",
"709 23 CURVE"
);
}
);
width = 813;
}
);
note = M;
unicode = 004D;
},
{
glyphname = N;
lastChange = "2017-12-19 05:45:55 +0000";
layers = (
{
layerId = "0B1DFD06-3317-40CA-B510-4969A0718C16";
paths = (
{
closed = 1;
nodes = (
"139 649 OFFCURVE",
"142 643 OFFCURVE",
"151 630 CURVE SMOOTH",
"161 617 OFFCURVE",
"171 604 OFFCURVE",
"181 588 CURVE SMOOTH",
"223 528 LINE SMOOTH",
"261 471 OFFCURVE",
"299 411 OFFCURVE",
"337 351 CURVE SMOOTH",
"375 291 OFFCURVE",
"410 236 OFFCURVE",
"443 187 CURVE SMOOTH",
"476 138 OFFCURVE",
"506 97 OFFCURVE",
"531 64 CURVE SMOOTH",
"557 31 OFFCURVE",
"577 14 OFFCURVE",
"592 14 CURVE SMOOTH",
"609 13 OFFCURVE",
"622 34 OFFCURVE",
"630 77 CURVE SMOOTH",
"638 121 OFFCURVE",
"644 177 OFFCURVE",
"647 244 CURVE SMOOTH",
"649 311 OFFCURVE",
"651 385 OFFCURVE",
"651 464 CURVE SMOOTH",
"651 691 LINE SMOOTH",
"651 703 OFFCURVE",
"645 710 OFFCURVE",
"633 711 CURVE SMOOTH",
"622 713 OFFCURVE",
"615 707 OFFCURVE",
"613 694 CURVE",
"613 352 OFFCURVE",
"606 49 OFFCURVE",
"588 56 CURVE",
"584 57 OFFCURVE",
"570 74 OFFCURVE",
"548 106 CURVE SMOOTH",
"526 139 OFFCURVE",
"500 179 OFFCURVE",
"469 228 CURVE SMOOTH",
"370 385 LINE SMOOTH",
"299 498 OFFCURVE",
"232 600 OFFCURVE",
"181 664 CURVE SMOOTH",
"156 696 OFFCURVE",
"138 712 OFFCURVE",
"128 712 CURVE SMOOTH",
"78 712 OFFCURVE",
"103 246 OFFCURVE",
"96 23 CURVE SMOOTH",
"96 8 OFFCURVE",
"138 8 OFFCURVE",
"138 23 CURVE SMOOTH",
"138 125 OFFCURVE",
"137 230 OFFCURVE",
"134 337 CURVE SMOOTH",
"132 445 OFFCURVE",
"133 549 OFFCURVE",
"139 648 CURVE"
);
}
);
width = 745;
}
);
note = N;
unicode = 004E;
},
{
glyphname = O;
lastChange = "2017-12-19 05:45:55 +0000";
layers = (
{
layerId = "0B1DFD06-3317-40CA-B510-4969A0718C16";
paths = (
{
closed = 1;
nodes = (
"727 560 OFFCURVE",
"571 705 OFFCURVE",
"374 705 CURVE SMOOTH",
"181 705 OFFCURVE",
"56 557 OFFCURVE",
"56 329 CURVE SMOOTH",
"56 106 OFFCURVE",
"224 10 OFFCURVE",
"372 10 CURVE SMOOTH",
"546 10 OFFCURVE",
"713 103 OFFCURVE",
"723 331 CURVE SMOOTH"
);
},
{
closed = 1;
nodes = (
"677 111 OFFCURVE",
"520 48 OFFCURVE",
"376 48 CURVE SMOOTH",
"265 48 OFFCURVE",
"98 116 OFFCURVE",
"98 329 CURVE SMOOTH",
"98 551 OFFCURVE",
"217 665 OFFCURVE",
"374 665 CURVE SMOOTH",
"460 666 OFFCURVE",
"532 638 OFFCURVE",
"590 581 CURVE SMOOTH",
"649 524 OFFCURVE",
"680 440 OFFCURVE",
"684 331 CURVE"
);
}
);
width = 784;
}
);
note = O;
unicode = 004F;
},
{
glyphname = P;
lastChange = "2017-12-19 05:45:55 +0000";
layers = (
{
layerId = "0B1DFD06-3317-40CA-B510-4969A0718C16";
paths = (
{
closed = 1;
nodes = (
"121 597 OFFCURVE",
"122 553 OFFCURVE",
"125 497 CURVE SMOOTH",
"128 443 OFFCURVE",
"131 391 OFFCURVE",
"134 343 CURVE",
"311 279 OFFCURVE",
"509 329 OFFCURVE",
"513 489 CURVE SMOOTH",
"518 634 OFFCURVE",
"301 721 OFFCURVE",
"118 632 CURVE"
);
},
{
closed = 1;
nodes = (
"155 684 OFFCURVE",
"201 696 OFFCURVE",
"252 699 CURVE SMOOTH",
"302 701 OFFCURVE",
"349 695 OFFCURVE",
"394 681 CURVE SMOOTH",
"438 666 OFFCURVE",
"474 643 OFFCURVE",
"504 611 CURVE SMOOTH",
"534 579 OFFCURVE",
"547 537 OFFCURVE",
"547 487 CURVE SMOOTH",
"542 292 OFFCURVE",
"327 235 OFFCURVE",
"133 308 CURVE",
"131 10 LINE",
"128 -8 OFFCURVE",
"86 -16 OFFCURVE",
"87 12 CURVE SMOOTH",
"94 135 OFFCURVE",
"95 249 OFFCURVE",
"91 354 CURVE SMOOTH",
"87 459 OFFCURVE",
"85 546 OFFCURVE",
"85 615 CURVE",
"70 608 LINE",
"59 597 OFFCURVE",
"42 612 OFFCURVE",
"54 628 CURVE",
"62 637 OFFCURVE",
"69 643 OFFCURVE",
"75 646 CURVE",
"78 649 OFFCURVE",
"81 650 OFFCURVE",
"83 651 CURVE",
"82 689 LINE",
"79 707 OFFCURVE",
"92 705 OFFCURVE",
"103 704 CURVE",
"109 703 OFFCURVE",
"111 696 OFFCURVE",
"112 682 CURVE SMOOTH",
"113 668 OFFCURVE",
"113 662 OFFCURVE",
"113 663 CURVE"
);
}
);
width = 576;
}
);
note = P;
unicode = 0050;
},
{
glyphname = Q;
lastChange = "2017-12-19 05:45:55 +0000";
layers = (
{
layerId = "0B1DFD06-3317-40CA-B510-4969A0718C16";
paths = (
{
closed = 1;
nodes = (
"625 122 LINE",
"655 156 OFFCURVE",
"677 190 OFFCURVE",
"689 223 CURVE SMOOTH",
"702 257 OFFCURVE",
"709 299 OFFCURVE",
"709 350 CURVE SMOOTH",
"709 581 OFFCURVE",
"536 709 OFFCURVE",
"383 709 CURVE SMOOTH",
"221 709 OFFCURVE",
"49 577 OFFCURVE",
"54 352 CURVE SMOOTH",
"60 140 OFFCURVE",
"173 15 OFFCURVE",
"367 15 CURVE SMOOTH",
"453 15 OFFCURVE",
"535 48 OFFCURVE",
"595 101 CURVE",
"669 22 OFFCURVE",
"673 25 OFFCURVE",
"676 23 CURVE",
"685 19 OFFCURVE",
"692 21 OFFCURVE",
"696 30 CURVE",
"700 39 OFFCURVE",
"700 47 OFFCURVE",
"694 54 CURVE"
);
},
{
closed = 1;
nodes = (
"518 236 OFFCURVE",
"530 233 OFFCURVE",
"510 247 CURVE SMOOTH",
"504 252 OFFCURVE",
"496 250 OFFCURVE",
"487 241 CURVE",
"478 232 OFFCURVE",
"476 224 OFFCURVE",
"482 218 CURVE",
"568 131 LINE",
"514 80 OFFCURVE",
"439 54 OFFCURVE",
"367 54 CURVE SMOOTH",
"203 54 OFFCURVE",
"94 172 OFFCURVE",
"94 352 CURVE SMOOTH",
"94 547 OFFCURVE",
"247 668 OFFCURVE",
"383 668 CURVE SMOOTH",
"524 668 OFFCURVE",
"656 541 OFFCURVE",
"670 354 CURVE SMOOTH",
"676 265 OFFCURVE",
"648 207 OFFCURVE",
"599 150 CURVE"
);
}
);
width = 766;
}
);
note = Q;
unicode = 0051;
},
{
glyphname = R;
lastChange = "2017-12-19 05:45:55 +0000";
layers = (
{
layerId = "0B1DFD06-3317-40CA-B510-4969A0718C16";
paths = (
{
closed = 1;
nodes = (
"322 717 OFFCURVE",
"513 637 OFFCURVE",
"513 489 CURVE SMOOTH",
"513 449 OFFCURVE",
"499 417 OFFCURVE",
"469 392 CURVE SMOOTH",
"439 367 OFFCURVE",
"405 350 OFFCURVE",
"364 340 CURVE SMOOTH",
"323 331 OFFCURVE",
"281 327 OFFCURVE",
"236 330 CURVE SMOOTH",
"193 332 OFFCURVE",
"156 341 OFFCURVE",
"128 355 CURVE",
"122 404 OFFCURVE",
"118 452 OFFCURVE",
"119 500 CURVE SMOOTH",
"120 547 OFFCURVE",
"119 588 OFFCURVE",
"116 623 CURVE"
);
},
{
closed = 1;
nodes = (
"113 694 LINE",
"110 699 OFFCURVE",
"103 701 OFFCURVE",
"93 701 CURVE SMOOTH",
"83 701 OFFCURVE",
"79 697 OFFCURVE",
"80 688 CURVE",
"82 649 LINE",
"79 649 OFFCURVE",
"77 647 OFFCURVE",
"73 644 CURVE",
"67 641 OFFCURVE",
"60 634 OFFCURVE",
"52 623 CURVE",
"46 617 OFFCURVE",
"46 611 OFFCURVE",
"51 605 CURVE",
"57 599 OFFCURVE",
"62 600 OFFCURVE",
"68 606 CURVE",
"83 613 LINE",
"83 544 OFFCURVE",
"86 458 OFFCURVE",
"90 355 CURVE SMOOTH",
"95 252 OFFCURVE",
"94 139 OFFCURVE",
"87 15 CURVE SMOOTH",
"86 -12 OFFCURVE",
"123 -7 OFFCURVE",
"125 12 CURVE",
"132 44 OFFCURVE",
"129 178 OFFCURVE",
"129 284 CURVE",
"503 14 LINE",
"519 3 OFFCURVE",
"545 30 OFFCURVE",
"528 47 CURVE",
"134 320 LINE",
"167 304 OFFCURVE",
"208 295 OFFCURVE",
"255 293 CURVE SMOOTH",
"302 292 OFFCURVE",
"348 297 OFFCURVE",
"391 309 CURVE SMOOTH",
"434 322 OFFCURVE",
"472 343 OFFCURVE",
"502 372 CURVE SMOOTH",
"533 401 OFFCURVE",
"549 439 OFFCURVE",
"550 485 CURVE SMOOTH",
"557 694 OFFCURVE",
"307 743 OFFCURVE",
"116 661 CURVE"
);
}
);
width = 621;
}
);
note = R;
unicode = 0052;
},
{
glyphname = S;
lastChange = "2017-12-19 05:45:55 +0000";
layers = (
{
layerId = "0B1DFD06-3317-40CA-B510-4969A0718C16";
paths = (
{
closed = 1;
nodes = (
"426 507 OFFCURVE",
"432 502 OFFCURVE",
"442 503 CURVE SMOOTH",
"453 504 OFFCURVE",
"459 511 OFFCURVE",
"462 524 CURVE",
"459 579 OFFCURVE",
"441 622 OFFCURVE",
"406 655 CURVE SMOOTH",
"372 689 OFFCURVE",
"328 706 OFFCURVE",
"274 706 CURVE SMOOTH",
"143 706 OFFCURVE",
"55 620 OFFCURVE",
"65 508 CURVE SMOOTH",
"74 409 OFFCURVE",
"145 357 OFFCURVE",
"256 331 CURVE SMOOTH",
"395 298 OFFCURVE",
"441 237 OFFCURVE",
"432 153 CURVE",
"427 120 OFFCURVE",
"405 38 OFFCURVE",
"286 38 CURVE SMOOTH",
"159 38 OFFCURVE",
"111 118 OFFCURVE",
"106 211 CURVE",
"104 235 OFFCURVE",
"60 231 OFFCURVE",
"66 209 CURVE",
"66 93 OFFCURVE",
"148 -3 OFFCURVE",
"286 2 CURVE SMOOTH",
"411 6 OFFCURVE",
"464 88 OFFCURVE",
"468 153 CURVE SMOOTH",
"473 223 OFFCURVE",
"453 319 OFFCURVE",
"281 364 CURVE SMOOTH",
"134 405 OFFCURVE",
"109 452 OFFCURVE",
"105 508 CURVE SMOOTH",
"102 553 OFFCURVE",
"116 592 OFFCURVE",
"145 624 CURVE SMOOTH",
"173 656 OFFCURVE",
"217 672 OFFCURVE",
"274 670 CURVE SMOOTH",
"379 670 OFFCURVE",
"421 590 OFFCURVE",
"425 519 CURVE SMOOTH"
);
}
);
width = 528;
}
);
note = S;
unicode = 0053;
},
{
glyphname = T;
lastChange = "2017-12-19 05:45:55 +0000";
layers = (
{
layerId = "0B1DFD06-3317-40CA-B510-4969A0718C16";
paths = (
{
closed = 1;
nodes = (
"425 663 OFFCURVE",
"451 655 OFFCURVE",
"489 655 CURVE",
"497 655 OFFCURVE",
"502 662 OFFCURVE",
"503 675 CURVE SMOOTH",
"504 688 OFFCURVE",
"499 695 OFFCURVE",
"487 696 CURVE SMOOTH",
"427 700 OFFCURVE",
"358 703 OFFCURVE",
"281 703 CURVE SMOOTH",
"203 703 OFFCURVE",
"128 699 OFFCURVE",
"58 691 CURVE",
"38 691 OFFCURVE",
"45 653 OFFCURVE",
"60 653 CURVE",
"140 657 OFFCURVE",
"157 661 OFFCURVE",
"254 661 CURVE",
"251 610 OFFCURVE",
"247 462 OFFCURVE",
"238 322 CURVE SMOOTH",
"231 184 OFFCURVE",
"228 50 OFFCURVE",
"228 26 CURVE SMOOTH",
"228 3 OFFCURVE",
"279 3 OFFCURVE",
"279 26 CURVE SMOOTH",
"280 80 OFFCURVE",
"288 542 OFFCURVE",
"310 663 CURVE"
);
}
);
width = 547;
}
);
note = T;
unicode = 0054;
},
{
glyphname = U;
lastChange = "2017-12-19 05:45:55 +0000";
layers = (
{
layerId = "0B1DFD06-3317-40CA-B510-4969A0718C16";
paths = (
{
closed = 1;
nodes = (
"524 122 OFFCURVE",
"525 96 OFFCURVE",
"525 71 CURVE SMOOTH",
"525 56 OFFCURVE",
"524 39 OFFCURVE",
"524 21 CURVE",
"528 -14 OFFCURVE",
"573 -3 OFFCURVE",
"573 20 CURVE",
"566 691 LINE",
"564 711 OFFCURVE",
"521 713 OFFCURVE",
"520 689 CURVE",
"520 314 LINE SMOOTH",
"520 187 OFFCURVE",
"488 51 OFFCURVE",
"322 47 CURVE SMOOTH",
"238 44 OFFCURVE",
"188 83 OFFCURVE",
"160 134 CURVE SMOOTH",
"133 185 OFFCURVE",
"124 249 OFFCURVE",
"128 304 CURVE",
"134 684 LINE SMOOTH",
"134 703 OFFCURVE",
"87 707 OFFCURVE",
"87 686 CURVE SMOOTH",
"87 636 OFFCURVE",
"84 519 OFFCURVE",
"80 251 CURVE SMOOTH",
"80 151 OFFCURVE",
"136 -2 OFFCURVE",
"317 3 CURVE SMOOTH",
"433 6 OFFCURVE",
"496 53 OFFCURVE",
"520 120 CURVE"
);
}
);
width = 656;
}
);
note = U;
unicode = 0055;
},
{
glyphname = V;
lastChange = "2017-12-19 05:45:55 +0000";
layers = (
{
layerId = "0B1DFD06-3317-40CA-B510-4969A0718C16";
paths = (
{
closed = 1;
nodes = (
"118 691 LINE",
"113 711 OFFCURVE",
"68 711 OFFCURVE",
"68 691 CURVE",
"99 577 OFFCURVE",
"128 474 OFFCURVE",
"156 383 CURVE SMOOTH",
"203 228 OFFCURVE",
"252 60 OFFCURVE",
"269 35 CURVE",
"285 -14 OFFCURVE",
"380 -7 OFFCURVE",
"394 35 CURVE",
"407 66 OFFCURVE",
"456 229 OFFCURVE",
"500 383 CURVE SMOOTH",
"525 473 OFFCURVE",
"553 574 OFFCURVE",
"583 684 CURVE",
"591 704 OFFCURVE",
"544 716 OFFCURVE",
"538 693 CURVE SMOOTH",
"354 61 LINE",
"304 65 LINE"
);
}
);
width = 663;
}
);
note = V;
unicode = 0056;
},
{
glyphname = W;
lastChange = "2017-12-19 05:45:55 +0000";
layers = (
{
layerId = "0B1DFD06-3317-40CA-B510-4969A0718C16";
paths = (
{
closed = 1;
nodes = (
"273 132 OFFCURVE",
"258 199 OFFCURVE",
"242 269 CURVE SMOOTH",
"228 329 OFFCURVE",
"211 395 OFFCURVE",
"190 468 CURVE SMOOTH",
"170 541 OFFCURVE",
"148 614 OFFCURVE",
"123 684 CURVE",
"110 717 OFFCURVE",
"69 703 OFFCURVE",
"78 679 CURVE",
"97 620 OFFCURVE",
"116 555 OFFCURVE",
"136 485 CURVE SMOOTH",
"167 367 OFFCURVE",
"211 202 OFFCURVE",
"251 25 CURVE",
"257 10 OFFCURVE",
"267 3 OFFCURVE",
"281 4 CURVE SMOOTH",
"297 5 OFFCURVE",
"308 14 OFFCURVE",
"314 31 CURVE",
"332 78 OFFCURVE",
"417 253 OFFCURVE",
"455 331 CURVE",
"604 31 LINE",
"614 3 OFFCURVE",
"660 -7 OFFCURVE",
"668 30 CURVE",
"696 183 OFFCURVE",
"734 343 OFFCURVE",
"764 468 CURVE SMOOTH",
"782 541 OFFCURVE",
"800 610 OFFCURVE",
"819 679 CURVE",
"823 698 OFFCURVE",
"778 713 OFFCURVE",
"773 689 CURVE",
"726 513 OFFCURVE",
"694 359 OFFCURVE",
"668 247 CURVE SMOOTH",
"630 68 LINE",
"556 224 OFFCURVE",
"519 305 OFFCURVE",
"496 345 CURVE",
"475 386 OFFCURVE",
"469 390 OFFCURVE",
"452 390 CURVE",
"443 389 OFFCURVE",
"437 387 OFFCURVE",
"434 383 CURVE",
"430 379 OFFCURVE",
"424 367 OFFCURVE",
"415 348 CURVE",
"374 253 LINE SMOOTH",
"356 210 OFFCURVE",
"327 147 OFFCURVE",
"287 66 CURVE"
);
}
);
width = 895;
}
);
note = W;
unicode = 0057;
},
{
glyphname = X;
lastChange = "2017-12-19 05:45:55 +0000";
layers = (
{
layerId = "0B1DFD06-3317-40CA-B510-4969A0718C16";
paths = (
{
closed = 1;
nodes = (
"65 38 LINE",
"66 38 LINE",
"54 26 OFFCURVE",
"89 0 OFFCURVE",
"108 21 CURVE",
"324 327 LINE",
"553 14 LINE",
"568 -1 OFFCURVE",
"609 15 OFFCURVE",
"599 30 CURVE",
"355 364 LINE",
"592 683 LINE SMOOTH",
"604 700 OFFCURVE",
"567 726 OFFCURVE",
"553 705 CURVE",
"479 607 OFFCURVE",
"400 500 OFFCURVE",
"326 402 CURVE",
"258 502 OFFCURVE",
"179 611 OFFCURVE",
"111 709 CURVE",
"96 724 OFFCURVE",
"62 712 OFFCURVE",
"71 689 CURVE",
"140 585 OFFCURVE",
"223 468 OFFCURVE",
"294 364 CURVE"
);
}
);
width = 666;
}
);
note = X;
unicode = 0058;
},
{
glyphname = Y;
lastChange = "2017-12-19 05:45:55 +0000";
layers = (
{
layerId = "0B1DFD06-3317-40CA-B510-4969A0718C16";
paths = (
{
closed = 1;
nodes = (
"349 329 LINE",
"376 332 OFFCURVE",
"420 386 OFFCURVE",
"462 456 CURVE SMOOTH",
"503 528 OFFCURVE",
"545 614 OFFCURVE",
"578 684 CURVE",
"587 708 OFFCURVE",
"541 715 OFFCURVE",
"531 696 CURVE SMOOTH",
"477 577 OFFCURVE",
"377 368 OFFCURVE",
"326 369 CURVE SMOOTH",
"311 369 OFFCURVE",
"294 382 OFFCURVE",
"274 406 CURVE SMOOTH",
"254 431 OFFCURVE",
"234 462 OFFCURVE",
"214 496 CURVE SMOOTH",
"195 532 OFFCURVE",
"176 569 OFFCURVE",
"158 605 CURVE SMOOTH",
"141 643 OFFCURVE",
"129 673 OFFCURVE",
"122 698 CURVE",
"113 715 OFFCURVE",
"70 713 OFFCURVE",
"75 693 CURVE",
"93 638 OFFCURVE",
"133 553 OFFCURVE",
"178 479 CURVE SMOOTH",
"200 442 OFFCURVE",
"222 409 OFFCURVE",
"244 380 CURVE SMOOTH",
"266 352 OFFCURVE",
"285 335 OFFCURVE",
"301 331 CURVE",
"304 23 LINE SMOOTH",
"304 -1 OFFCURVE",
"354 -3 OFFCURVE",
"354 26 CURVE"
);
}
);
width = 655;
}
);
note = Y;
unicode = 0059;
},
{
glyphname = Z;
lastChange = "2017-12-19 05:45:55 +0000";
layers = (
{
layerId = "0B1DFD06-3317-40CA-B510-4969A0718C16";
paths = (
{
closed = 1;
nodes = (
"76 56 OFFCURVE",
"182 167 OFFCURVE",
"289 279 CURVE SMOOTH",
"413 412 OFFCURVE",
"570 581 OFFCURVE",
"620 655 CURVE",
"626 667 OFFCURVE",
"623 677 OFFCURVE",
"614 685 CURVE SMOOTH",
"604 693 OFFCURVE",
"594 695 OFFCURVE",
"585 694 CURVE SMOOTH",
"531 689 LINE",
"452 685 OFFCURVE",
"391 679 OFFCURVE",
"331 679 CURVE SMOOTH",
"266 679 OFFCURVE",
"204 687 OFFCURVE",
"118 698 CURVE SMOOTH",
"88 702 OFFCURVE",
"71 693 OFFCURVE",
"98 666 CURVE",
"106 655 OFFCURVE",
"259 646 OFFCURVE",
"394 646 CURVE SMOOTH",
"461 646 OFFCURVE",
"518 654 OFFCURVE",
"571 658 CURVE",
"515 580 OFFCURVE",
"417 473 OFFCURVE",
"324 376 CURVE SMOOTH",
"218 269 OFFCURVE",
"99 134 OFFCURVE",
"50 65 CURVE",
"31 30 OFFCURVE",
"65 21 OFFCURVE",
"85 21 CURVE",
"157 19 OFFCURVE",
"209 24 OFFCURVE",
"258 26 CURVE SMOOTH",
"298 29 OFFCURVE",
"331 30 OFFCURVE",
"372 30 CURVE SMOOTH",
"426 30 OFFCURVE",
"485 28 OFFCURVE",
"570 15 CURVE",
"581 14 OFFCURVE",
"587 19 OFFCURVE",
"587 28 CURVE SMOOTH",
"588 38 OFFCURVE",
"584 44 OFFCURVE",
"575 47 CURVE",
"500 60 OFFCURVE",
"417 65 OFFCURVE",
"336 65 CURVE SMOOTH",
"255 65 OFFCURVE",
"183 60 OFFCURVE",
"136 58 CURVE",
"115 55 OFFCURVE",
"98 56 OFFCURVE",
"90 56 CURVE SMOOTH"
);
}
);
width = 653;
}
);
note = Z;
unicode = 005A;
},
{
glyphname = a;
lastChange = "2017-12-19 05:45:55 +0000";
layers = (
{
layerId = "0B1DFD06-3317-40CA-B510-4969A0718C16";
paths = (
{
closed = 1;
nodes = (
"437 249 LINE",
"437 212 OFFCURVE",
"436 184 OFFCURVE",
"434 168 CURVE SMOOTH",
"433 152 OFFCURVE",
"430 138 OFFCURVE",
"427 125 CURVE",
"407 63 OFFCURVE",
"343 33 OFFCURVE",
"271 33 CURVE SMOOTH",
"123 33 OFFCURVE",
"94 162 OFFCURVE",
"94 249 CURVE SMOOTH",
"94 299 OFFCURVE",
"135 456 OFFCURVE",
"277 456 CURVE SMOOTH",
"342 456 OFFCURVE",
"420 408 OFFCURVE",
"434 319 CURVE"
);
},
{
closed = 1;
nodes = (
"542 8 OFFCURVE",
"546 13 OFFCURVE",
"547 17 CURVE",
"549 26 OFFCURVE",
"544 34 OFFCURVE",
"531 38 CURVE",
"472 38 OFFCURVE",
"479 88 OFFCURVE",
"479 129 CURVE SMOOTH",
"479 181 OFFCURVE",
"479 230 OFFCURVE",
"480 277 CURVE SMOOTH",
"481 316 OFFCURVE",
"483 354 OFFCURVE",
"485 390 CURVE SMOOTH",
"488 427 OFFCURVE",
"491 454 OFFCURVE",
"496 470 CURVE",
"496 485 OFFCURVE",
"449 496 OFFCURVE",
"444 467 CURVE",
"439 409 LINE",
"390 470 OFFCURVE",
"343 491 OFFCURVE",
"275 491 CURVE SMOOTH",
"103 491 OFFCURVE",
"54 326 OFFCURVE",
"54 251 CURVE SMOOTH",
"54 150 OFFCURVE",
"85 -7 OFFCURVE",
"274 -7 CURVE SMOOTH",
"348 -7 OFFCURVE",
"407 11 OFFCURVE",
"440 65 CURVE",
"447 11 OFFCURVE",
"473 -3 OFFCURVE",
"538 3 CURVE"
);
}
);
width = 578;
}
);
note = a;
unicode = 0061;
},
{
glyphname = b;
lastChange = "2017-12-19 05:45:55 +0000";
layers = (
{
layerId = "0B1DFD06-3317-40CA-B510-4969A0718C16";
paths = (
{
closed = 1;
nodes = (
"91 204 OFFCURVE",
"90 219 OFFCURVE",
"90 237 CURVE",
"88 267 OFFCURVE",
"88 309 OFFCURVE",
"90 360 CURVE",
"110 394 OFFCURVE",
"138 418 OFFCURVE",
"173 434 CURVE SMOOTH",
"210 449 OFFCURVE",
"245 456 OFFCURVE",
"279 456 CURVE SMOOTH",
"408 456 OFFCURVE",
"489 395 OFFCURVE",
"489 242 CURVE SMOOTH",
"489 79 OFFCURVE",
"372 35 OFFCURVE",
"284 35 CURVE SMOOTH",
"197 35 OFFCURVE",
"93 91 OFFCURVE",
"93 190 CURVE"
);
},
{
closed = 1;
nodes = (
"92 438 OFFCURVE",
"92 462 OFFCURVE",
"90 500 CURVE SMOOTH",
"85 634 LINE SMOOTH",
"82 693 OFFCURVE",
"78 773 OFFCURVE",
"71 874 CURVE",
"71 895 OFFCURVE",
"35 899 OFFCURVE",
"30 876 CURVE",
"48 623 OFFCURVE",
"49 428 OFFCURVE",
"47 292 CURVE SMOOTH",
"46 213 OFFCURVE",
"43 145 OFFCURVE",
"38 87 CURVE SMOOTH",
"37 74 OFFCURVE",
"31 62 OFFCURVE",
"21 50 CURVE SMOOTH",
"16 44 OFFCURVE",
"11 39 OFFCURVE",
"5 35 CURVE",
"-9 8 OFFCURVE",
"26 -2 OFFCURVE",
"48 23 CURVE",
"52 29 OFFCURVE",
"56 34 OFFCURVE",
"61 38 CURVE",
"68 48 OFFCURVE",
"76 59 OFFCURVE",
"80 70 CURVE",
"82 87 LINE",
"154 22 OFFCURVE",
"221 -9 OFFCURVE",
"284 -7 CURVE",
"367 -7 OFFCURVE",
"531 41 OFFCURVE",
"531 242 CURVE SMOOTH",
"531 332 OFFCURVE",
"507 396 OFFCURVE",
"461 438 CURVE SMOOTH",
"414 479 OFFCURVE",
"353 500 OFFCURVE",
"279 500 CURVE SMOOTH",
"248 500 OFFCURVE",
"217 496 OFFCURVE",
"184 487 CURVE SMOOTH",
"152 479 OFFCURVE",
"121 458 OFFCURVE",
"90 425 CURVE"
);
}
);
width = 578;
}
);
note = b;
unicode = 0062;
},
{
glyphname = c;
lastChange = "2017-12-19 05:45:55 +0000";
layers = (
{
layerId = "0B1DFD06-3317-40CA-B510-4969A0718C16";
paths = (
{
closed = 1;
nodes = (
"449 345 OFFCURVE",
"496 351 OFFCURVE",
"491 369 CURVE",
"476 461 OFFCURVE",
"371 512 OFFCURVE",
"282 512 CURVE SMOOTH",
"107 512 OFFCURVE",
"33 367 OFFCURVE",
"33 244 CURVE SMOOTH",
"33 122 OFFCURVE",
"99 2 OFFCURVE",
"275 2 CURVE SMOOTH",
"445 2 OFFCURVE",
"505 133 OFFCURVE",
"505 183 CURVE SMOOTH",
"505 197 OFFCURVE",
"499 205 OFFCURVE",
"486 206 CURVE SMOOTH",
"474 207 OFFCURVE",
"466 199 OFFCURVE",
"462 183 CURVE SMOOTH",
"455 159 OFFCURVE",
"422 43 OFFCURVE",
"275 43 CURVE SMOOTH",
"131 43 OFFCURVE",
"75 136 OFFCURVE",
"75 244 CURVE SMOOTH",
"75 356 OFFCURVE",
"141 470 OFFCURVE",
"282 470 CURVE SMOOTH",
"351 470 OFFCURVE",
"412 440 OFFCURVE",
"444 372 CURVE",
"444 374 LINE"
);
}
);
width = 522;
}
);
note = c;
unicode = 0063;
},
{
glyphname = d;
lastChange = "2017-12-19 05:45:55 +0000";
layers = (
{
layerId = "0B1DFD06-3317-40CA-B510-4969A0718C16";
paths = (
{
closed = 1;
nodes = (
"479 92 OFFCURVE",
"376 37 OFFCURVE",
"289 37 CURVE SMOOTH",
"224 37 OFFCURVE",
"85 82 OFFCURVE",
"85 242 CURVE SMOOTH",
"85 393 OFFCURVE",
"186 456 OFFCURVE",
"292 456 CURVE SMOOTH",
"326 456 OFFCURVE",
"360 449 OFFCURVE",
"396 434 CURVE SMOOTH",
"433 418 OFFCURVE",
"461 394 OFFCURVE",
"480 360 CURVE",
"483 307 OFFCURVE",
"480 267 OFFCURVE",
"480 237 CURVE",
"479 219 OFFCURVE",
"479 204 OFFCURVE",
"479 190 CURVE SMOOTH"
);
},
{
closed = 1;
nodes = (
"451 458 OFFCURVE",
"419 479 OFFCURVE",
"386 486 CURVE SMOOTH",
"354 494 OFFCURVE",
"322 499 OFFCURVE",
"292 500 CURVE SMOOTH",
"168 504 OFFCURVE",
"43 421 OFFCURVE",
"43 242 CURVE SMOOTH",
"43 140 OFFCURVE",
"87 79 OFFCURVE",
"138 42 CURVE SMOOTH",
"189 4 OFFCURVE",
"249 -8 OFFCURVE",
"289 -5 CURVE SMOOTH",
"349 -1 OFFCURVE",
"420 25 OFFCURVE",
"489 87 CURVE",
"491 70 LINE",
"494 59 OFFCURVE",
"499 48 OFFCURVE",
"508 38 CURVE",
"513 34 OFFCURVE",
"518 29 OFFCURVE",
"522 23 CURVE",
"543 -3 OFFCURVE",
"580 9 OFFCURVE",
"566 35 CURVE",
"560 39 OFFCURVE",
"554 44 OFFCURVE",
"550 50 CURVE SMOOTH",
"541 63 OFFCURVE",
"533 73 OFFCURVE",
"533 87 CURVE",
"528 145 OFFCURVE",
"524 213 OFFCURVE",
"524 292 CURVE SMOOTH",
"521 428 OFFCURVE",
"524 623 OFFCURVE",
"541 876 CURVE",
"536 899 OFFCURVE",
"500 894 OFFCURVE",
"500 874 CURVE",
"492 773 OFFCURVE",
"487 693 OFFCURVE",
"485 634 CURVE SMOOTH",
"482 575 OFFCURVE",
"479 531 OFFCURVE",
"479 500 CURVE SMOOTH",
"478 462 OFFCURVE",
"478 438 OFFCURVE",
"480 425 CURVE"
);
}
);
width = 578;
}
);
note = d;
unicode = 0064;
},
{
glyphname = e;
lastChange = "2017-12-19 05:45:55 +0000";
layers = (
{
layerId = "0B1DFD06-3317-40CA-B510-4969A0718C16";
paths = (
{
closed = 1;
nodes = (
"221 261 OFFCURVE",
"357 262 OFFCURVE",
"494 262 CURVE SMOOTH",
"516 262 OFFCURVE",
"522 283 OFFCURVE",
"522 324 CURVE SMOOTH",
"522 406 OFFCURVE",
"434 512 OFFCURVE",
"291 512 CURVE SMOOTH",
"132 512 OFFCURVE",
"41 383 OFFCURVE",
"41 256 CURVE SMOOTH",
"41 129 OFFCURVE",
"118 0 OFFCURVE",
"292 0 CURVE SMOOTH",
"377 0 OFFCURVE",
"463 46 OFFCURVE",
"502 116 CURVE SMOOTH",
"505 122 OFFCURVE",
"507 128 OFFCURVE",
"507 134 CURVE SMOOTH",
"507 149 OFFCURVE",
"495 159 OFFCURVE",
"484 159 CURVE SMOOTH",
"479 159 OFFCURVE",
"475 157 OFFCURVE",
"472 153 CURVE",
"436 80 OFFCURVE",
"355 43 OFFCURVE",
"292 43 CURVE SMOOTH",
"169 43 OFFCURVE",
"88 113 OFFCURVE",
"87 249 CURVE"
);
},
{
closed = 1;
nodes = (
"105 395 OFFCURVE",
"183 470 OFFCURVE",
"289 470 CURVE SMOOTH",
"439 470 OFFCURVE",
"484 353 OFFCURVE",
"484 306 CURVE SMOOTH",
"484 295 OFFCURVE",
"163 299 OFFCURVE",
"87 292 CURVE"
);
}
);
width = 575;
}
);
note = e;
unicode = 0065;
},
{
glyphname = f;
lastChange = "2017-12-19 05:45:55 +0000";
layers = (
{
layerId = "0B1DFD06-3317-40CA-B510-4969A0718C16";
paths = (
{
closed = 1;
nodes = (
"10 388 OFFCURVE",
"5 382 OFFCURVE",
"5 371 CURVE SMOOTH",
"5 360 OFFCURVE",
"11 354 OFFCURVE",
"23 354 CURVE",
"60 358 OFFCURVE",
"43 358 OFFCURVE",
"99 362 CURVE",
"111 17 LINE SMOOTH",
"111 6 OFFCURVE",
"120 0 OFFCURVE",
"133 0 CURVE SMOOTH",
"145 0 OFFCURVE",
"153 7 OFFCURVE",
"156 21 CURVE",
"146 366 LINE",
"184 366 LINE SMOOTH",
"196 366 OFFCURVE",
"203 362 OFFCURVE",
"235 362 CURVE SMOOTH",
"247 362 OFFCURVE",
"252 367 OFFCURVE",
"252 377 CURVE SMOOTH",
"252 404 OFFCURVE",
"213 405 OFFCURVE",
"148 405 CURVE",
"148 590 OFFCURVE",
"158 698 OFFCURVE",
"239 698 CURVE SMOOTH",
"289 698 OFFCURVE",
"306 700 OFFCURVE",
"315 590 CURVE",
"318 579 OFFCURVE",
"330 571 OFFCURVE",
"341 571 CURVE SMOOTH",
"355 571 OFFCURVE",
"362 579 OFFCURVE",
"362 593 CURVE SMOOTH",
"362 719 OFFCURVE",
"308 740 OFFCURVE",
"239 740 CURVE SMOOTH",
"198 740 OFFCURVE",
"168 728 OFFCURVE",
"150 705 CURVE SMOOTH",
"131 682 OFFCURVE",
"118 653 OFFCURVE",
"111 619 CURVE SMOOTH",
"105 585 OFFCURVE",
"101 548 OFFCURVE",
"102 509 CURVE SMOOTH",
"103 470 OFFCURVE",
"102 435 OFFCURVE",
"101 404 CURVE",
"82 404 OFFCURVE",
"64 403 OFFCURVE",
"47 399 CURVE SMOOTH",
"20 392 LINE"
);
}
);
width = 314;
}
);
note = f;
unicode = 0066;
},
{
glyphname = g;
lastChange = "2017-12-19 05:45:55 +0000";
layers = (
{
layerId = "0B1DFD06-3317-40CA-B510-4969A0718C16";
paths = (
{
closed = 1;
nodes = (
"413 343 OFFCURVE",
"421 239 OFFCURVE",
"425 198 CURVE SMOOTH",
"429 144 OFFCURVE",
"343 87 OFFCURVE",
"251 87 CURVE SMOOTH",
"160 87 OFFCURVE",
"74 136 OFFCURVE",
"70 294 CURVE",
"70 398 OFFCURVE",
"142 493 OFFCURVE",
"251 493 CURVE SMOOTH",
"311 493 OFFCURVE",
"365 473 OFFCURVE",
"395 427 CURVE"
);
},
{
closed = 1;
nodes = (
"483 -9 OFFCURVE",
"443 -201 OFFCURVE",
"279 -211 CURVE SMOOTH",
"237 -213 OFFCURVE",
"201 -203 OFFCURVE",
"169 -182 CURVE SMOOTH",
"139 -161 OFFCURVE",
"122 -130 OFFCURVE",
"118 -90 CURVE",
"118 -64 OFFCURVE",
"71 -77 OFFCURVE",
"75 -105 CURVE",
"83 -180 OFFCURVE",
"159 -253 OFFCURVE",
"279 -249 CURVE SMOOTH",
"423 -245 OFFCURVE",
"496 -119 OFFCURVE",
"496 7 CURVE SMOOTH",
"496 9 OFFCURVE",
"494 28 OFFCURVE",
"488 64 CURVE SMOOTH",
"470 193 LINE",
"450 347 LINE SMOOTH",
"444 400 OFFCURVE",
"439 445 OFFCURVE",
"439 480 CURVE",
"456 538 LINE",
"470 565 OFFCURVE",
"426 584 OFFCURVE",
"414 547 CURVE SMOOTH",
"397 487 LINE",
"376 510 OFFCURVE",
"352 524 OFFCURVE",
"326 530 CURVE SMOOTH",
"299 536 OFFCURVE",
"274 538 OFFCURVE",
"251 538 CURVE SMOOTH",
"111 538 OFFCURVE",
"26 415 OFFCURVE",
"26 294 CURVE SMOOTH",
"26 166 OFFCURVE",
"101 40 OFFCURVE",
"233 40 CURVE SMOOTH",
"297 40 OFFCURVE",
"384 54 OFFCURVE",
"440 123 CURVE"
);
}
);
width = 536;
}
);
note = g;
unicode = 0067;
},
{
glyphname = h;
lastChange = "2017-12-19 05:45:55 +0000";
layers = (
{
layerId = "0B1DFD06-3317-40CA-B510-4969A0718C16";
paths = (
{
closed = 1;
nodes = (
"171 787 LINE SMOOTH",
"173 812 OFFCURVE",
"129 820 OFFCURVE",
"129 794 CURVE",
"122 703 OFFCURVE",
"116 612 OFFCURVE",
"111 520 CURVE SMOOTH",
"107 441 OFFCURVE",
"104 357 OFFCURVE",
"102 266 CURVE SMOOTH",
"100 176 OFFCURVE",
"102 91 OFFCURVE",
"106 10 CURVE",
"111 2 OFFCURVE",
"146 -10 OFFCURVE",
"146 9 CURVE SMOOTH",
"146 57 OFFCURVE",
"146 109 OFFCURVE",
"147 162 CURVE SMOOTH",
"148 217 OFFCURVE",
"153 266 OFFCURVE",
"163 311 CURVE SMOOTH",
"174 356 OFFCURVE",
"191 394 OFFCURVE",
"216 423 CURVE SMOOTH",
"241 453 OFFCURVE",
"276 468 OFFCURVE",
"324 468 CURVE SMOOTH",
"465 468 OFFCURVE",
"473 318 OFFCURVE",
"473 20 CURVE SMOOTH",
"473 -9 OFFCURVE",
"513 -8 OFFCURVE",
"513 12 CURVE SMOOTH",
"513 354 OFFCURVE",
"510 506 OFFCURVE",
"324 510 CURVE SMOOTH",
"213 510 OFFCURVE",
"157 428 OFFCURVE",
"148 377 CURVE"
);
}
);
width = 552;
}
);
note = h;
unicode = 0068;
},
{
glyphname = i;
lastChange = "2017-12-19 05:45:55 +0000";
layers = (
{
layerId = "0B1DFD06-3317-40CA-B510-4969A0718C16";
paths = (
{
closed = 1;
nodes = (
"171 747 OFFCURVE",
"125 730 OFFCURVE",
"105 694 CURVE SMOOTH",
"84 659 OFFCURVE",
"94 615 OFFCURVE",
"134 592 CURVE SMOOTH",
"169 572 OFFCURVE",
"215 586 OFFCURVE",
"235 621 CURVE SMOOTH",
"255 657 OFFCURVE",
"244 704 OFFCURVE",
"207 724 CURVE"
);
},
{
closed = 1;
nodes = (
"181 482 LINE SMOOTH",
"181 511 OFFCURVE",
"139 511 OFFCURVE",
"139 482 CURVE SMOOTH",
"129 28 LINE",
"133 1 OFFCURVE",
"168 -4 OFFCURVE",
"173 28 CURVE"
);
}
);
width = 284;
}
);
note = i;
unicode = 0069;
},
{
glyphname = j;
lastChange = "2017-12-19 05:45:55 +0000";
layers = (
{
layerId = "0B1DFD06-3317-40CA-B510-4969A0718C16";
paths = (
{
closed = 1;
nodes = (
"196 477 LINE SMOOTH",
"196 505 OFFCURVE",
"153 505 OFFCURVE",
"153 477 CURVE SMOOTH",
"145 23 LINE",
"147 -94 OFFCURVE",
"104 -161 OFFCURVE",
"59 -181 CURVE SMOOTH",
"14 -201 OFFCURVE",
"-36 -177 OFFCURVE",
"-47 -103 CURVE",
"-50 -88 OFFCURVE",
"-58 -81 OFFCURVE",
"-71 -79 CURVE SMOOTH",
"-83 -77 OFFCURVE",
"-92 -85 OFFCURVE",
"-94 -101 CURVE",
"-77 -309 OFFCURVE",
"197 -285 OFFCURVE",
"188 23 CURVE"
);
},
{
closed = 1;
nodes = (
"184 749 OFFCURVE",
"138 732 OFFCURVE",
"117 695 CURVE SMOOTH",
"97 660 OFFCURVE",
"107 617 OFFCURVE",
"148 594 CURVE SMOOTH",
"182 574 OFFCURVE",
"228 587 OFFCURVE",
"247 622 CURVE SMOOTH",
"268 659 OFFCURVE",
"256 706 OFFCURVE",
"221 726 CURVE SMOOTH"
);
}
);
width = 284;
}
);
note = j;
unicode = 006A;
},
{
glyphname = k;
lastChange = "2017-12-19 05:45:55 +0000";
layers = (
{
layerId = "0B1DFD06-3317-40CA-B510-4969A0718C16";
paths = (
{
closed = 1;
nodes = (
"485 497 LINE",
"503 521 OFFCURVE",
"489 539 OFFCURVE",
"449 523 CURVE",
"407 495 OFFCURVE",
"337 442 OFFCURVE",
"155 328 CURVE",
"152 749 LINE",
"152 787 OFFCURVE",
"116 790 OFFCURVE",
"117 759 CURVE SMOOTH",
"116 8 LINE",
"134 -16 OFFCURVE",
"145 7 OFFCURVE",
"150 15 CURVE",
"152 230 LINE",
"258 160 OFFCURVE",
"346 90 OFFCURVE",
"463 2 CURVE",
"483 -1 OFFCURVE",
"500 9 OFFCURVE",
"493 31 CURVE",
"166 284 LINE"
);
}
);
width = 525;
}
);
note = k;
unicode = 006B;
},
{
glyphname = l;
lastChange = "2017-12-19 05:45:55 +0000";
layers = (
{
layerId = "0B1DFD06-3317-40CA-B510-4969A0718C16";
paths = (
{
closed = 1;
nodes = (
"129 837 LINE",
"129 866 OFFCURVE",
"91 864 OFFCURVE",
"87 837 CURVE",
"93 30 LINE SMOOTH",
"93 2 OFFCURVE",
"130 2 OFFCURVE",
"134 30 CURVE"
);
}
);
width = 239;
}
);
note = l;
unicode = 006C;
},
{
glyphname = m;
lastChange = "2017-12-19 05:45:55 +0000";
layers = (
{
layerId = "0B1DFD06-3317-40CA-B510-4969A0718C16";
paths = (
{
closed = 1;
nodes = (
"141 423 LINE",
"139 433 OFFCURVE",
"136 441 OFFCURVE",
"133 451 CURVE SMOOTH",
"127 467 OFFCURVE",
"119 481 OFFCURVE",
"110 493 CURVE",
"87 516 OFFCURVE",
"54 494 OFFCURVE",
"68 475 CURVE",
"81 462 OFFCURVE",
"88 449 OFFCURVE",
"93 437 CURVE",
"95 431 OFFCURVE",
"96 426 OFFCURVE",
"96 420 CURVE SMOOTH",
"101 20 LINE SMOOTH",
"101 -1 OFFCURVE",
"143 -3 OFFCURVE",
"143 20 CURVE",
"150 103 OFFCURVE",
"145 479 OFFCURVE",
"274 479 CURVE SMOOTH",
"429 479 OFFCURVE",
"390 77 OFFCURVE",
"397 17 CURVE",
"397 7 OFFCURVE",
"403 2 OFFCURVE",
"415 2 CURVE SMOOTH",
"428 2 OFFCURVE",
"434 6 OFFCURVE",
"437 15 CURVE",
"436 38 OFFCURVE",
"434 156 OFFCURVE",
"445 267 CURVE SMOOTH",
"456 381 OFFCURVE",
"488 484 OFFCURVE",
"548 484 CURVE SMOOTH",
"636 484 OFFCURVE",
"666 392 OFFCURVE",
"671 287 CURVE",
"679 186 OFFCURVE",
"664 65 OFFCURVE",
"672 12 CURVE",
"675 3 OFFCURVE",
"681 -1 OFFCURVE",
"691 0 CURVE SMOOTH",
"701 1 OFFCURVE",
"706 6 OFFCURVE",
"706 15 CURVE SMOOTH",
"706 78 OFFCURVE",
"707 139 OFFCURVE",
"709 200 CURVE SMOOTH",
"711 260 OFFCURVE",
"708 315 OFFCURVE",
"700 361 CURVE SMOOTH",
"683 456 OFFCURVE",
"644 517 OFFCURVE",
"547 517 CURVE SMOOTH",
"502 517 OFFCURVE",
"471 499 OFFCURVE",
"453 463 CURVE SMOOTH",
"435 428 OFFCURVE",
"423 384 OFFCURVE",
"416 332 CURVE",
"411 384 OFFCURVE",
"398 428 OFFCURVE",
"375 462 CURVE SMOOTH",
"352 496 OFFCURVE",
"320 513 OFFCURVE",
"279 513 CURVE SMOOTH",
"209 513 OFFCURVE",
"168 490 OFFCURVE",
"141 341 CURVE"
);
}
);
width = 799;
}
);
note = m;
unicode = 006D;
},
{
glyphname = n;
lastChange = "2017-12-19 05:45:55 +0000";
layers = (
{
layerId = "0B1DFD06-3317-40CA-B510-4969A0718C16";
paths = (
{
closed = 1;
nodes = (
"134 422 LINE",
"132 431 OFFCURVE",
"129 439 OFFCURVE",
"125 449 CURVE",
"119 465 OFFCURVE",
"112 479 OFFCURVE",
"103 491 CURVE",
"80 514 OFFCURVE",
"47 492 OFFCURVE",
"61 473 CURVE",
"75 457 OFFCURVE",
"82 443 OFFCURVE",
"87 432 CURVE SMOOTH",
"89 425 OFFCURVE",
"91 418 OFFCURVE",
"93 412 CURVE",
"103 23 LINE SMOOTH",
"103 -6 OFFCURVE",
"146 -4 OFFCURVE",
"146 21 CURVE",
"153 105 OFFCURVE",
"132 472 OFFCURVE",
"292 472 CURVE SMOOTH",
"414 472 OFFCURVE",
"417 379 OFFCURVE",
"422 274 CURVE SMOOTH",
"423 20 LINE SMOOTH",
"423 11 OFFCURVE",
"429 7 OFFCURVE",
"440 8 CURVE SMOOTH",
"452 9 OFFCURVE",
"459 12 OFFCURVE",
"462 20 CURVE",
"462 271 LINE SMOOTH",
"462 439 OFFCURVE",
"415 507 OFFCURVE",
"296 507 CURVE SMOOTH",
"216 507 OFFCURVE",
"157 481 OFFCURVE",
"134 339 CURVE"
);
}
);
width = 540;
}
);
note = n;
unicode = 006E;
},
{
glyphname = o;
lastChange = "2017-12-19 05:45:55 +0000";
layers = (
{
layerId = "0B1DFD06-3317-40CA-B510-4969A0718C16";
paths = (
{
closed = 1;
nodes = (
"540 425 OFFCURVE",
"419 515 OFFCURVE",
"289 515 CURVE SMOOTH",
"122 515 OFFCURVE",
"35 411 OFFCURVE",
"35 237 CURVE SMOOTH",
"35 56 OFFCURVE",
"175 0 OFFCURVE",
"282 0 CURVE SMOOTH",
"426 0 OFFCURVE",
"540 66 OFFCURVE",
"540 247 CURVE SMOOTH"
);
},
{
closed = 1;
nodes = (
"498 93 OFFCURVE",
"401 43 OFFCURVE",
"282 43 CURVE SMOOTH",
"190 43 OFFCURVE",
"77 87 OFFCURVE",
"77 237 CURVE SMOOTH",
"77 400 OFFCURVE",
"152 477 OFFCURVE",
"289 477 CURVE SMOOTH",
"395 477 OFFCURVE",
"498 405 OFFCURVE",
"498 233 CURVE SMOOTH"
);
}
);
width = 578;
}
);
note = o;
unicode = 006F;
},
{
glyphname = p;
lastChange = "2017-12-19 05:45:55 +0000";
layers = (
{
layerId = "0B1DFD06-3317-40CA-B510-4969A0718C16";
paths = (
{
closed = 1;
nodes = (
"105 411 OFFCURVE",
"206 472 OFFCURVE",
"292 472 CURVE SMOOTH",
"383 472 OFFCURVE",
"499 431 OFFCURVE",
"503 268 CURVE SMOOTH",
"503 117 OFFCURVE",
"428 49 OFFCURVE",
"296 45 CURVE SMOOTH",
"230 45 OFFCURVE",
"146 73 OFFCURVE",
"106 138 CURVE",
"103 174 OFFCURVE",
"103 207 OFFCURVE",
"103 235 CURVE SMOOTH",
"103 267 OFFCURVE",
"103 292 OFFCURVE",
"105 314 CURVE"
);
},
{
closed = 1;
nodes = (
"170 7 OFFCURVE",
"236 2 OFFCURVE",
"298 2 CURVE SMOOTH",
"442 2 OFFCURVE",
"545 89 OFFCURVE",
"545 264 CURVE SMOOTH",
"545 478 OFFCURVE",
"366 513 OFFCURVE",
"286 513 CURVE SMOOTH",
"227 513 OFFCURVE",
"157 479 OFFCURVE",
"93 416 CURVE",
"90 434 LINE",
"77 468 OFFCURVE",
"46 492 OFFCURVE",
"29 492 CURVE SMOOTH",
"18 492 OFFCURVE",
"10 487 OFFCURVE",
"10 478 CURVE SMOOTH",
"10 474 OFFCURVE",
"11 471 OFFCURVE",
"14 467 CURVE",
"54 435 OFFCURVE",
"64 382 OFFCURVE",
"64 173 CURVE SMOOTH",
"64 81 OFFCURVE",
"60 -43 OFFCURVE",
"52 -209 CURVE",
"54 -219 OFFCURVE",
"64 -224 OFFCURVE",
"73 -224 CURVE SMOOTH",
"84 -224 OFFCURVE",
"94 -218 OFFCURVE",
"94 -207 CURVE",
"103 -53 OFFCURVE",
"102 9 OFFCURVE",
"108 73 CURVE"
);
}
);
width = 599;
}
);
note = p;
unicode = 0070;
},
{
glyphname = q;
lastChange = "2017-12-19 05:45:55 +0000";
layers = (
{
layerId = "0B1DFD06-3317-40CA-B510-4969A0718C16";
paths = (
{
closed = 1;
nodes = (
"479 265 OFFCURVE",
"475 207 OFFCURVE",
"468 128 CURVE",
"428 71 OFFCURVE",
"355 44 OFFCURVE",
"291 44 CURVE SMOOTH",
"159 44 OFFCURVE",
"77 114 OFFCURVE",
"77 251 CURVE SMOOTH",
"77 422 OFFCURVE",
"186 471 OFFCURVE",
"276 471 CURVE SMOOTH",
"367 471 OFFCURVE",
"479 417 OFFCURVE",
"479 309 CURVE SMOOTH",
"479 307 OFFCURVE",
"479 304 OFFCURVE",
"479 303 CURVE SMOOTH"
);
},
{
closed = 1;
nodes = (
"463 -218 LINE SMOOTH",
"463 -218 OFFCURVE",
"463 -220 OFFCURVE",
"463 -221 CURVE SMOOTH",
"463 -230 OFFCURVE",
"474 -237 OFFCURVE",
"485 -237 CURVE SMOOTH",
"494 -237 OFFCURVE",
"502 -233 OFFCURVE",
"505 -223 CURVE",
"505 -196 OFFCURVE",
"504 -170 OFFCURVE",
"504 -145 CURVE SMOOTH",
"504 204 OFFCURVE",
"523 335 OFFCURVE",
"540 402 CURVE SMOOTH",
"547 431 OFFCURVE",
"581 445 OFFCURVE",
"581 463 CURVE SMOOTH",
"581 472 OFFCURVE",
"571 479 OFFCURVE",
"558 479 CURVE SMOOTH",
"541 479 OFFCURVE",
"510 452 OFFCURVE",
"498 422 CURVE",
"496 405 LINE",
"422 479 OFFCURVE",
"354 512 OFFCURVE",
"287 512 CURVE SMOOTH",
"194 512 OFFCURVE",
"36 468 OFFCURVE",
"36 251 CURVE SMOOTH",
"36 80 OFFCURVE",
"148 1 OFFCURVE",
"298 1 CURVE SMOOTH",
"354 1 OFFCURVE",
"406 9 OFFCURVE",
"463 63 CURVE"
);
}
);
width = 615;
}
);
note = q;
unicode = 0071;
},
{
glyphname = r;
lastChange = "2017-12-19 05:45:55 +0000";
layers = (
{
layerId = "0B1DFD06-3317-40CA-B510-4969A0718C16";
paths = (
{
closed = 1;
nodes = (
"74 517 OFFCURVE",
"63 524 OFFCURVE",
"53 524 CURVE SMOOTH",
"43 524 OFFCURVE",
"35 518 OFFCURVE",
"35 505 CURVE",
"52 315 OFFCURVE",
"54 194 OFFCURVE",
"54 116 CURVE SMOOTH",
"54 67 OFFCURVE",
"54 35 OFFCURVE",
"54 14 CURVE SMOOTH",
"54 0 OFFCURVE",
"65 -7 OFFCURVE",
"76 -7 CURVE SMOOTH",
"87 -7 OFFCURVE",
"98 0 OFFCURVE",
"98 14 CURVE",
"105 113 OFFCURVE",
"91 468 OFFCURVE",
"241 468 CURVE SMOOTH",
"314 468 OFFCURVE",
"334 421 OFFCURVE",
"334 374 CURVE SMOOTH",
"334 293 OFFCURVE",
"257 341 OFFCURVE",
"257 292 CURVE SMOOTH",
"257 281 OFFCURVE",
"281 277 OFFCURVE",
"302 277 CURVE SMOOTH",
"348 277 OFFCURVE",
"374 326 OFFCURVE",
"374 374 CURVE SMOOTH",
"374 439 OFFCURVE",
"349 506 OFFCURVE",
"241 510 CURVE",
"180 510 OFFCURVE",
"87 460 OFFCURVE",
"87 317 CURVE",
"80 415 OFFCURVE",
"77 470 OFFCURVE",
"77 507 CURVE"
);
}
);
width = 409;
}
);
note = r;
unicode = 0072;
},
{
glyphname = s;
lastChange = "2017-12-19 05:45:55 +0000";
layers = (
{
layerId = "0B1DFD06-3317-40CA-B510-4969A0718C16";
paths = (
{
closed = 1;
nodes = (
"319 367 LINE",
"321 356 OFFCURVE",
"328 350 OFFCURVE",
"341 351 CURVE SMOOTH",
"354 352 OFFCURVE",
"360 358 OFFCURVE",
"360 371 CURVE SMOOTH",
"360 456 OFFCURVE",
"295 519 OFFCURVE",
"186 517 CURVE SMOOTH",
"60 517 OFFCURVE",
"35 417 OFFCURVE",
"35 379 CURVE SMOOTH",
"35 211 OFFCURVE",
"326 274 OFFCURVE",
"326 123 CURVE SMOOTH",
"326 94 OFFCURVE",
"297 40 OFFCURVE",
"206 40 CURVE SMOOTH",
"138 40 OFFCURVE",
"109 68 OFFCURVE",
"91 96 CURVE SMOOTH",
"64 138 OFFCURVE",
"44 179 OFFCURVE",
"21 134 CURVE",
"35 69 OFFCURVE",
"106 -2 OFFCURVE",
"206 -2 CURVE SMOOTH",
"312 -2 OFFCURVE",
"367 64 OFFCURVE",
"367 123 CURVE SMOOTH",
"367 311 OFFCURVE",
"77 255 OFFCURVE",
"77 379 CURVE SMOOTH",
"77 402 OFFCURVE",
"88 475 OFFCURVE",
"186 475 CURVE SMOOTH",
"254 475 OFFCURVE",
"286 449 OFFCURVE",
"303 422 CURVE",
"320 398 OFFCURVE",
"319 368 OFFCURVE",
"319 366 CURVE"
);
}
);
width = 404;
}
);
note = s;
unicode = 0073;
},
{
glyphname = t;
lastChange = "2017-12-19 05:45:55 +0000";
layers = (
{
layerId = "0B1DFD06-3317-40CA-B510-4969A0718C16";
paths = (
{
closed = 1;
nodes = (
"109 450 OFFCURVE",
"77 459 OFFCURVE",
"51 459 CURVE SMOOTH",
"33 459 OFFCURVE",
"17 454 OFFCURVE",
"17 439 CURVE SMOOTH",
"17 417 OFFCURVE",
"67 415 OFFCURVE",
"118 402 CURVE",
"116 357 OFFCURVE",
"114 315 OFFCURVE",
"114 276 CURVE SMOOTH",
"114 113 OFFCURVE",
"141 13 OFFCURVE",
"235 13 CURVE SMOOTH",
"305 13 OFFCURVE",
"331 48 OFFCURVE",
"343 123 CURVE",
"340 142 OFFCURVE",
"326 154 OFFCURVE",
"315 154 CURVE SMOOTH",
"306 154 OFFCURVE",
"299 148 OFFCURVE",
"298 134 CURVE SMOOTH",
"291 90 OFFCURVE",
"277 58 OFFCURVE",
"241 58 CURVE SMOOTH",
"165 58 OFFCURVE",
"162 148 OFFCURVE",
"162 355 CURVE SMOOTH",
"162 369 OFFCURVE",
"162 383 OFFCURVE",
"162 397 CURVE",
"194 401 OFFCURVE",
"275 391 OFFCURVE",
"279 414 CURVE",
"279 426 OFFCURVE",
"278 442 OFFCURVE",
"162 442 CURVE",
"173 615 OFFCURVE",
"177 673 OFFCURVE",
"184 709 CURVE",
"184 722 OFFCURVE",
"180 728 OFFCURVE",
"169 728 CURVE SMOOTH",
"163 728 OFFCURVE",
"156 727 OFFCURVE",
"148 724 CURVE",
"128 710 OFFCURVE",
"136 578 OFFCURVE",
"118 447 CURVE"
);
}
);
width = 357;
}
);
note = t;
unicode = 0074;
},
{
glyphname = u;
lastChange = "2017-12-19 05:45:55 +0000";
layers = (
{
layerId = "0B1DFD06-3317-40CA-B510-4969A0718C16";
paths = (
{
closed = 1;
nodes = (
"402 83 LINE",
"412 45 OFFCURVE",
"422 7 OFFCURVE",
"451 7 CURVE SMOOTH",
"463 7 OFFCURVE",
"473 14 OFFCURVE",
"473 25 CURVE SMOOTH",
"473 28 OFFCURVE",
"472 31 OFFCURVE",
"470 35 CURVE",
"451 53 OFFCURVE",
"439 78 OFFCURVE",
"439 96 CURVE",
"428 485 LINE SMOOTH",
"428 500 OFFCURVE",
"417 507 OFFCURVE",
"406 507 CURVE SMOOTH",
"396 507 OFFCURVE",
"385 500 OFFCURVE",
"385 487 CURVE",
"378 403 OFFCURVE",
"424 37 OFFCURVE",
"239 37 CURVE SMOOTH",
"116 37 OFFCURVE",
"114 129 OFFCURVE",
"110 235 CURVE SMOOTH",
"108 489 LINE",
"108 496 OFFCURVE",
"103 501 OFFCURVE",
"93 501 CURVE SMOOTH",
"81 501 OFFCURVE",
"72 496 OFFCURVE",
"70 489 CURVE",
"70 237 LINE SMOOTH",
"70 70 OFFCURVE",
"116 4 OFFCURVE",
"235 2 CURVE SMOOTH",
"320 0 OFFCURVE",
"383 30 OFFCURVE",
"406 172 CURVE"
);
}
);
width = 530;
}
);
note = u;
unicode = 0075;
},
{
glyphname = v;
lastChange = "2017-12-19 05:45:55 +0000";
layers = (
{
layerId = "0B1DFD06-3317-40CA-B510-4969A0718C16";
paths = (
{
closed = 1;
nodes = (
"94 493 OFFCURVE",
"82 500 OFFCURVE",
"73 500 CURVE SMOOTH",
"65 500 OFFCURVE",
"59 495 OFFCURVE",
"59 480 CURVE SMOOTH",
"59 472 OFFCURVE",
"60 460 OFFCURVE",
"66 445 CURVE",
"88 386 OFFCURVE",
"179 10 OFFCURVE",
"258 10 CURVE SMOOTH",
"341 10 OFFCURVE",
"458 468 OFFCURVE",
"465 489 CURVE",
"465 507 OFFCURVE",
"458 514 OFFCURVE",
"450 514 CURVE SMOOTH",
"438 514 OFFCURVE",
"423 501 OFFCURVE",
"418 484 CURVE",
"402 445 OFFCURVE",
"301 52 OFFCURVE",
"258 52 CURVE SMOOTH",
"207 52 OFFCURVE",
"114 453 OFFCURVE",
"101 482 CURVE"
);
}
);
width = 505;
}
);
note = v;
unicode = 0076;
},
{
glyphname = w;
lastChange = "2017-12-19 05:45:55 +0000";
layers = (
{
layerId = "0B1DFD06-3317-40CA-B510-4969A0718C16";
paths = (
{
closed = 1;
nodes = (
"701 514 OFFCURVE",
"694 519 OFFCURVE",
"684 519 CURVE",
"680 518 OFFCURVE",
"674 515 OFFCURVE",
"668 512 CURVE",
"650 224 OFFCURVE",
"587 56 OFFCURVE",
"566 56 CURVE SMOOTH",
"517 56 OFFCURVE",
"416 286 OFFCURVE",
"412 397 CURVE",
"411 410 OFFCURVE",
"405 416 OFFCURVE",
"394 416 CURVE SMOOTH",
"384 416 OFFCURVE",
"378 411 OFFCURVE",
"376 402 CURVE",
"354 287 OFFCURVE",
"286 47 OFFCURVE",
"244 47 CURVE SMOOTH",
"218 47 OFFCURVE",
"154 176 OFFCURVE",
"120 503 CURVE",
"115 511 OFFCURVE",
"110 514 OFFCURVE",
"104 514 CURVE SMOOTH",
"97 514 OFFCURVE",
"89 511 OFFCURVE",
"83 507 CURVE",
"113 114 OFFCURVE",
"185 3 OFFCURVE",
"244 3 CURVE SMOOTH",
"297 3 OFFCURVE",
"348 142 OFFCURVE",
"395 327 CURVE",
"429 141 OFFCURVE",
"524 3 OFFCURVE",
"567 3 CURVE SMOOTH",
"613 3 OFFCURVE",
"678 128 OFFCURVE",
"709 496 CURVE"
);
}
);
width = 780;
}
);
note = w;
unicode = 0077;
},
{
glyphname = x;
lastChange = "2017-12-19 05:45:55 +0000";
layers = (
{
layerId = "0B1DFD06-3317-40CA-B510-4969A0718C16";
paths = (
{
closed = 1;
nodes = (
"422 14 LINE",
"428 3 OFFCURVE",
"437 -3 OFFCURVE",
"445 -3 CURVE SMOOTH",
"456 -3 OFFCURVE",
"465 7 OFFCURVE",
"467 25 CURVE",
"455 40 LINE SMOOTH",
"396 115 OFFCURVE",
"337 194 OFFCURVE",
"279 275 CURVE",
"302 307 OFFCURVE",
"326 340 OFFCURVE",
"351 376 CURVE SMOOTH",
"379 417 OFFCURVE",
"420 471 OFFCURVE",
"420 490 CURVE SMOOTH",
"420 502 OFFCURVE",
"410 513 OFFCURVE",
"399 513 CURVE SMOOTH",
"393 513 OFFCURVE",
"387 509 OFFCURVE",
"383 502 CURVE",
"251 312 LINE",
"210 371 OFFCURVE",
"126 512 OFFCURVE",
"81 512 CURVE SMOOTH",
"71 512 OFFCURVE",
"62 507 OFFCURVE",
"62 498 CURVE",
"63 493 OFFCURVE",
"65 485 OFFCURVE",
"71 477 CURVE SMOOTH",
"126 409 OFFCURVE",
"177 334 OFFCURVE",
"221 274 CURVE",
"207 252 OFFCURVE",
"165 201 OFFCURVE",
"128 149 CURVE SMOOTH",
"82 85 OFFCURVE",
"49 31 OFFCURVE",
"49 21 CURVE SMOOTH",
"49 11 OFFCURVE",
"56 3 OFFCURVE",
"68 3 CURVE SMOOTH",
"74 3 OFFCURVE",
"80 7 OFFCURVE",
"85 14 CURVE",
"125 82 OFFCURVE",
"189 155 OFFCURVE",
"249 233 CURVE",
"300 162 OFFCURVE",
"358 94 OFFCURVE",
"422 12 CURVE"
);
}
);
width = 498;
}
);
note = x;
unicode = 0078;
},
{
glyphname = y;
lastChange = "2017-12-19 05:45:55 +0000";
layers = (
{
layerId = "0B1DFD06-3317-40CA-B510-4969A0718C16";
paths = (
{
closed = 1;
nodes = (
"162 -236 OFFCURVE",
"162 -240 OFFCURVE",
"162 -242 CURVE SMOOTH",
"162 -249 OFFCURVE",
"168 -257 OFFCURVE",
"181 -257 CURVE SMOOTH",
"191 -257 OFFCURVE",
"201 -250 OFFCURVE",
"211 -235 CURVE",
"364 131 OFFCURVE",
"411 289 OFFCURVE",
"431 394 CURVE SMOOTH",
"451 493 LINE",
"451 502 OFFCURVE",
"445 509 OFFCURVE",
"432 509 CURVE SMOOTH",
"422 509 OFFCURVE",
"414 503 OFFCURVE",
"409 491 CURVE",
"335 183 OFFCURVE",
"293 82 OFFCURVE",
"271 80 CURVE",
"229 100 OFFCURVE",
"157 180 OFFCURVE",
"78 491 CURVE",
"74 502 OFFCURVE",
"66 507 OFFCURVE",
"59 507 CURVE SMOOTH",
"50 507 OFFCURVE",
"43 500 OFFCURVE",
"40 489 CURVE",
"91 276 OFFCURVE",
"143 168 OFFCURVE",
"184 108 CURVE SMOOTH",
"213 67 OFFCURVE",
"257 44 OFFCURVE",
"257 33 CURVE SMOOTH",
"257 2 OFFCURVE",
"237 -55 OFFCURVE",
"164 -233 CURVE"
);
}
);
width = 508;
}
);
note = y;
unicode = 0079;
},
{
glyphname = z;
lastChange = "2017-12-19 05:45:55 +0000";
layers = (
{
layerId = "0B1DFD06-3317-40CA-B510-4969A0718C16";
paths = (
{
closed = 1;
nodes = (
"93 33 OFFCURVE",
"92 34 OFFCURVE",
"92 35 CURVE SMOOTH",
"92 48 OFFCURVE",
"210 154 OFFCURVE",
"495 468 CURVE",
"498 473 OFFCURVE",
"500 477 OFFCURVE",
"500 480 CURVE SMOOTH",
"500 491 OFFCURVE",
"480 500 OFFCURVE",
"473 500 CURVE SMOOTH",
"385 500 OFFCURVE",
"327 489 OFFCURVE",
"268 489 CURVE SMOOTH",
"220 489 OFFCURVE",
"171 493 OFFCURVE",
"106 503 CURVE",
"105 503 OFFCURVE",
"103 503 OFFCURVE",
"101 503 CURVE SMOOTH",
"90 503 OFFCURVE",
"84 499 OFFCURVE",
"84 492 CURVE SMOOTH",
"84 466 OFFCURVE",
"154 459 OFFCURVE",
"308 459 CURVE SMOOTH",
"371 459 OFFCURVE",
"430 462 OFFCURVE",
"462 468 CURVE",
"376 377 OFFCURVE",
"234 242 OFFCURVE",
"56 38 CURVE",
"50 33 OFFCURVE",
"48 29 OFFCURVE",
"48 25 CURVE SMOOTH",
"48 11 OFFCURVE",
"72 3 OFFCURVE",
"80 3 CURVE SMOOTH",
"175 3 OFFCURVE",
"226 9 OFFCURVE",
"295 9 CURVE SMOOTH",
"337 9 OFFCURVE",
"387 7 OFFCURVE",
"458 0 CURVE",
"459 0 OFFCURVE",
"460 0 OFFCURVE",
"461 0 CURVE SMOOTH",
"468 0 OFFCURVE",
"470 5 OFFCURVE",
"470 11 CURVE SMOOTH",
"470 17 OFFCURVE",
"467 24 OFFCURVE",
"462 26 CURVE",
"403 36 OFFCURVE",
"336 38 OFFCURVE",
"274 38 CURVE SMOOTH",
"188 38 OFFCURVE",
"113 33 OFFCURVE",
"94 33 CURVE SMOOTH"
);
}
);
width = 550;
}
);
note = z;
unicode = 007A;
},
{
glyphname = AE;
lastChange = "2017-12-19 05:47:03 +0000";
layers = (
{
layerId = "0B1DFD06-3317-40CA-B510-4969A0718C16";
paths = (
{
closed = 1;
nodes = (
"588 54 LINE",
"588 36 OFFCURVE",
"598 26 OFFCURVE",
"609 21 CURVE",
"615 17 OFFCURVE",
"621 15 OFFCURVE",
"628 15 CURVE SMOOTH",
"937 15 LINE",
"946 14 OFFCURVE",
"951 18 OFFCURVE",
"953 27 CURVE SMOOTH",
"955 37 OFFCURVE",
"949 43 OFFCURVE",
"937 43 CURVE",
"655 43 LINE SMOOTH",
"648 43 OFFCURVE",
"642 44 OFFCURVE",
"638 45 CURVE SMOOTH",
"626 48 OFFCURVE",
"621 52 OFFCURVE",
"621 60 CURVE",
"599 211 LINE",
"570 414 LINE",
"569 417 OFFCURVE",
"569 419 OFFCURVE",
"570 422 CURVE",
"572 426 OFFCURVE",
"574 429 OFFCURVE",
"585 432 CURVE",
"897 432 LINE",
"907 431 OFFCURVE",
"913 434 OFFCURVE",
"915 444 CURVE SMOOTH",
"916 453 OFFCURVE",
"910 458 OFFCURVE",
"897 458 CURVE SMOOTH",
"585 458 LINE",
"581 457 OFFCURVE",
"577 457 OFFCURVE",
"573 460 CURVE",
"564 464 OFFCURVE",
"558 473 OFFCURVE",
"557 484 CURVE",
"538 638 LINE",
"519 782 LINE",
"518 802 OFFCURVE",
"525 808 OFFCURVE",
"543 804 CURVE",
"917 804 LINE SMOOTH",
"927 804 OFFCURVE",
"932 808 OFFCURVE",
"932 817 CURVE SMOOTH",
"933 826 OFFCURVE",
"928 830 OFFCURVE",
"917 830 CURVE SMOOTH",
"475 829 LINE",
"468 830 OFFCURVE",
"462 830 OFFCURVE",
"456 829 CURVE",
"444 826 OFFCURVE",
"436 822 OFFCURVE",
"434 809 CURVE",
"9 15 LINE",
"3 -6 OFFCURVE",
"37 3 OFFCURVE",
"45 15 CURVE",
"228 364 LINE",
"543 364 LINE"
);
},
{
closed = 1;
nodes = (
"538 390 LINE",
"244 390 LINE",
"442 773 LINE",
"457 796 OFFCURVE",
"468 805 OFFCURVE",
"474 799 CURVE SMOOTH",
"480 793 OFFCURVE",
"485 783 OFFCURVE",
"487 768 CURVE SMOOTH"
);
}
);
width = 1012;
}
);
note = AE;
unicode = 00C6;
},
{
glyphname = Eth;
lastChange = "2017-12-19 05:47:24 +0000";
layers = (
{
layerId = "0B1DFD06-3317-40CA-B510-4969A0718C16";
paths = (
{
closed = 1;
nodes = (
"159 408 LINE",
"156 37 LINE",
"102 54 LINE",
"77 54 OFFCURVE",
"67 14 OFFCURVE",
"96 9 CURVE",
"128 4 OFFCURVE",
"150 1 OFFCURVE",
"187 -2 CURVE SMOOTH",
"556 -24 OFFCURVE",
"758 131 OFFCURVE",
"779 427 CURVE",
"765 723 OFFCURVE",
"547 853 OFFCURVE",
"196 870 CURVE",
"194 883 OFFCURVE",
"205 905 OFFCURVE",
"178 910 CURVE SMOOTH",
"156 913 OFFCURVE",
"162 885 OFFCURVE",
"159 872 CURVE",
"91 876 OFFCURVE",
"97 841 OFFCURVE",
"156 839 CURVE",
"159 443 LINE",
"37 445 LINE SMOOTH",
"0 445 OFFCURVE",
"0 410 OFFCURVE",
"37 410 CURVE SMOOTH"
);
},
{
closed = 1;
nodes = (
"195 842 LINE",
"486 825 OFFCURVE",
"738 716 OFFCURVE",
"742 427 CURVE",
"720 88 OFFCURVE",
"451 14 OFFCURVE",
"195 34 CURVE",
"195 406 LINE",
"451 403 LINE SMOOTH",
"488 403 OFFCURVE",
"488 438 OFFCURVE",
"451 438 CURVE SMOOTH",
"195 441 LINE"
);
}
);
width = 909;
}
);
note = Eth;
unicode = 00D0;
},
{
glyphname = Dcroat;
lastChange = "2017-12-19 05:47:24 +0000";
layers = (
{
layerId = "0B1DFD06-3317-40CA-B510-4969A0718C16";
paths = (
{
closed = 1;
nodes = (
"174 374 LINE",
"179 12 LINE",
"113 28 LINE",
"92 26 OFFCURVE",
"93 -14 OFFCURVE",
"115 -17 CURVE",
"143 -23 OFFCURVE",
"176 -25 OFFCURVE",
"209 -25 CURVE",
"521 -38 OFFCURVE",
"751 134 OFFCURVE",
"761 412 CURVE",
"747 707 OFFCURVE",
"504 833 OFFCURVE",
"213 842 CURVE",
"217 898 OFFCURVE",
"167 902 OFFCURVE",
"167 842 CURVE",
"149 842 OFFCURVE",
"138 842 OFFCURVE",
"115 830 CURVE",
"97 819 OFFCURVE",
"112 784 OFFCURVE",
"141 796 CURVE",
"169 802 LINE",
"174 420 LINE",
"45 416 LINE SMOOTH",
"14 416 OFFCURVE",
"14 371 OFFCURVE",
"45 371 CURVE SMOOTH"
);
},
{
closed = 1;
nodes = (
"213 804 LINE",
"273 801 OFFCURVE",
"332 791 OFFCURVE",
"392 777 CURVE SMOOTH",
"452 762 OFFCURVE",
"506 740 OFFCURVE",
"553 709 CURVE SMOOTH",
"647 648 OFFCURVE",
"711 553 OFFCURVE",
"716 411 CURVE SMOOTH",
"718 298 OFFCURVE",
"660 193 OFFCURVE",
"569 119 CURVE SMOOTH",
"477 47 OFFCURVE",
"351 5 OFFCURVE",
"223 12 CURVE",
"218 374 LINE",
"427 379 LINE SMOOTH",
"456 379 OFFCURVE",
"456 425 OFFCURVE",
"427 425 CURVE SMOOTH",
"218 420 LINE"
);
}
);
width = 832;
}
);
note = Dcroat;
unicode = 0110;
},
{
glyphname = Eacute;
lastChange = "2017-12-19 05:21:12 +0000";
layers = (
{
background = {
paths = (
{
closed = 1;
nodes = (
"554 0 LINE",
"571 179 LINE",
"544 179 LINE",
"538 124 OFFCURVE",
"520 40 OFFCURVE",
"456 40 CURVE SMOOTH",
"201 40 LINE",
"201 659 LINE",
"441 659 LINE SMOOTH",
"516 659 OFFCURVE",
"525 567 OFFCURVE",
"528 527 CURVE",
"555 527 LINE",
"555 700 LINE",
"16 700 LINE",
"16 673 LINE",
"44 673 LINE SMOOTH",
"83 673 OFFCURVE",
"103 662 OFFCURVE",
"103 637 CURVE SMOOTH",
"103 62 LINE SMOOTH",
"103 37 OFFCURVE",
"83 26 OFFCURVE",
"44 26 CURVE SMOOTH",
"16 26 LINE",
"16 0 LINE"
);
},
{
closed = 1;
nodes = (
"455 251 LINE",
"455 485 LINE",
"431 485 LINE",
"427 436 OFFCURVE",
"424 388 OFFCURVE",
"379 388 CURVE SMOOTH",
"162 388 LINE",
"162 348 LINE",
"379 348 LINE SMOOTH",
"424 348 OFFCURVE",
"427 300 OFFCURVE",
"431 251 CURVE"
);
},
{
closed = 1;
nodes = (
"398 865 LINE SMOOTH",
"420 877 OFFCURVE",
"432 890 OFFCURVE",
"432 907 CURVE SMOOTH",
"432 922 OFFCURVE",
"420 937 OFFCURVE",
"398 937 CURVE SMOOTH",
"377 937 OFFCURVE",
"362 921 OFFCURVE",
"354 914 CURVE SMOOTH",
"239 807 LINE",
"256 782 LINE"
);
}
);
};
components = (
{
name = E;
},
{
name = acute;
transform = "{1, 0, 0, 1, 56, 230}";
}
);
layerId = "0B1DFD06-3317-40CA-B510-4969A0718C16";
width = 607;
}
);
note = Eacute;
unicode = 00C9;
},
{
glyphname = Ebreve;
lastChange = "2017-12-19 05:21:12 +0000";
layers = (
{
background = {
paths = (
{
closed = 1;
nodes = (
"554 0 LINE",
"571 179 LINE",
"544 179 LINE",
"538 124 OFFCURVE",
"520 40 OFFCURVE",
"456 40 CURVE SMOOTH",
"201 40 LINE",
"201 659 LINE",
"441 659 LINE SMOOTH",
"516 659 OFFCURVE",
"525 567 OFFCURVE",
"528 527 CURVE",
"555 527 LINE",
"555 700 LINE",
"16 700 LINE",
"16 673 LINE",
"44 673 LINE SMOOTH",
"83 673 OFFCURVE",
"103 662 OFFCURVE",
"103 637 CURVE SMOOTH",
"103 62 LINE SMOOTH",
"103 37 OFFCURVE",
"83 26 OFFCURVE",
"44 26 CURVE SMOOTH",
"16 26 LINE",
"16 0 LINE"
);
},
{
closed = 1;
nodes = (
"455 251 LINE",
"455 485 LINE",
"431 485 LINE",
"427 436 OFFCURVE",
"424 388 OFFCURVE",
"379 388 CURVE SMOOTH",
"162 388 LINE",
"162 348 LINE",
"379 348 LINE SMOOTH",
"424 348 OFFCURVE",
"427 300 OFFCURVE",
"431 251 CURVE"
);
},
{
closed = 1;
nodes = (
"432 776 OFFCURVE",
"474 832 OFFCURVE",
"478 907 CURVE",
"445 907 LINE",
"439 848 OFFCURVE",
"397 822 OFFCURVE",
"333 822 CURVE SMOOTH",
"269 822 OFFCURVE",
"226 848 OFFCURVE",
"219 907 CURVE",
"186 907 LINE",
"190 829 OFFCURVE",
"232 776 OFFCURVE",
"333 776 CURVE SMOOTH"
);
}
);
};
components = (
{
name = E;
},
{
name = breve;
transform = "{1, 0, 0, 1, 68, 230}";
}
);
layerId = "0B1DFD06-3317-40CA-B510-4969A0718C16";
width = 607;
}
);
note = Ebreve;
unicode = 0114;
},
{
glyphname = Ecaron;
lastChange = "2017-12-19 05:21:12 +0000";
layers = (
{
background = {
paths = (
{
closed = 1;
nodes = (
"554 0 LINE",
"571 179 LINE",
"544 179 LINE",
"538 124 OFFCURVE",
"520 40 OFFCURVE",
"456 40 CURVE SMOOTH",
"201 40 LINE",
"201 659 LINE",
"441 659 LINE SMOOTH",
"516 659 OFFCURVE",
"525 567 OFFCURVE",
"528 527 CURVE",
"555 527 LINE",
"555 700 LINE",
"16 700 LINE",
"16 673 LINE",
"44 673 LINE SMOOTH",
"83 673 OFFCURVE",
"103 662 OFFCURVE",
"103 637 CURVE SMOOTH",
"103 62 LINE SMOOTH",
"103 37 OFFCURVE",
"83 26 OFFCURVE",
"44 26 CURVE SMOOTH",
"16 26 LINE",
"16 0 LINE"
);
},
{
closed = 1;
nodes = (
"455 251 LINE",
"455 485 LINE",
"431 485 LINE",
"427 436 OFFCURVE",
"424 388 OFFCURVE",
"379 388 CURVE SMOOTH",
"162 388 LINE",
"162 348 LINE",
"379 348 LINE SMOOTH",
"424 348 OFFCURVE",
"427 300 OFFCURVE",
"431 251 CURVE"
);
},
{
closed = 1;
nodes = (
"357 782 LINE",
"481 911 LINE",
"462 932 LINE",
"354 847 LINE",
"346 840 OFFCURVE",
"337 836 OFFCURVE",
"331 836 CURVE SMOOTH",
"325 836 OFFCURVE",
"317 840 OFFCURVE",
"307 847 CURVE",
"199 932 LINE",
"180 911 LINE",
"304 782 LINE"
);
}
);
};
components = (
{
name = E;
},
{
name = caron;
transform = "{1, 0, 0, 1, 68, 230}";
}
);
layerId = "0B1DFD06-3317-40CA-B510-4969A0718C16";
width = 607;
}
);
note = Ecaron;
unicode = 011A;
},
{
glyphname = Ecircumflex;
lastChange = "2017-12-19 05:21:12 +0000";
layers = (
{
background = {
paths = (
{
closed = 1;
nodes = (
"554 0 LINE",
"571 179 LINE",
"544 179 LINE",
"538 124 OFFCURVE",
"520 40 OFFCURVE",
"456 40 CURVE SMOOTH",
"201 40 LINE",
"201 659 LINE",
"441 659 LINE SMOOTH",
"516 659 OFFCURVE",
"525 567 OFFCURVE",
"528 527 CURVE",
"555 527 LINE",
"555 700 LINE",
"16 700 LINE",
"16 673 LINE",
"44 673 LINE SMOOTH",
"83 673 OFFCURVE",
"103 662 OFFCURVE",
"103 637 CURVE SMOOTH",
"103 62 LINE SMOOTH",
"103 37 OFFCURVE",
"83 26 OFFCURVE",
"44 26 CURVE SMOOTH",
"16 26 LINE",
"16 0 LINE"
);
},
{
closed = 1;
nodes = (
"455 251 LINE",
"455 485 LINE",
"431 485 LINE",
"427 436 OFFCURVE",
"424 388 OFFCURVE",
"379 388 CURVE SMOOTH",
"162 388 LINE",
"162 348 LINE",
"379 348 LINE SMOOTH",
"424 348 OFFCURVE",
"427 300 OFFCURVE",
"431 251 CURVE"
);
},
{
closed = 1;
nodes = (
"304 868 LINE SMOOTH",
"312 874 OFFCURVE",
"322 879 OFFCURVE",
"328 879 CURVE SMOOTH",
"334 879 OFFCURVE",
"342 874 OFFCURVE",
"351 868 CURVE",
"459 782 LINE",
"478 803 LINE",
"354 932 LINE",
"301 932 LINE",
"177 803 LINE",
"196 782 LINE"
);
}
);
};
components = (
{
name = E;
},
{
name = circumflex;
transform = "{1, 0, 0, 1, 68, 230}";
}
);
layerId = "0B1DFD06-3317-40CA-B510-4969A0718C16";
width = 607;
}
);
note = Ecircumflex;
unicode = 00CA;
},
{
glyphname = Ecircumflexacute;
lastChange = "2017-12-19 05:21:12 +0000";
layers = (
{
background = {
paths = (
{
closed = 1;
nodes = (
"554 0 LINE",
"571 179 LINE",
"544 179 LINE",
"538 124 OFFCURVE",
"520 40 OFFCURVE",
"456 40 CURVE SMOOTH",
"201 40 LINE",
"201 659 LINE",
"441 659 LINE SMOOTH",
"516 659 OFFCURVE",
"525 567 OFFCURVE",
"528 527 CURVE",
"555 527 LINE",
"555 700 LINE",
"16 700 LINE",
"16 673 LINE",
"44 673 LINE SMOOTH",
"83 673 OFFCURVE",
"103 662 OFFCURVE",
"103 637 CURVE SMOOTH",
"103 62 LINE SMOOTH",
"103 37 OFFCURVE",
"83 26 OFFCURVE",
"44 26 CURVE SMOOTH",
"16 26 LINE",
"16 0 LINE"
);
},
{
closed = 1;
nodes = (
"455 251 LINE",
"455 485 LINE",
"431 485 LINE",
"427 436 OFFCURVE",
"424 388 OFFCURVE",
"379 388 CURVE SMOOTH",
"162 388 LINE",
"162 348 LINE",
"379 348 LINE SMOOTH",
"424 348 OFFCURVE",
"427 300 OFFCURVE",
"431 251 CURVE"
);
},
{
closed = 1;
nodes = (
"290 862 LINE SMOOTH",
"300 870 OFFCURVE",
"310 878 OFFCURVE",
"318 878 CURVE SMOOTH",
"324 878 OFFCURVE",
"332 873 OFFCURVE",
"341 867 CURVE",
"447 781 LINE",
"466 803 LINE",
"344 932 LINE",
"293 932 LINE",
"171 803 LINE",
"189 781 LINE"
);
},
{
closed = 1;
nodes = (
"555 960 LINE SMOOTH",
"578 972 OFFCURVE",
"591 988 OFFCURVE",
"591 1003 CURVE SMOOTH",
"591 1017 OFFCURVE",
"580 1034 OFFCURVE",
"557 1034 CURVE SMOOTH",
"538 1034 OFFCURVE",
"521 1018 OFFCURVE",
"511 1008 CURVE SMOOTH",
"415 915 LINE",
"433 893 LINE"
);
}
);
};
components = (
{
name = E;
},
{
name = circumflexacute;
transform = "{1, 0, 0, 1, 564, 230}";
}
);
layerId = "0B1DFD06-3317-40CA-B510-4969A0718C16";
width = 607;
}
);
note = Ecircumflexacute;
unicode = 1EBE;
},
{
glyphname = Ecircumflexdotbelow;
lastChange = "2017-12-19 05:21:12 +0000";
layers = (
{
background = {
paths = (
{
closed = 1;
nodes = (
"554 0 LINE",
"571 179 LINE",
"544 179 LINE",
"538 124 OFFCURVE",
"520 40 OFFCURVE",
"456 40 CURVE SMOOTH",
"201 40 LINE",
"201 659 LINE",
"441 659 LINE SMOOTH",
"516 659 OFFCURVE",
"525 567 OFFCURVE",
"528 527 CURVE",
"555 527 LINE",
"555 700 LINE",
"16 700 LINE",
"16 673 LINE",
"44 673 LINE SMOOTH",
"83 673 OFFCURVE",
"103 662 OFFCURVE",
"103 637 CURVE SMOOTH",
"103 62 LINE SMOOTH",
"103 37 OFFCURVE",
"83 26 OFFCURVE",
"44 26 CURVE SMOOTH",
"16 26 LINE",
"16 0 LINE"
);
},
{
closed = 1;
nodes = (
"350 -159 OFFCURVE",
"368 -140 OFFCURVE",
"368 -112 CURVE SMOOTH",
"368 -84 OFFCURVE",
"350 -64 OFFCURVE",
"322 -64 CURVE SMOOTH",
"294 -64 OFFCURVE",
"275 -84 OFFCURVE",
"275 -112 CURVE SMOOTH",
"275 -140 OFFCURVE",
"294 -159 OFFCURVE",
"322 -159 CURVE SMOOTH"
);
},
{
closed = 1;
nodes = (
"455 251 LINE",
"455 485 LINE",
"431 485 LINE",
"427 436 OFFCURVE",
"424 388 OFFCURVE",
"379 388 CURVE SMOOTH",
"162 388 LINE",
"162 348 LINE",
"379 348 LINE SMOOTH",
"424 348 OFFCURVE",
"427 300 OFFCURVE",
"431 251 CURVE"
);
},
{
closed = 1;
nodes = (
"294 868 LINE SMOOTH",
"302 874 OFFCURVE",
"312 879 OFFCURVE",
"318 879 CURVE SMOOTH",
"324 879 OFFCURVE",
"332 874 OFFCURVE",
"341 868 CURVE",
"449 782 LINE",
"468 803 LINE",
"344 932 LINE",
"291 932 LINE",
"167 803 LINE",
"186 782 LINE"
);
}
);
};
components = (
{
name = E;
},
{
name = dotbelowcomb;
transform = "{1, 0, 0, 1, 565, 0}";
},
{
name = circumflex;
transform = "{1, 0, 0, 1, 68, 230}";
}
);
layerId = "0B1DFD06-3317-40CA-B510-4969A0718C16";
width = 607;
}
);
note = Ecircumflexdotbelow;
unicode = 1EC6;
},
{
glyphname = Ecircumflexgrave;
lastChange = "2017-12-19 05:21:12 +0000";
layers = (
{
background = {
paths = (
{
closed = 1;
nodes = (
"554 0 LINE",
"571 179 LINE",
"544 179 LINE",
"538 124 OFFCURVE",
"520 40 OFFCURVE",
"456 40 CURVE SMOOTH",
"201 40 LINE",
"201 659 LINE",
"441 659 LINE SMOOTH",
"516 659 OFFCURVE",
"525 567 OFFCURVE",
"528 527 CURVE",
"555 527 LINE",
"555 700 LINE",
"16 700 LINE",
"16 673 LINE",
"44 673 LINE SMOOTH",
"83 673 OFFCURVE",
"103 662 OFFCURVE",
"103 637 CURVE SMOOTH",
"103 62 LINE SMOOTH",
"103 37 OFFCURVE",
"83 26 OFFCURVE",
"44 26 CURVE SMOOTH",
"16 26 LINE",
"16 0 LINE"
);
},
{
closed = 1;
nodes = (
"455 251 LINE",
"455 485 LINE",
"431 485 LINE",
"427 436 OFFCURVE",
"424 388 OFFCURVE",
"379 388 CURVE SMOOTH",
"162 388 LINE",
"162 348 LINE",
"379 348 LINE SMOOTH",
"424 348 OFFCURVE",
"427 300 OFFCURVE",
"431 251 CURVE"
);
},
{
closed = 1;
nodes = (
"227 915 LINE",
"132 1008 LINE SMOOTH",
"122 1018 OFFCURVE",
"105 1034 OFFCURVE",
"85 1034 CURVE SMOOTH",
"63 1034 OFFCURVE",
"52 1017 OFFCURVE",
"52 1003 CURVE SMOOTH",
"52 988 OFFCURVE",
"65 972 OFFCURVE",
"88 960 CURVE SMOOTH",
"210 893 LINE"
);
},
{
closed = 1;
nodes = (
"290 862 LINE SMOOTH",
"300 870 OFFCURVE",
"310 878 OFFCURVE",
"318 878 CURVE SMOOTH",
"324 878 OFFCURVE",
"332 873 OFFCURVE",
"341 867 CURVE",
"447 781 LINE",
"466 803 LINE",
"344 932 LINE",
"293 932 LINE",
"171 803 LINE",
"189 781 LINE"
);
}
);
};
components = (
{
name = E;
},
{
name = circumflexgrave;
transform = "{1, 0, 0, 1, 564, 230}";
}
);
layerId = "0B1DFD06-3317-40CA-B510-4969A0718C16";
width = 607;
}
);
note = Ecircumflexgrave;
unicode = 1EC0;
},
{
glyphname = Ecircumflexhookabove;
lastChange = "2017-12-19 05:21:12 +0000";
layers = (
{
background = {
paths = (
{
closed = 1;
nodes = (
"554 0 LINE",
"571 179 LINE",
"544 179 LINE",
"538 124 OFFCURVE",
"520 40 OFFCURVE",
"456 40 CURVE SMOOTH",
"201 40 LINE",
"201 659 LINE",
"441 659 LINE SMOOTH",
"516 659 OFFCURVE",
"525 567 OFFCURVE",
"528 527 CURVE",
"555 527 LINE",
"555 700 LINE",
"16 700 LINE",
"16 673 LINE",
"44 673 LINE SMOOTH",
"83 673 OFFCURVE",
"103 662 OFFCURVE",
"103 637 CURVE SMOOTH",
"103 62 LINE SMOOTH",
"103 37 OFFCURVE",
"83 26 OFFCURVE",
"44 26 CURVE SMOOTH",
"16 26 LINE",
"16 0 LINE"
);
},
{
closed = 1;
nodes = (
"455 251 LINE",
"455 485 LINE",
"431 485 LINE",
"427 436 OFFCURVE",
"424 388 OFFCURVE",
"379 388 CURVE SMOOTH",
"162 388 LINE",
"162 348 LINE",
"379 348 LINE SMOOTH",
"424 348 OFFCURVE",
"427 300 OFFCURVE",
"431 251 CURVE"
);
},
{
closed = 1;
nodes = (
"286 858 LINE",
"297 868 OFFCURVE",
"309 878 OFFCURVE",
"318 878 CURVE SMOOTH",
"324 878 OFFCURVE",
"332 873 OFFCURVE",
"341 867 CURVE",
"447 781 LINE",
"466 803 LINE",
"344 932 LINE",
"293 932 LINE",
"171 803 LINE",
"189 781 LINE"
);
},
{
closed = 1;
nodes = (
"493 898 LINE",
"474 905 OFFCURVE",
"464 912 OFFCURVE",
"464 926 CURVE SMOOTH",
"464 954 OFFCURVE",
"544 965 OFFCURVE",
"544 1010 CURVE SMOOTH",
"544 1047 OFFCURVE",
"502 1063 OFFCURVE",
"460 1063 CURVE SMOOTH",
"429 1063 OFFCURVE",
"384 1053 OFFCURVE",
"384 1022 CURVE SMOOTH",
"384 1010 OFFCURVE",
"395 1001 OFFCURVE",
"405 1001 CURVE SMOOTH",
"434 1001 OFFCURVE",
"421 1040 OFFCURVE",
"464 1040 CURVE SMOOTH",
"483 1040 OFFCURVE",
"494 1028 OFFCURVE",
"494 1013 CURVE SMOOTH",
"494 973 OFFCURVE",
"421 965 OFFCURVE",
"421 925 CURVE SMOOTH",
"421 901 OFFCURVE",
"437 880 OFFCURVE",
"484 880 CURVE"
);
}
);
};
components = (
{
name = E;
},
{
name = circumflexhookabove;
transform = "{1, 0, 0, 1, 564, 230}";
}
);
layerId = "0B1DFD06-3317-40CA-B510-4969A0718C16";
width = 607;
}
);
note = Ecircumflexhookabove;
unicode = 1EC2;
},
{
glyphname = Ecircumflextilde;
lastChange = "2017-12-19 05:21:12 +0000";
layers = (
{
background = {
paths = (
{
closed = 1;
nodes = (
"554 0 LINE",
"571 179 LINE",
"544 179 LINE",
"538 124 OFFCURVE",
"520 40 OFFCURVE",
"456 40 CURVE SMOOTH",
"201 40 LINE",
"201 659 LINE",
"441 659 LINE SMOOTH",
"516 659 OFFCURVE",
"525 567 OFFCURVE",
"528 527 CURVE",
"555 527 LINE",
"555 700 LINE",
"16 700 LINE",
"16 673 LINE",
"44 673 LINE SMOOTH",
"83 673 OFFCURVE",
"103 662 OFFCURVE",
"103 637 CURVE SMOOTH",
"103 62 LINE SMOOTH",
"103 37 OFFCURVE",
"83 26 OFFCURVE",
"44 26 CURVE SMOOTH",
"16 26 LINE",
"16 0 LINE"
);
},
{
closed = 1;
nodes = (
"455 251 LINE",
"455 485 LINE",
"431 485 LINE",
"427 436 OFFCURVE",
"424 388 OFFCURVE",
"379 388 CURVE SMOOTH",
"162 388 LINE",
"162 348 LINE",
"379 348 LINE SMOOTH",
"424 348 OFFCURVE",
"427 300 OFFCURVE",
"431 251 CURVE"
);
},
{
closed = 1;
nodes = (
"290 862 LINE SMOOTH",
"300 870 OFFCURVE",
"310 878 OFFCURVE",
"318 878 CURVE SMOOTH",
"324 878 OFFCURVE",
"332 873 OFFCURVE",
"341 867 CURVE",
"447 781 LINE",
"466 803 LINE",
"344 932 LINE",
"293 932 LINE",
"171 803 LINE",
"189 781 LINE"
);
},
{
closed = 1;
nodes = (
"193 997 OFFCURVE",
"211 1018 OFFCURVE",
"242 1018 CURVE SMOOTH",
"291 1018 OFFCURVE",
"338 964 OFFCURVE",
"387 964 CURVE SMOOTH",
"440 964 OFFCURVE",
"469 1012 OFFCURVE",
"481 1063 CURVE",
"460 1075 LINE",
"447 1035 OFFCURVE",
"431 1012 OFFCURVE",
"398 1012 CURVE SMOOTH",
"351 1012 OFFCURVE",
"302 1065 OFFCURVE",
"253 1065 CURVE SMOOTH",
"202 1065 OFFCURVE",
"170 1021 OFFCURVE",
"160 970 CURVE",
"180 958 LINE"
);
}
);
};
components = (
{
name = E;
},
{
name = circumflextilde;
transform = "{1, 0, 0, 1, 564, 230}";
}
);
layerId = "0B1DFD06-3317-40CA-B510-4969A0718C16";
width = 607;
}
);
note = Ecircumflextilde;
unicode = 1EC4;
},
{
glyphname = Edieresis;
lastChange = "2017-12-19 05:21:12 +0000";
layers = (
{
background = {
paths = (
{
closed = 1;
nodes = (
"554 0 LINE",
"571 179 LINE",
"544 179 LINE",
"538 124 OFFCURVE",
"520 40 OFFCURVE",
"456 40 CURVE SMOOTH",
"201 40 LINE",
"201 659 LINE",
"441 659 LINE SMOOTH",
"516 659 OFFCURVE",
"525 567 OFFCURVE",
"528 527 CURVE",
"555 527 LINE",
"555 700 LINE",
"16 700 LINE",
"16 673 LINE",
"44 673 LINE SMOOTH",
"83 673 OFFCURVE",
"103 662 OFFCURVE",
"103 637 CURVE SMOOTH",
"103 62 LINE SMOOTH",
"103 37 OFFCURVE",
"83 26 OFFCURVE",
"44 26 CURVE SMOOTH",
"16 26 LINE",
"16 0 LINE"
);
},
{
closed = 1;
nodes = (
"455 251 LINE",
"455 485 LINE",
"431 485 LINE",
"427 436 OFFCURVE",
"424 388 OFFCURVE",
"379 388 CURVE SMOOTH",
"162 388 LINE",
"162 348 LINE",
"379 348 LINE SMOOTH",
"424 348 OFFCURVE",
"427 300 OFFCURVE",
"431 251 CURVE"
);
},
{
closed = 1;
nodes = (
"254 781 OFFCURVE",
"272 800 OFFCURVE",
"272 827 CURVE SMOOTH",
"272 855 OFFCURVE",
"254 875 OFFCURVE",
"225 875 CURVE SMOOTH",
"197 875 OFFCURVE",
"179 855 OFFCURVE",
"179 827 CURVE SMOOTH",
"179 800 OFFCURVE",
"197 781 OFFCURVE",
"225 781 CURVE SMOOTH"
);
},
{
closed = 1;
nodes = (
"470 781 OFFCURVE",
"488 800 OFFCURVE",
"488 827 CURVE SMOOTH",
"488 855 OFFCURVE",
"470 875 OFFCURVE",
"441 875 CURVE SMOOTH",
"412 875 OFFCURVE",
"394 855 OFFCURVE",
"394 827 CURVE SMOOTH",
"394 800 OFFCURVE",
"412 781 OFFCURVE",
"441 781 CURVE SMOOTH"
);
}
);
};
components = (
{
name = E;
},
{
name = dieresis;
transform = "{1, 0, 0, 1, 68, 230}";
}
);
layerId = "0B1DFD06-3317-40CA-B510-4969A0718C16";
width = 607;
}
);
note = Edieresis;
unicode = 00CB;
},
{
glyphname = Edotaccent;
lastChange = "2017-12-19 05:21:12 +0000";
layers = (
{
background = {
paths = (
{
closed = 1;
nodes = (
"554 0 LINE",
"571 179 LINE",
"544 179 LINE",
"538 124 OFFCURVE",
"520 40 OFFCURVE",
"456 40 CURVE SMOOTH",
"201 40 LINE",
"201 659 LINE",
"441 659 LINE SMOOTH",
"516 659 OFFCURVE",
"525 567 OFFCURVE",
"528 527 CURVE",
"555 527 LINE",
"555 700 LINE",
"16 700 LINE",
"16 673 LINE",
"44 673 LINE SMOOTH",
"83 673 OFFCURVE",
"103 662 OFFCURVE",
"103 637 CURVE SMOOTH",
"103 62 LINE SMOOTH",
"103 37 OFFCURVE",
"83 26 OFFCURVE",
"44 26 CURVE SMOOTH",
"16 26 LINE",
"16 0 LINE"
);
},
{
closed = 1;
nodes = (
"455 251 LINE",
"455 485 LINE",
"431 485 LINE",
"427 436 OFFCURVE",
"424 388 OFFCURVE",
"379 388 CURVE SMOOTH",
"162 388 LINE",
"162 348 LINE",
"379 348 LINE SMOOTH",
"424 348 OFFCURVE",
"427 300 OFFCURVE",
"431 251 CURVE"
);
},
{
closed = 1;
nodes = (
"362 765 OFFCURVE",
"380 784 OFFCURVE",
"380 811 CURVE SMOOTH",
"380 839 OFFCURVE",
"362 858 OFFCURVE",
"334 858 CURVE SMOOTH",
"305 858 OFFCURVE",
"287 839 OFFCURVE",
"287 811 CURVE SMOOTH",
"287 784 OFFCURVE",
"305 765 OFFCURVE",
"334 765 CURVE SMOOTH"
);
}
);
};
components = (
{
name = E;
},
{
name = dotaccent;
transform = "{1, 0, 0, 1, 68, 230}";
}
);
layerId = "0B1DFD06-3317-40CA-B510-4969A0718C16";
width = 607;
}
);
note = Edotaccent;
unicode = 0116;
},
{
glyphname = Edotbelow;
lastChange = "2017-12-19 05:21:12 +0000";
layers = (
{
background = {
paths = (
{
closed = 1;
nodes = (
"554 0 LINE",
"571 179 LINE",
"544 179 LINE",
"538 124 OFFCURVE",
"520 40 OFFCURVE",
"456 40 CURVE SMOOTH",
"201 40 LINE",
"201 659 LINE",
"441 659 LINE SMOOTH",
"516 659 OFFCURVE",
"525 567 OFFCURVE",
"528 527 CURVE",
"555 527 LINE",
"555 700 LINE",
"16 700 LINE",
"16 673 LINE",
"44 673 LINE SMOOTH",
"83 673 OFFCURVE",
"103 662 OFFCURVE",
"103 637 CURVE SMOOTH",
"103 62 LINE SMOOTH",
"103 37 OFFCURVE",
"83 26 OFFCURVE",
"44 26 CURVE SMOOTH",
"16 26 LINE",
"16 0 LINE"
);
},
{
closed = 1;
nodes = (
"343 -159 OFFCURVE",
"361 -140 OFFCURVE",
"361 -112 CURVE SMOOTH",
"361 -84 OFFCURVE",
"343 -64 OFFCURVE",
"315 -64 CURVE SMOOTH",
"287 -64 OFFCURVE",
"268 -84 OFFCURVE",
"268 -112 CURVE SMOOTH",
"268 -140 OFFCURVE",
"287 -159 OFFCURVE",
"315 -159 CURVE SMOOTH"
);
},
{
closed = 1;
nodes = (
"455 251 LINE",
"455 485 LINE",
"431 485 LINE",
"427 436 OFFCURVE",
"424 388 OFFCURVE",
"379 388 CURVE SMOOTH",
"162 388 LINE",
"162 348 LINE",
"379 348 LINE SMOOTH",
"424 348 OFFCURVE",
"427 300 OFFCURVE",
"431 251 CURVE"
);
}
);
};
components = (
{
name = E;
},
{
name = dotbelowcomb;
transform = "{1, 0, 0, 1, 565, 0}";
}
);
layerId = "0B1DFD06-3317-40CA-B510-4969A0718C16";
width = 607;
}
);
note = Edotbelow;
unicode = 1EB8;
},
{
glyphname = Egrave;
lastChange = "2017-12-19 05:21:12 +0000";
layers = (
{
background = {
paths = (
{
closed = 1;
nodes = (
"554 0 LINE",
"571 179 LINE",
"544 179 LINE",
"538 124 OFFCURVE",
"520 40 OFFCURVE",
"456 40 CURVE SMOOTH",
"201 40 LINE",
"201 659 LINE",
"441 659 LINE SMOOTH",
"516 659 OFFCURVE",
"525 567 OFFCURVE",
"528 527 CURVE",
"555 527 LINE",
"555 700 LINE",
"16 700 LINE",
"16 673 LINE",
"44 673 LINE SMOOTH",
"83 673 OFFCURVE",
"103 662 OFFCURVE",
"103 637 CURVE SMOOTH",
"103 62 LINE SMOOTH",
"103 37 OFFCURVE",
"83 26 OFFCURVE",
"44 26 CURVE SMOOTH",
"16 26 LINE",
"16 0 LINE"
);
},
{
closed = 1;
nodes = (
"455 251 LINE",
"455 485 LINE",
"431 485 LINE",
"427 436 OFFCURVE",
"424 388 OFFCURVE",
"379 388 CURVE SMOOTH",
"162 388 LINE",
"162 348 LINE",
"379 348 LINE SMOOTH",
"424 348 OFFCURVE",
"427 300 OFFCURVE",
"431 251 CURVE"
);
},
{
closed = 1;
nodes = (
"425 807 LINE",
"310 913 LINE",
"301 922 OFFCURVE",
"285 937 OFFCURVE",
"265 937 CURVE SMOOTH",
"245 937 OFFCURVE",
"233 924 OFFCURVE",
"233 908 CURVE SMOOTH",
"233 890 OFFCURVE",
"245 876 OFFCURVE",
"264 865 CURVE SMOOTH",
"407 782 LINE"
);
}
);
};
components = (
{
name = E;
},
{
name = grave;
transform = "{1, 0, 0, 1, 68, 230}";
}
);
layerId = "0B1DFD06-3317-40CA-B510-4969A0718C16";
width = 607;
}
);
note = Egrave;
unicode = 00C8;
},
{
glyphname = Ehookabove;
lastChange = "2017-12-19 05:21:12 +0000";
layers = (
{
background = {
paths = (
{
closed = 1;
nodes = (
"554 0 LINE",
"571 179 LINE",
"544 179 LINE",
"538 124 OFFCURVE",
"520 40 OFFCURVE",
"456 40 CURVE SMOOTH",
"201 40 LINE",
"201 659 LINE",
"441 659 LINE SMOOTH",
"516 659 OFFCURVE",
"525 567 OFFCURVE",
"528 527 CURVE",
"555 527 LINE",
"555 700 LINE",
"16 700 LINE",
"16 673 LINE",
"44 673 LINE SMOOTH",
"83 673 OFFCURVE",
"103 662 OFFCURVE",
"103 637 CURVE SMOOTH",
"103 62 LINE SMOOTH",
"103 37 OFFCURVE",
"83 26 OFFCURVE",
"44 26 CURVE SMOOTH",
"16 26 LINE",
"16 0 LINE"
);
},
{
closed = 1;
nodes = (
"455 251 LINE",
"455 485 LINE",
"431 485 LINE",
"427 436 OFFCURVE",
"424 388 OFFCURVE",
"379 388 CURVE SMOOTH",
"162 388 LINE",
"162 348 LINE",
"379 348 LINE SMOOTH",
"424 348 OFFCURVE",
"427 300 OFFCURVE",
"431 251 CURVE"
);
},
{
closed = 1;
nodes = (
"367 798 LINE",
"348 805 OFFCURVE",
"336 811 OFFCURVE",
"336 828 CURVE SMOOTH",
"336 861 OFFCURVE",
"425 876 OFFCURVE",
"425 927 CURVE SMOOTH",
"425 969 OFFCURVE",
"389 991 OFFCURVE",
"336 991 CURVE SMOOTH",
"289 991 OFFCURVE",
"248 974 OFFCURVE",
"248 940 CURVE SMOOTH",
"248 923 OFFCURVE",
"256 915 OFFCURVE",
"271 915 CURVE SMOOTH",
"294 915 OFFCURVE",
"296 934 OFFCURVE",
"299 942 CURVE SMOOTH",
"304 956 OFFCURVE",
"321 962 OFFCURVE",
"337 962 CURVE SMOOTH",
"358 962 OFFCURVE",
"371 947 OFFCURVE",
"371 930 CURVE SMOOTH",
"371 885 OFFCURVE",
"289 874 OFFCURVE",
"289 828 CURVE SMOOTH",
"289 801 OFFCURVE",
"307 778 OFFCURVE",
"358 778 CURVE"
);
}
);
};
components = (
{
name = E;
},
{
name = hookabovecomb;
transform = "{1, 0, 0, 1, 565, 230}";
}
);
layerId = "0B1DFD06-3317-40CA-B510-4969A0718C16";
width = 607;
}
);
note = Ehookabove;
unicode = 1EBA;
},
{
glyphname = Emacron;
lastChange = "2017-12-19 05:21:12 +0000";
layers = (
{
background = {
paths = (
{
closed = 1;
nodes = (
"554 0 LINE",
"571 179 LINE",
"544 179 LINE",
"538 124 OFFCURVE",
"520 40 OFFCURVE",
"456 40 CURVE SMOOTH",
"201 40 LINE",
"201 659 LINE",
"441 659 LINE SMOOTH",
"516 659 OFFCURVE",
"525 567 OFFCURVE",
"528 527 CURVE",
"555 527 LINE",
"555 700 LINE",
"16 700 LINE",
"16 673 LINE",
"44 673 LINE SMOOTH",
"83 673 OFFCURVE",
"103 662 OFFCURVE",
"103 637 CURVE SMOOTH",
"103 62 LINE SMOOTH",
"103 37 OFFCURVE",
"83 26 OFFCURVE",
"44 26 CURVE SMOOTH",
"16 26 LINE",
"16 0 LINE"
);
},
{
closed = 1;
nodes = (
"455 251 LINE",
"455 485 LINE",
"431 485 LINE",
"427 436 OFFCURVE",
"424 388 OFFCURVE",
"379 388 CURVE SMOOTH",
"162 388 LINE",
"162 348 LINE",
"379 348 LINE SMOOTH",
"424 348 OFFCURVE",
"427 300 OFFCURVE",
"431 251 CURVE"
);
},
{
closed = 1;
nodes = (
"495 782 LINE",
"495 824 LINE",
"162 824 LINE",
"162 782 LINE"
);
}
);
};
components = (
{
name = E;
},
{
name = macron;
transform = "{1, 0, 0, 1, 68, 230}";
}
);
layerId = "0B1DFD06-3317-40CA-B510-4969A0718C16";
width = 607;
}
);
note = Emacron;
unicode = 0112;
},
{
glyphname = Eogonek;
lastChange = "2017-12-19 05:21:12 +0000";
layers = (
{
background = {
paths = (
{
closed = 1;
nodes = (
"554 0 LINE",
"571 179 LINE",
"544 179 LINE",
"538 124 OFFCURVE",
"520 40 OFFCURVE",
"456 40 CURVE SMOOTH",
"201 40 LINE",
"201 659 LINE",
"441 659 LINE SMOOTH",
"516 659 OFFCURVE",
"525 567 OFFCURVE",
"528 527 CURVE",
"555 527 LINE",
"555 700 LINE",
"16 700 LINE",
"16 673 LINE",
"44 673 LINE SMOOTH",
"83 673 OFFCURVE",
"103 662 OFFCURVE",
"103 637 CURVE SMOOTH",
"103 62 LINE SMOOTH",
"103 37 OFFCURVE",
"83 26 OFFCURVE",
"44 26 CURVE SMOOTH",
"16 26 LINE",
"16 0 LINE"
);
},
{
closed = 1;
nodes = (
"496 -196 OFFCURVE",
"524 -189 OFFCURVE",
"549 -172 CURVE",
"543 -152 LINE",
"527 -158 OFFCURVE",
"510 -162 OFFCURVE",
"497 -162 CURVE SMOOTH",
"464 -162 OFFCURVE",
"437 -146 OFFCURVE",
"437 -106 CURVE SMOOTH",
"437 -66 OFFCURVE",
"464 -26 OFFCURVE",
"510 4 CURVE",
"469 4 LINE",
"416 -22 OFFCURVE",
"376 -64 OFFCURVE",
"376 -114 CURVE SMOOTH",
"376 -147 OFFCURVE",
"395 -196 OFFCURVE",
"470 -196 CURVE SMOOTH"
);
},
{
closed = 1;
nodes = (
"455 251 LINE",
"455 485 LINE",
"431 485 LINE",
"427 436 OFFCURVE",
"424 388 OFFCURVE",
"379 388 CURVE SMOOTH",
"162 388 LINE",
"162 348 LINE",
"379 348 LINE SMOOTH",
"424 348 OFFCURVE",
"427 300 OFFCURVE",
"431 251 CURVE"
);
}
);
};
components = (
{
name = E;
},
{
name = ogonek;
transform = "{1, 0, 0, 1, 256, 0}";
}
);
layerId = "0B1DFD06-3317-40CA-B510-4969A0718C16";
width = 607;
}
);
note = Eogonek;
unicode = 0118;
},
{
glyphname = Etilde;
lastChange = "2017-12-19 05:21:12 +0000";
layers = (
{
background = {
paths = (
{
closed = 1;
nodes = (
"554 0 LINE",
"571 179 LINE",
"544 179 LINE",
"538 124 OFFCURVE",
"520 40 OFFCURVE",
"456 40 CURVE SMOOTH",
"201 40 LINE",
"201 659 LINE",
"441 659 LINE SMOOTH",
"516 659 OFFCURVE",
"525 567 OFFCURVE",
"528 527 CURVE",
"555 527 LINE",
"555 700 LINE",
"16 700 LINE",
"16 673 LINE",
"44 673 LINE SMOOTH",
"83 673 OFFCURVE",
"103 662 OFFCURVE",
"103 637 CURVE SMOOTH",
"103 62 LINE SMOOTH",
"103 37 OFFCURVE",
"83 26 OFFCURVE",
"44 26 CURVE SMOOTH",
"16 26 LINE",
"16 0 LINE"
);
},
{
closed = 1;
nodes = (
"455 251 LINE",
"455 485 LINE",
"431 485 LINE",
"427 436 OFFCURVE",
"424 388 OFFCURVE",
"379 388 CURVE SMOOTH",
"162 388 LINE",
"162 348 LINE",
"379 348 LINE SMOOTH",
"424 348 OFFCURVE",
"427 300 OFFCURVE",
"431 251 CURVE"
);
},
{
closed = 1;
nodes = (
"190 817 OFFCURVE",
"208 838 OFFCURVE",
"241 838 CURVE SMOOTH",
"292 838 OFFCURVE",
"341 784 OFFCURVE",
"392 784 CURVE SMOOTH",
"450 784 OFFCURVE",
"480 832 OFFCURVE",
"492 884 CURVE",
"471 895 LINE",
"455 855 OFFCURVE",
"439 833 OFFCURVE",
"405 833 CURVE SMOOTH",
"356 833 OFFCURVE",
"304 886 OFFCURVE",
"253 886 CURVE SMOOTH",
"199 886 OFFCURVE",
"166 842 OFFCURVE",
"154 790 CURVE",
"176 779 LINE"
);
}
);
};
components = (
{
name = E;
},
{
name = tilde;
transform = "{1, 0, 0, 1, 68, 230}";
}
);
layerId = "0B1DFD06-3317-40CA-B510-4969A0718C16";
width = 607;
}
);
note = Etilde;
unicode = 1EBC;
},
{
glyphname = Hbar;
lastChange = "2017-12-19 05:21:12 +0000";
layers = (
{
components = (
{
name = H;
}
);
layerId = "0B1DFD06-3317-40CA-B510-4969A0718C16";
paths = (
{
closed = 1;
nodes = (
"719 504 LINE",
"719 544 LINE",
"43 544 LINE",
"43 504 LINE"
);
}
);
width = 773;
}
);
note = Hbar;
unicode = 0126;
},
{
color = 0;
glyphname = IJ;
lastChange = "2017-12-19 05:22:42 +0000";
layers = (
{
layerId = "0B1DFD06-3317-40CA-B510-4969A0718C16";
paths = (
{
closed = 1;
nodes = (
"472 -114 OFFCURVE",
"561 -45 OFFCURVE",
"561 89 CURVE SMOOTH",
"561 637 LINE SMOOTH",
"561 662 OFFCURVE",
"581 673 OFFCURVE",
"619 673 CURVE SMOOTH",
"649 673 LINE",
"649 700 LINE",
"376 700 LINE",
"376 673 LINE",
"405 673 LINE SMOOTH",
"444 673 OFFCURVE",
"463 662 OFFCURVE",
"463 637 CURVE SMOOTH",
"463 90 LINE SMOOTH",
"463 -8 OFFCURVE",
"424 -75 OFFCURVE",
"339 -93 CURVE",
"343 -114 LINE"
);
},
{
closed = 1;
nodes = (
"298 0 LINE",
"298 26 LINE",
"270 26 LINE SMOOTH",
"231 26 OFFCURVE",
"211 37 OFFCURVE",
"211 62 CURVE SMOOTH",
"211 637 LINE SMOOTH",
"211 662 OFFCURVE",
"231 673 OFFCURVE",
"270 673 CURVE SMOOTH",
"298 673 LINE",
"298 700 LINE",
"26 700 LINE",
"26 673 LINE",
"55 673 LINE SMOOTH",
"93 673 OFFCURVE",
"113 662 OFFCURVE",
"113 637 CURVE SMOOTH",
"113 62 LINE SMOOTH",
"113 37 OFFCURVE",
"93 26 OFFCURVE",
"55 26 CURVE SMOOTH",
"26 26 LINE",
"26 0 LINE"
);
}
);
width = 675;
}
);
note = IJ;
rightKerningGroup = J;
unicode = 0132;
},
{
glyphname = Lslash;
lastChange = "2017-12-19 05:47:41 +0000";
layers = (
{
layerId = "0B1DFD06-3317-40CA-B510-4969A0718C16";
paths = (
{
closed = 1;
nodes = (
"116 33 LINE SMOOTH",
"116 30 OFFCURVE",
"117 27 OFFCURVE",
"118 25 CURVE",
"121 20 OFFCURVE",
"127 17 OFFCURVE",
"136 17 CURVE",
"224 34 OFFCURVE",
"335 36 OFFCURVE",
"423 33 CURVE SMOOTH",
"474 32 OFFCURVE",
"525 29 OFFCURVE",
"576 25 CURVE",
"587 26 OFFCURVE",
"593 31 OFFCURVE",
"594 43 CURVE SMOOTH",
"595 54 OFFCURVE",
"589 60 OFFCURVE",
"576 60 CURVE",
"526 63 OFFCURVE",
"477 65 OFFCURVE",
"427 66 CURVE SMOOTH",
"383 67 OFFCURVE",
"338 67 OFFCURVE",
"290 65 CURVE SMOOTH",
"241 64 OFFCURVE",
"199 60 OFFCURVE",
"162 52 CURVE",
"156 416 LINE",
"343 543 LINE",
"355 550 OFFCURVE",
"360 558 OFFCURVE",
"354 567 CURVE SMOOTH",
"349 576 OFFCURVE",
"342 579 OFFCURVE",
"331 573 CURVE",
"155 452 LINE",
"152 489 OFFCURVE",
"151 528 OFFCURVE",
"151 570 CURVE SMOOTH",
"151 641 OFFCURVE",
"150 736 OFFCURVE",
"162 836 CURVE",
"162 864 OFFCURVE",
"122 865 OFFCURVE",
"122 832 CURVE",
"117 723 OFFCURVE",
"115 626 OFFCURVE",
"115 552 CURVE SMOOTH",
"115 508 OFFCURVE",
"116 468 OFFCURVE",
"116 432 CURVE",
"2 350 LINE",
"-9 342 OFFCURVE",
"-11 333 OFFCURVE",
"-7 326 CURVE SMOOTH",
"-3 318 OFFCURVE",
"4 316 OFFCURVE",
"14 322 CURVE",
"116 395 LINE"
);
}
);
width = 615;
}
);
note = Lslash;
unicode = 0141;
},
{
glyphname = Nacute;
lastChange = "2017-12-19 05:21:12 +0000";
layers = (
{
background = {
paths = (
{
closed = 1;
nodes = (
"247 0 LINE",
"247 26 LINE",
"217 26 LINE SMOOTH",
"179 26 OFFCURVE",
"159 37 OFFCURVE",
"159 62 CURVE SMOOTH",
"159 642 LINE",
"587 0 LINE",
"645 0 LINE",
"645 637 LINE SMOOTH",
"645 662 OFFCURVE",
"665 673 OFFCURVE",
"703 673 CURVE SMOOTH",
"733 673 LINE",
"733 700 LINE",
"508 700 LINE",
"508 673 LINE",
"537 673 LINE SMOOTH",
"576 673 OFFCURVE",
"595 662 OFFCURVE",
"595 637 CURVE SMOOTH",
"595 126 LINE",
"217 700 LINE",
"22 700 LINE",
"22 673 LINE",
"51 673 LINE SMOOTH",
"90 673 OFFCURVE",
"109 662 OFFCURVE",
"109 637 CURVE SMOOTH",
"109 62 LINE SMOOTH",
"109 37 OFFCURVE",
"90 26 OFFCURVE",
"51 26 CURVE SMOOTH",
"22 26 LINE",
"22 0 LINE"
);
},
{
closed = 1;
nodes = (
"458 865 LINE SMOOTH",
"480 877 OFFCURVE",
"492 890 OFFCURVE",
"492 907 CURVE SMOOTH",
"492 922 OFFCURVE",
"480 937 OFFCURVE",
"458 937 CURVE SMOOTH",
"437 937 OFFCURVE",
"422 921 OFFCURVE",
"414 914 CURVE SMOOTH",
"299 807 LINE",
"316 782 LINE"
);
}
);
};
components = (
{
name = N;
},
{
name = acute;
transform = "{1, 0, 0, 1, 120, 230}";
}
);
layerId = "0B1DFD06-3317-40CA-B510-4969A0718C16";
width = 755;
}
);
note = Nacute;
unicode = 0143;
},
{
glyphname = Ncaron;
lastChange = "2017-12-19 05:21:12 +0000";
layers = (
{
background = {
paths = (
{
closed = 1;
nodes = (
"247 0 LINE",
"247 26 LINE",
"217 26 LINE SMOOTH",
"179 26 OFFCURVE",
"159 37 OFFCURVE",
"159 62 CURVE SMOOTH",
"159 642 LINE",
"587 0 LINE",
"645 0 LINE",
"645 637 LINE SMOOTH",
"645 662 OFFCURVE",
"665 673 OFFCURVE",
"703 673 CURVE SMOOTH",
"733 673 LINE",
"733 700 LINE",
"508 700 LINE",
"508 673 LINE",
"537 673 LINE SMOOTH",
"576 673 OFFCURVE",
"595 662 OFFCURVE",
"595 637 CURVE SMOOTH",
"595 126 LINE",
"217 700 LINE",
"22 700 LINE",
"22 673 LINE",
"51 673 LINE SMOOTH",
"90 673 OFFCURVE",
"109 662 OFFCURVE",
"109 637 CURVE SMOOTH",
"109 62 LINE SMOOTH",
"109 37 OFFCURVE",
"90 26 OFFCURVE",
"51 26 CURVE SMOOTH",
"22 26 LINE",
"22 0 LINE"
);
},
{
closed = 1;
nodes = (
"403 782 LINE",
"527 911 LINE",
"508 932 LINE",
"400 847 LINE",
"392 840 OFFCURVE",
"383 836 OFFCURVE",
"377 836 CURVE SMOOTH",
"371 836 OFFCURVE",
"363 840 OFFCURVE",
"353 847 CURVE",
"245 932 LINE",
"226 911 LINE",
"350 782 LINE"
);
}
);
};
components = (
{
name = N;
},
{
name = caron;
transform = "{1, 0, 0, 1, 132, 230}";
}
);
layerId = "0B1DFD06-3317-40CA-B510-4969A0718C16";
width = 755;
}
);
note = Ncaron;
unicode = 0147;
},
{
glyphname = Ncommaaccent;
lastChange = "2017-12-19 05:21:12 +0000";
layers = (
{
background = {
paths = (
{
closed = 1;
nodes = (
"247 0 LINE",
"247 26 LINE",
"217 26 LINE SMOOTH",
"179 26 OFFCURVE",
"159 37 OFFCURVE",
"159 62 CURVE SMOOTH",
"159 642 LINE",
"587 0 LINE",
"645 0 LINE",
"645 637 LINE SMOOTH",
"645 662 OFFCURVE",
"665 673 OFFCURVE",
"703 673 CURVE SMOOTH",
"733 673 LINE",
"733 700 LINE",
"508 700 LINE",
"508 673 LINE",
"537 673 LINE SMOOTH",
"576 673 OFFCURVE",
"595 662 OFFCURVE",
"595 637 CURVE SMOOTH",
"595 126 LINE",
"217 700 LINE",
"22 700 LINE",
"22 673 LINE",
"51 673 LINE SMOOTH",
"90 673 OFFCURVE",
"109 662 OFFCURVE",
"109 637 CURVE SMOOTH",
"109 62 LINE SMOOTH",
"109 37 OFFCURVE",
"90 26 OFFCURVE",
"51 26 CURVE SMOOTH",
"22 26 LINE",
"22 0 LINE"
);
},
{
closed = 1;
nodes = (
"369 -258 OFFCURVE",
"413 -198 OFFCURVE",
"413 -135 CURVE SMOOTH",
"413 -87 OFFCURVE",
"389 -67 OFFCURVE",
"360 -67 CURVE SMOOTH",
"331 -67 OFFCURVE",
"314 -87 OFFCURVE",
"314 -111 CURVE SMOOTH",
"314 -145 OFFCURVE",
"349 -152 OFFCURVE",
"349 -187 CURVE SMOOTH",
"349 -223 OFFCURVE",
"323 -256 OFFCURVE",
"296 -282 CURVE",
"313 -299 LINE"
);
}
);
};
components = (
{
name = N;
},
{
name = commaaccentcomb;
}
);
layerId = "0B1DFD06-3317-40CA-B510-4969A0718C16";
width = 707;
}
);
note = Ncommaaccent;
unicode = 0145;
},
{
glyphname = Ndotaccent;
lastChange = "2017-12-19 05:21:12 +0000";
layers = (
{
background = {
paths = (
{
closed = 1;
nodes = (
"247 0 LINE",
"247 26 LINE",
"217 26 LINE SMOOTH",
"179 26 OFFCURVE",
"159 37 OFFCURVE",
"159 62 CURVE SMOOTH",
"159 642 LINE",
"587 0 LINE",
"645 0 LINE",
"645 637 LINE SMOOTH",
"645 662 OFFCURVE",
"665 673 OFFCURVE",
"703 673 CURVE SMOOTH",
"733 673 LINE",
"733 700 LINE",
"508 700 LINE",
"508 673 LINE",
"537 673 LINE SMOOTH",
"576 673 OFFCURVE",
"595 662 OFFCURVE",
"595 637 CURVE SMOOTH",
"595 126 LINE",
"217 700 LINE",
"22 700 LINE",
"22 673 LINE",
"51 673 LINE SMOOTH",
"90 673 OFFCURVE",
"109 662 OFFCURVE",
"109 637 CURVE SMOOTH",
"109 62 LINE SMOOTH",
"109 37 OFFCURVE",
"90 26 OFFCURVE",
"51 26 CURVE SMOOTH",
"22 26 LINE",
"22 0 LINE"
);
},
{
closed = 1;
nodes = (
"405 765 OFFCURVE",
"423 784 OFFCURVE",
"423 811 CURVE SMOOTH",
"423 839 OFFCURVE",
"405 858 OFFCURVE",
"377 858 CURVE SMOOTH",
"348 858 OFFCURVE",
"330 839 OFFCURVE",
"330 811 CURVE SMOOTH",
"330 784 OFFCURVE",
"348 765 OFFCURVE",
"377 765 CURVE SMOOTH"
);
}
);
};
components = (
{
name = N;
},
{
name = dotaccent;
transform = "{1, 0, 0, 1, 132, 230}";
}
);
layerId = "0B1DFD06-3317-40CA-B510-4969A0718C16";
width = 755;
}
);
note = Ndotaccent;
unicode = 1E44;
},
{
glyphname = Ndotbelow;
lastChange = "2017-12-19 05:21:12 +0000";
layers = (
{
background = {
paths = (
{
closed = 1;
nodes = (
"247 0 LINE",
"247 26 LINE",
"217 26 LINE SMOOTH",
"179 26 OFFCURVE",
"159 37 OFFCURVE",
"159 62 CURVE SMOOTH",
"159 642 LINE",
"587 0 LINE",
"645 0 LINE",
"645 637 LINE SMOOTH",
"645 662 OFFCURVE",
"665 673 OFFCURVE",
"703 673 CURVE SMOOTH",
"733 673 LINE",
"733 700 LINE",
"508 700 LINE",
"508 673 LINE",
"537 673 LINE SMOOTH",
"576 673 OFFCURVE",
"595 662 OFFCURVE",
"595 637 CURVE SMOOTH",
"595 126 LINE",
"217 700 LINE",
"22 700 LINE",
"22 673 LINE",
"51 673 LINE SMOOTH",
"90 673 OFFCURVE",
"109 662 OFFCURVE",
"109 637 CURVE SMOOTH",
"109 62 LINE SMOOTH",
"109 37 OFFCURVE",
"90 26 OFFCURVE",
"51 26 CURVE SMOOTH",
"22 26 LINE",
"22 0 LINE"
);
},
{
closed = 1;
nodes = (
"415 -159 OFFCURVE",
"433 -140 OFFCURVE",
"433 -112 CURVE SMOOTH",
"433 -84 OFFCURVE",
"415 -64 OFFCURVE",
"387 -64 CURVE SMOOTH",
"359 -64 OFFCURVE",
"340 -84 OFFCURVE",
"340 -112 CURVE SMOOTH",
"340 -140 OFFCURVE",
"359 -159 OFFCURVE",
"387 -159 CURVE SMOOTH"
);
}
);
};
components = (
{
name = N;
},
{
name = dotbelowcomb;
transform = "{1, 0, 0, 1, 629, 0}";
}
);
layerId = "0B1DFD06-3317-40CA-B510-4969A0718C16";
width = 755;
}
);
note = uni1E46;
unicode = 1E46;
},
{
color = 0;
glyphname = Eng;
lastChange = "2017-12-19 05:23:35 +0000";
layers = (
{
background = {
paths = (
{
closed = 1;
nodes = (
"592 -259 OFFCURVE",
"645 -182 OFFCURVE",
"645 -36 CURVE SMOOTH",
"645 637 LINE SMOOTH",
"645 662 OFFCURVE",
"665 673 OFFCURVE",
"703 673 CURVE SMOOTH",
"733 673 LINE",
"733 700 LINE",
"508 700 LINE",
"508 673 LINE",
"537 673 LINE SMOOTH",
"576 673 OFFCURVE",
"595 662 OFFCURVE",
"595 637 CURVE SMOOTH",
"595 125 LINE",
"219 700 LINE",
"22 700 LINE",
"22 673 LINE",
"51 673 LINE SMOOTH",
"90 673 OFFCURVE",
"109 662 OFFCURVE",
"109 637 CURVE SMOOTH",
"109 62 LINE SMOOTH",
"109 37 OFFCURVE",
"93 26 OFFCURVE",
"51 26 CURVE SMOOTH",
"22 26 LINE",
"22 0 LINE",
"247 0 LINE",
"247 26 LINE",
"217 26 LINE SMOOTH",
"179 26 OFFCURVE",
"159 37 OFFCURVE",
"159 62 CURVE SMOOTH",
"159 647 LINE",
"586 0 LINE",
"586 -76 LINE SMOOTH",
"586 -173 OFFCURVE",
"510 -238 OFFCURVE",
"423 -243 CURVE",
"427 -268 LINE"
);
}
);
};
layerId = "0B1DFD06-3317-40CA-B510-4969A0718C16";
paths = (
{
closed = 1;
nodes = (
"592 -259 OFFCURVE",
"645 -182 OFFCURVE",
"645 -36 CURVE SMOOTH",
"645 637 LINE SMOOTH",
"645 662 OFFCURVE",
"665 673 OFFCURVE",
"703 673 CURVE SMOOTH",
"733 673 LINE",
"733 700 LINE",
"508 700 LINE",
"508 673 LINE",
"537 673 LINE SMOOTH",
"576 673 OFFCURVE",
"595 662 OFFCURVE",
"595 637 CURVE SMOOTH",
"595 125 LINE",
"219 700 LINE",
"22 700 LINE",
"22 673 LINE",
"51 673 LINE SMOOTH",
"90 673 OFFCURVE",
"109 662 OFFCURVE",
"109 637 CURVE SMOOTH",
"109 62 LINE SMOOTH",
"109 37 OFFCURVE",
"93 26 OFFCURVE",
"51 26 CURVE SMOOTH",
"22 26 LINE",
"22 0 LINE",
"247 0 LINE",
"247 26 LINE",
"217 26 LINE SMOOTH",
"179 26 OFFCURVE",
"159 37 OFFCURVE",
"159 62 CURVE SMOOTH",
"159 647 LINE",
"586 0 LINE",
"586 -76 LINE SMOOTH",
"586 -173 OFFCURVE",
"510 -238 OFFCURVE",
"423 -243 CURVE",
"427 -268 LINE"
);
}
);
width = 755;
}
);
note = Eng;
unicode = 014A;
},
{
glyphname = Nlinebelow;
lastChange = "2017-12-19 05:21:12 +0000";
layers = (
{
background = {
paths = (
{
closed = 1;
nodes = (
"247 0 LINE",
"247 26 LINE",
"217 26 LINE SMOOTH",
"179 26 OFFCURVE",
"159 37 OFFCURVE",
"159 62 CURVE SMOOTH",
"159 642 LINE",
"587 0 LINE",
"645 0 LINE",
"645 637 LINE SMOOTH",
"645 662 OFFCURVE",
"665 673 OFFCURVE",
"703 673 CURVE SMOOTH",
"733 673 LINE",
"733 700 LINE",
"508 700 LINE",
"508 673 LINE",
"537 673 LINE SMOOTH",
"576 673 OFFCURVE",
"595 662 OFFCURVE",
"595 637 CURVE SMOOTH",
"595 126 LINE",
"217 700 LINE",
"22 700 LINE",
"22 673 LINE",
"51 673 LINE SMOOTH",
"90 673 OFFCURVE",
"109 662 OFFCURVE",
"109 637 CURVE SMOOTH",
"109 62 LINE SMOOTH",
"109 37 OFFCURVE",
"90 26 OFFCURVE",
"51 26 CURVE SMOOTH",
"22 26 LINE",
"22 0 LINE"
);
},
{
closed = 1;
nodes = (
"542 -110 LINE",
"542 -72 LINE",
"210 -72 LINE",
"210 -110 LINE"
);
}
);
};
components = (
{
name = N;
},
{
name = macronbelowcomb;
transform = "{1, 0, 0, 1, 378, 0}";
}
);
layerId = "0B1DFD06-3317-40CA-B510-4969A0718C16";
width = 755;
}
);
note = Nlinebelow;
unicode = 1E48;
},
{
glyphname = Ntilde;
lastChange = "2017-12-19 05:21:12 +0000";
layers = (
{
background = {
paths = (
{
closed = 1;
nodes = (
"247 0 LINE",
"247 26 LINE",
"217 26 LINE SMOOTH",
"179 26 OFFCURVE",
"159 37 OFFCURVE",
"159 62 CURVE SMOOTH",
"159 642 LINE",
"587 0 LINE",
"645 0 LINE",
"645 637 LINE SMOOTH",
"645 662 OFFCURVE",
"665 673 OFFCURVE",
"703 673 CURVE SMOOTH",
"733 673 LINE",
"733 700 LINE",
"508 700 LINE",
"508 673 LINE",
"537 673 LINE SMOOTH",
"576 673 OFFCURVE",
"595 662 OFFCURVE",
"595 637 CURVE SMOOTH",
"595 126 LINE",
"217 700 LINE",
"22 700 LINE",
"22 673 LINE",
"51 673 LINE SMOOTH",
"90 673 OFFCURVE",
"109 662 OFFCURVE",
"109 637 CURVE SMOOTH",
"109 62 LINE SMOOTH",
"109 37 OFFCURVE",
"90 26 OFFCURVE",
"51 26 CURVE SMOOTH",
"22 26 LINE",
"22 0 LINE"
);
},
{
closed = 1;
nodes = (
"254 818 OFFCURVE",
"272 839 OFFCURVE",
"305 839 CURVE SMOOTH",
"356 839 OFFCURVE",
"405 785 OFFCURVE",
"456 785 CURVE SMOOTH",
"514 785 OFFCURVE",
"544 833 OFFCURVE",
"556 885 CURVE",
"535 896 LINE",
"519 856 OFFCURVE",
"503 834 OFFCURVE",
"469 834 CURVE SMOOTH",
"420 834 OFFCURVE",
"368 887 OFFCURVE",
"317 887 CURVE SMOOTH",
"263 887 OFFCURVE",
"230 843 OFFCURVE",
"218 791 CURVE",
"240 780 LINE"
);
}
);
};
components = (
{
name = N;
},
{
name = tilde;
transform = "{1, 0, 0, 1, 132, 230}";
}
);
layerId = "0B1DFD06-3317-40CA-B510-4969A0718C16";
width = 755;
}
);
note = Ntilde;
unicode = 00D1;
},
{
glyphname = Oacute;
lastChange = "2017-12-19 05:21:12 +0000";
layers = (
{
background = {
paths = (
{
closed = 1;
nodes = (
"601 -10 OFFCURVE",
"719 124 OFFCURVE",
"719 350 CURVE SMOOTH",
"719 574 OFFCURVE",
"601 710 OFFCURVE",
"378 710 CURVE SMOOTH",
"154 710 OFFCURVE",
"36 574 OFFCURVE",
"36 350 CURVE SMOOTH",
"36 124 OFFCURVE",
"154 -10 OFFCURVE",
"378 -10 CURVE SMOOTH"
);
},
{
closed = 1;
nodes = (
"215 32 OFFCURVE",
"135 158 OFFCURVE",
"135 350 CURVE SMOOTH",
"135 541 OFFCURVE",
"215 668 OFFCURVE",
"377 668 CURVE SMOOTH",
"541 668 OFFCURVE",
"620 541 OFFCURVE",
"620 350 CURVE SMOOTH",
"620 158 OFFCURVE",
"541 32 OFFCURVE",
"377 32 CURVE SMOOTH"
);
},
{
closed = 1;
nodes = (
"440 865 LINE SMOOTH",
"462 877 OFFCURVE",
"474 890 OFFCURVE",
"474 907 CURVE SMOOTH",
"474 922 OFFCURVE",
"462 937 OFFCURVE",
"440 937 CURVE SMOOTH",
"419 937 OFFCURVE",
"404 921 OFFCURVE",
"396 914 CURVE SMOOTH",
"281 807 LINE",
"298 782 LINE"
);
}
);
};
components = (
{
name = O;
},
{
name = acute;
transform = "{1, 0, 0, 1, 120, 230}";
}
);
layerId = "0B1DFD06-3317-40CA-B510-4969A0718C16";
width = 755;
}
);
leftKerningGroup = O;
note = Oacute;
rightKerningGroup = O;
unicode = 00D3;
},
{
glyphname = Obreve;
lastChange = "2017-12-19 05:21:12 +0000";
layers = (
{
background = {
paths = (
{
closed = 1;
nodes = (
"601 -10 OFFCURVE",
"719 124 OFFCURVE",
"719 350 CURVE SMOOTH",
"719 574 OFFCURVE",
"601 710 OFFCURVE",
"378 710 CURVE SMOOTH",
"154 710 OFFCURVE",
"36 574 OFFCURVE",
"36 350 CURVE SMOOTH",
"36 124 OFFCURVE",
"154 -10 OFFCURVE",
"378 -10 CURVE SMOOTH"
);
},
{
closed = 1;
nodes = (
"215 32 OFFCURVE",
"135 158 OFFCURVE",
"135 350 CURVE SMOOTH",
"135 541 OFFCURVE",
"215 668 OFFCURVE",
"377 668 CURVE SMOOTH",
"541 668 OFFCURVE",
"620 541 OFFCURVE",
"620 350 CURVE SMOOTH",
"620 158 OFFCURVE",
"541 32 OFFCURVE",
"377 32 CURVE SMOOTH"
);
},
{
closed = 1;
nodes = (
"477 774 OFFCURVE",
"519 830 OFFCURVE",
"523 905 CURVE",
"490 905 LINE",
"484 846 OFFCURVE",
"442 820 OFFCURVE",
"378 820 CURVE SMOOTH",
"314 820 OFFCURVE",
"271 846 OFFCURVE",
"264 905 CURVE",
"231 905 LINE",
"235 827 OFFCURVE",
"277 774 OFFCURVE",
"378 774 CURVE SMOOTH"
);
}
);
};
components = (
{
name = O;
},
{
name = breve;
transform = "{1, 0, 0, 1, 132, 230}";
}
);
layerId = "0B1DFD06-3317-40CA-B510-4969A0718C16";
width = 755;
}
);
leftKerningGroup = O;
note = Obreve;
rightKerningGroup = O;
unicode = 014E;
},
{
glyphname = Ocaron;
lastChange = "2017-12-19 05:21:12 +0000";
layers = (
{
background = {
paths = (
{
closed = 1;
nodes = (
"601 -10 OFFCURVE",
"719 124 OFFCURVE",
"719 350 CURVE SMOOTH",
"719 574 OFFCURVE",
"601 710 OFFCURVE",
"378 710 CURVE SMOOTH",
"154 710 OFFCURVE",
"36 574 OFFCURVE",
"36 350 CURVE SMOOTH",
"36 124 OFFCURVE",
"154 -10 OFFCURVE",
"378 -10 CURVE SMOOTH"
);
},
{
closed = 1;
nodes = (
"215 32 OFFCURVE",
"135 158 OFFCURVE",
"135 350 CURVE SMOOTH",
"135 541 OFFCURVE",
"215 668 OFFCURVE",
"377 668 CURVE SMOOTH",
"541 668 OFFCURVE",
"620 541 OFFCURVE",
"620 350 CURVE SMOOTH",
"620 158 OFFCURVE",
"541 32 OFFCURVE",
"377 32 CURVE SMOOTH"
);
},
{
closed = 1;
nodes = (
"404 782 LINE",
"528 911 LINE",
"509 932 LINE",
"401 847 LINE",
"393 840 OFFCURVE",
"384 836 OFFCURVE",
"378 836 CURVE SMOOTH",
"372 836 OFFCURVE",
"364 840 OFFCURVE",
"354 847 CURVE",
"246 932 LINE",
"227 911 LINE",
"351 782 LINE"
);
}
);
};
components = (
{
name = O;
},
{
name = caron;
transform = "{1, 0, 0, 1, 132, 230}";
}
);
layerId = "0B1DFD06-3317-40CA-B510-4969A0718C16";
width = 755;
}
);
leftKerningGroup = O;
note = Ocaron;
rightKerningGroup = O;
unicode = 01D1;
},
{
glyphname = Ocircumflex;
lastChange = "2017-12-19 05:21:12 +0000";
layers = (
{
background = {
paths = (
{
closed = 1;
nodes = (
"601 -10 OFFCURVE",
"719 124 OFFCURVE",
"719 350 CURVE SMOOTH",
"719 574 OFFCURVE",
"601 710 OFFCURVE",
"378 710 CURVE SMOOTH",
"154 710 OFFCURVE",
"36 574 OFFCURVE",
"36 350 CURVE SMOOTH",
"36 124 OFFCURVE",
"154 -10 OFFCURVE",
"378 -10 CURVE SMOOTH"
);
},
{
closed = 1;
nodes = (
"215 32 OFFCURVE",
"135 158 OFFCURVE",
"135 350 CURVE SMOOTH",
"135 541 OFFCURVE",
"215 668 OFFCURVE",
"377 668 CURVE SMOOTH",
"541 668 OFFCURVE",
"620 541 OFFCURVE",
"620 350 CURVE SMOOTH",
"620 158 OFFCURVE",
"541 32 OFFCURVE",
"377 32 CURVE SMOOTH"
);
},
{
closed = 1;
nodes = (
"354 868 LINE SMOOTH",
"362 874 OFFCURVE",
"372 879 OFFCURVE",
"378 879 CURVE SMOOTH",
"384 879 OFFCURVE",
"392 874 OFFCURVE",
"401 868 CURVE",
"509 782 LINE",
"528 803 LINE",
"404 932 LINE",
"351 932 LINE",
"227 803 LINE",
"246 782 LINE"
);
}
);
};
components = (
{
name = O;
},
{
name = circumflex;
transform = "{1, 0, 0, 1, 132, 230}";
}
);
layerId = "0B1DFD06-3317-40CA-B510-4969A0718C16";
width = 755;
}
);
leftKerningGroup = O;
note = Ocircumflex;
rightKerningGroup = O;
unicode = 00D4;
},
{
glyphname = Ocircumflexacute;
lastChange = "2017-12-19 05:21:12 +0000";
layers = (
{
background = {
paths = (
{
closed = 1;
nodes = (
"601 -10 OFFCURVE",
"719 124 OFFCURVE",
"719 350 CURVE SMOOTH",
"719 574 OFFCURVE",
"601 710 OFFCURVE",
"378 710 CURVE SMOOTH",
"154 710 OFFCURVE",
"36 574 OFFCURVE",
"36 350 CURVE SMOOTH",
"36 124 OFFCURVE",
"154 -10 OFFCURVE",
"378 -10 CURVE SMOOTH"
);
},
{
closed = 1;
nodes = (
"215 32 OFFCURVE",
"135 158 OFFCURVE",
"135 350 CURVE SMOOTH",
"135 541 OFFCURVE",
"215 668 OFFCURVE",
"377 668 CURVE SMOOTH",
"541 668 OFFCURVE",
"620 541 OFFCURVE",
"620 350 CURVE SMOOTH",
"620 158 OFFCURVE",
"541 32 OFFCURVE",
"377 32 CURVE SMOOTH"
);
},
{
closed = 1;
nodes = (
"348 861 LINE SMOOTH",
"358 869 OFFCURVE",
"368 877 OFFCURVE",
"376 877 CURVE SMOOTH",
"382 877 OFFCURVE",
"390 872 OFFCURVE",
"399 866 CURVE",
"505 780 LINE",
"524 802 LINE",
"402 931 LINE",
"351 931 LINE",
"229 802 LINE",
"247 780 LINE"
);
},
{
closed = 1;
nodes = (
"613 959 LINE SMOOTH",
"636 971 OFFCURVE",
"649 987 OFFCURVE",
"649 1002 CURVE SMOOTH",
"649 1016 OFFCURVE",
"638 1033 OFFCURVE",
"615 1033 CURVE SMOOTH",
"596 1033 OFFCURVE",
"579 1017 OFFCURVE",
"569 1007 CURVE SMOOTH",
"473 914 LINE",
"491 892 LINE"
);
}
);
};
components = (
{
name = O;
},
{
name = circumflexacute;
transform = "{1, 0, 0, 1, 628, 230}";
}
);
layerId = "0B1DFD06-3317-40CA-B510-4969A0718C16";
width = 755;
}
);
leftKerningGroup = O;
note = Ocircumflexacute;
rightKerningGroup = O;
unicode = 1ED0;
},
{
glyphname = Ocircumflexdotbelow;
lastChange = "2017-12-19 05:21:12 +0000";
layers = (
{
background = {
paths = (
{
closed = 1;
nodes = (
"36 124 OFFCURVE",
"154 -10 OFFCURVE",
"378 -10 CURVE SMOOTH",
"601 -10 OFFCURVE",
"719 124 OFFCURVE",
"719 350 CURVE SMOOTH",
"719 574 OFFCURVE",
"601 710 OFFCURVE",
"378 710 CURVE SMOOTH",
"154 710 OFFCURVE",
"36 574 OFFCURVE",
"36 350 CURVE SMOOTH"
);
},
{
closed = 1;
nodes = (
"135 541 OFFCURVE",
"215 668 OFFCURVE",
"377 668 CURVE SMOOTH",
"541 668 OFFCURVE",
"620 541 OFFCURVE",
"620 350 CURVE SMOOTH",
"620 158 OFFCURVE",
"541 32 OFFCURVE",
"377 32 CURVE SMOOTH",
"215 32 OFFCURVE",
"135 158 OFFCURVE",
"135 350 CURVE SMOOTH"
);
},
{
closed = 1;
nodes = (
"245 782 LINE",
"353 868 LINE SMOOTH",
"361 874 OFFCURVE",
"371 879 OFFCURVE",
"377 879 CURVE SMOOTH",
"383 879 OFFCURVE",
"391 874 OFFCURVE",
"400 868 CURVE",
"508 782 LINE",
"527 803 LINE",
"403 932 LINE",
"350 932 LINE",
"226 803 LINE"
);
},
{
closed = 1;
nodes = (
"330 -140 OFFCURVE",
"349 -159 OFFCURVE",
"377 -159 CURVE SMOOTH",
"405 -159 OFFCURVE",
"423 -140 OFFCURVE",
"423 -112 CURVE SMOOTH",
"423 -84 OFFCURVE",
"405 -64 OFFCURVE",
"377 -64 CURVE SMOOTH",
"349 -64 OFFCURVE",
"330 -84 OFFCURVE",
"330 -112 CURVE SMOOTH"
);
}
);
};
components = (
{
name = O;
},
{
name = dotbelowcomb;
transform = "{1, 0, 0, 1, 629, 0}";
},
{
name = circumflex;
transform = "{1, 0, 0, 1, 132, 230}";
}
);
layerId = "0B1DFD06-3317-40CA-B510-4969A0718C16";
width = 755;
}
);
leftKerningGroup = O;
note = Ocircumflexdotbelow;
rightKerningGroup = O;
unicode = 1ED8;
},
{
glyphname = Ocircumflexgrave;
lastChange = "2017-12-19 05:21:12 +0000";
layers = (
{
background = {
paths = (
{
closed = 1;
nodes = (
"601 -10 OFFCURVE",
"719 124 OFFCURVE",
"719 350 CURVE SMOOTH",
"719 574 OFFCURVE",
"601 710 OFFCURVE",
"378 710 CURVE SMOOTH",
"154 710 OFFCURVE",
"36 574 OFFCURVE",
"36 350 CURVE SMOOTH",
"36 124 OFFCURVE",
"154 -10 OFFCURVE",
"378 -10 CURVE SMOOTH"
);
},
{
closed = 1;
nodes = (
"215 32 OFFCURVE",
"135 158 OFFCURVE",
"135 350 CURVE SMOOTH",
"135 541 OFFCURVE",
"215 668 OFFCURVE",
"377 668 CURVE SMOOTH",
"541 668 OFFCURVE",
"620 541 OFFCURVE",
"620 350 CURVE SMOOTH",
"620 158 OFFCURVE",
"541 32 OFFCURVE",
"377 32 CURVE SMOOTH"
);
},
{
closed = 1;
nodes = (
"285 914 LINE",
"190 1007 LINE SMOOTH",
"180 1017 OFFCURVE",
"163 1033 OFFCURVE",
"143 1033 CURVE SMOOTH",
"121 1033 OFFCURVE",
"110 1016 OFFCURVE",
"110 1002 CURVE SMOOTH",
"110 987 OFFCURVE",
"123 971 OFFCURVE",
"146 959 CURVE SMOOTH",
"268 892 LINE"
);
},
{
closed = 1;
nodes = (
"348 861 LINE SMOOTH",
"358 869 OFFCURVE",
"368 877 OFFCURVE",
"376 877 CURVE SMOOTH",
"382 877 OFFCURVE",
"390 872 OFFCURVE",
"399 866 CURVE",
"505 780 LINE",
"524 802 LINE",
"402 931 LINE",
"351 931 LINE",
"229 802 LINE",
"247 780 LINE"
);
}
);
};
components = (
{
name = O;
},
{
name = circumflexgrave;
transform = "{1, 0, 0, 1, 628, 230}";
}
);
layerId = "0B1DFD06-3317-40CA-B510-4969A0718C16";
width = 755;
}
);
leftKerningGroup = O;
note = Ocircumflexgrave;
rightKerningGroup = O;
unicode = 1ED2;
},
{
glyphname = Ocircumflexhookabove;
lastChange = "2017-12-19 05:21:12 +0000";
layers = (
{
background = {
paths = (
{
closed = 1;
nodes = (
"601 -10 OFFCURVE",
"719 124 OFFCURVE",
"719 350 CURVE SMOOTH",
"719 574 OFFCURVE",
"601 710 OFFCURVE",
"378 710 CURVE SMOOTH",
"154 710 OFFCURVE",
"36 574 OFFCURVE",
"36 350 CURVE SMOOTH",
"36 124 OFFCURVE",
"154 -10 OFFCURVE",
"378 -10 CURVE SMOOTH"
);
},
{
closed = 1;
nodes = (
"215 32 OFFCURVE",
"135 158 OFFCURVE",
"135 350 CURVE SMOOTH",
"135 541 OFFCURVE",
"215 668 OFFCURVE",
"377 668 CURVE SMOOTH",
"541 668 OFFCURVE",
"620 541 OFFCURVE",
"620 350 CURVE SMOOTH",
"620 158 OFFCURVE",
"541 32 OFFCURVE",
"377 32 CURVE SMOOTH"
);
},
{
closed = 1;
nodes = (
"344 858 LINE",
"355 868 OFFCURVE",
"367 878 OFFCURVE",
"376 878 CURVE SMOOTH",
"382 878 OFFCURVE",
"390 873 OFFCURVE",
"399 867 CURVE",
"505 781 LINE",
"524 803 LINE",
"402 932 LINE",
"351 932 LINE",
"229 803 LINE",
"247 781 LINE"
);
},
{
closed = 1;
nodes = (
"551 898 LINE",
"532 905 OFFCURVE",
"522 912 OFFCURVE",
"522 926 CURVE SMOOTH",
"522 954 OFFCURVE",
"602 965 OFFCURVE",
"602 1010 CURVE SMOOTH",
"602 1047 OFFCURVE",
"560 1063 OFFCURVE",
"518 1063 CURVE SMOOTH",
"487 1063 OFFCURVE",
"442 1053 OFFCURVE",
"442 1022 CURVE SMOOTH",
"442 1010 OFFCURVE",
"453 1001 OFFCURVE",
"463 1001 CURVE SMOOTH",
"492 1001 OFFCURVE",
"479 1040 OFFCURVE",
"522 1040 CURVE SMOOTH",
"541 1040 OFFCURVE",
"552 1028 OFFCURVE",
"552 1013 CURVE SMOOTH",
"552 973 OFFCURVE",
"479 965 OFFCURVE",
"479 925 CURVE SMOOTH",
"479 901 OFFCURVE",
"495 880 OFFCURVE",
"542 880 CURVE"
);
}
);
};
components = (
{
name = O;
},
{
name = circumflexhookabove;
transform = "{1, 0, 0, 1, 628, 230}";
}
);
layerId = "0B1DFD06-3317-40CA-B510-4969A0718C16";
width = 755;
}
);
leftKerningGroup = O;
note = Ocircumflexhookabove;
rightKerningGroup = O;
unicode = 1ED4;
},
{
glyphname = Ocircumflextilde;
lastChange = "2017-12-19 05:21:12 +0000";
layers = (
{
background = {
paths = (
{
closed = 1;
nodes = (
"601 -10 OFFCURVE",
"719 124 OFFCURVE",
"719 350 CURVE SMOOTH",
"719 574 OFFCURVE",
"601 710 OFFCURVE",
"378 710 CURVE SMOOTH",
"154 710 OFFCURVE",
"36 574 OFFCURVE",
"36 350 CURVE SMOOTH",
"36 124 OFFCURVE",
"154 -10 OFFCURVE",
"378 -10 CURVE SMOOTH"
);
},
{
closed = 1;
nodes = (
"215 32 OFFCURVE",
"135 158 OFFCURVE",
"135 350 CURVE SMOOTH",
"135 541 OFFCURVE",
"215 668 OFFCURVE",
"377 668 CURVE SMOOTH",
"541 668 OFFCURVE",
"620 541 OFFCURVE",
"620 350 CURVE SMOOTH",
"620 158 OFFCURVE",
"541 32 OFFCURVE",
"377 32 CURVE SMOOTH"
);
},
{
closed = 1;
nodes = (
"348 862 LINE SMOOTH",
"358 870 OFFCURVE",
"368 878 OFFCURVE",
"376 878 CURVE SMOOTH",
"382 878 OFFCURVE",
"390 873 OFFCURVE",
"399 867 CURVE",
"505 781 LINE",
"524 803 LINE",
"402 932 LINE",
"351 932 LINE",
"229 803 LINE",
"247 781 LINE"
);
},
{
closed = 1;
nodes = (
"251 997 OFFCURVE",
"269 1018 OFFCURVE",
"300 1018 CURVE SMOOTH",
"349 1018 OFFCURVE",
"396 964 OFFCURVE",
"445 964 CURVE SMOOTH",
"498 964 OFFCURVE",
"527 1012 OFFCURVE",
"539 1063 CURVE",
"518 1075 LINE",
"505 1035 OFFCURVE",
"489 1012 OFFCURVE",
"456 1012 CURVE SMOOTH",
"409 1012 OFFCURVE",
"360 1065 OFFCURVE",
"311 1065 CURVE SMOOTH",
"260 1065 OFFCURVE",
"228 1021 OFFCURVE",
"218 970 CURVE",
"238 958 LINE"
);
}
);
};
components = (
{
name = O;
},
{
name = circumflextilde;
transform = "{1, 0, 0, 1, 628, 230}";
}
);
layerId = "0B1DFD06-3317-40CA-B510-4969A0718C16";
width = 755;
}
);
leftKerningGroup = O;
note = Ocircumflextilde;
rightKerningGroup = O;
unicode = 1ED6;
},
{
glyphname = Odieresis;
lastChange = "2017-12-19 05:21:12 +0000";
layers = (
{
background = {
paths = (
{
closed = 1;
nodes = (
"601 -10 OFFCURVE",
"719 124 OFFCURVE",
"719 350 CURVE SMOOTH",
"719 574 OFFCURVE",
"601 710 OFFCURVE",
"378 710 CURVE SMOOTH",
"154 710 OFFCURVE",
"36 574 OFFCURVE",
"36 350 CURVE SMOOTH",
"36 124 OFFCURVE",
"154 -10 OFFCURVE",
"378 -10 CURVE SMOOTH"
);
},
{
closed = 1;
nodes = (
"215 32 OFFCURVE",
"135 158 OFFCURVE",
"135 350 CURVE SMOOTH",
"135 541 OFFCURVE",
"215 668 OFFCURVE",
"377 668 CURVE SMOOTH",
"541 668 OFFCURVE",
"620 541 OFFCURVE",
"620 350 CURVE SMOOTH",
"620 158 OFFCURVE",
"541 32 OFFCURVE",
"377 32 CURVE SMOOTH"
);
},
{
closed = 1;
nodes = (
"298 781 OFFCURVE",
"316 800 OFFCURVE",
"316 827 CURVE SMOOTH",
"316 855 OFFCURVE",
"298 875 OFFCURVE",
"269 875 CURVE SMOOTH",
"241 875 OFFCURVE",
"223 855 OFFCURVE",
"223 827 CURVE SMOOTH",
"223 800 OFFCURVE",
"241 781 OFFCURVE",
"269 781 CURVE SMOOTH"
);
},
{
closed = 1;
nodes = (
"514 781 OFFCURVE",
"532 800 OFFCURVE",
"532 827 CURVE SMOOTH",
"532 855 OFFCURVE",
"514 875 OFFCURVE",
"485 875 CURVE SMOOTH",
"456 875 OFFCURVE",
"438 855 OFFCURVE",
"438 827 CURVE SMOOTH",
"438 800 OFFCURVE",
"456 781 OFFCURVE",
"485 781 CURVE SMOOTH"
);
}
);
};
components = (
{
name = O;
},
{
name = dieresis;
transform = "{1, 0, 0, 1, 132, 230}";
}
);
layerId = "0B1DFD06-3317-40CA-B510-4969A0718C16";
width = 755;
}
);
leftKerningGroup = O;
note = Odieresis;
rightKerningGroup = O;
unicode = 00D6;
},
{
glyphname = Odotbelow;
lastChange = "2017-12-19 05:21:12 +0000";
layers = (
{
background = {
paths = (
{
closed = 1;
nodes = (
"36 124 OFFCURVE",
"154 -10 OFFCURVE",
"378 -10 CURVE SMOOTH",
"601 -10 OFFCURVE",
"719 124 OFFCURVE",
"719 350 CURVE SMOOTH",
"719 574 OFFCURVE",
"601 710 OFFCURVE",
"378 710 CURVE SMOOTH",
"154 710 OFFCURVE",
"36 574 OFFCURVE",
"36 350 CURVE SMOOTH"
);
},
{
closed = 1;
nodes = (
"135 541 OFFCURVE",
"215 668 OFFCURVE",
"377 668 CURVE SMOOTH",
"541 668 OFFCURVE",
"620 541 OFFCURVE",
"620 350 CURVE SMOOTH",
"620 158 OFFCURVE",
"541 32 OFFCURVE",
"377 32 CURVE SMOOTH",
"215 32 OFFCURVE",
"135 158 OFFCURVE",
"135 350 CURVE SMOOTH"
);
},
{
closed = 1;
nodes = (
"330 -140 OFFCURVE",
"349 -159 OFFCURVE",
"377 -159 CURVE SMOOTH",
"405 -159 OFFCURVE",
"423 -140 OFFCURVE",
"423 -112 CURVE SMOOTH",
"423 -84 OFFCURVE",
"405 -64 OFFCURVE",
"377 -64 CURVE SMOOTH",
"349 -64 OFFCURVE",
"330 -84 OFFCURVE",
"330 -112 CURVE SMOOTH"
);
}
);
};
components = (
{
name = O;
},
{
name = dotbelowcomb;
transform = "{1, 0, 0, 1, 629, 0}";
}
);
layerId = "0B1DFD06-3317-40CA-B510-4969A0718C16";
width = 755;
}
);
leftKerningGroup = O;
note = Odotbelow;
rightKerningGroup = O;
unicode = 1ECC;
},
{
glyphname = Ograve;
lastChange = "2017-12-19 05:21:12 +0000";
layers = (
{
background = {
paths = (
{
closed = 1;
nodes = (
"601 -10 OFFCURVE",
"719 124 OFFCURVE",
"719 350 CURVE SMOOTH",
"719 574 OFFCURVE",
"601 710 OFFCURVE",
"378 710 CURVE SMOOTH",
"154 710 OFFCURVE",
"36 574 OFFCURVE",
"36 350 CURVE SMOOTH",
"36 124 OFFCURVE",
"154 -10 OFFCURVE",
"378 -10 CURVE SMOOTH"
);
},
{
closed = 1;
nodes = (
"215 32 OFFCURVE",
"135 158 OFFCURVE",
"135 350 CURVE SMOOTH",
"135 541 OFFCURVE",
"215 668 OFFCURVE",
"377 668 CURVE SMOOTH",
"541 668 OFFCURVE",
"620 541 OFFCURVE",
"620 350 CURVE SMOOTH",
"620 158 OFFCURVE",
"541 32 OFFCURVE",
"377 32 CURVE SMOOTH"
);
},
{
closed = 1;
nodes = (
"459 807 LINE",
"344 913 LINE",
"335 922 OFFCURVE",
"319 937 OFFCURVE",
"299 937 CURVE SMOOTH",
"279 937 OFFCURVE",
"267 924 OFFCURVE",
"267 908 CURVE SMOOTH",
"267 890 OFFCURVE",
"279 876 OFFCURVE",
"298 865 CURVE SMOOTH",
"441 782 LINE"
);
}
);
};
components = (
{
name = O;
},
{
name = grave;
transform = "{1, 0, 0, 1, 132, 230}";
}
);
layerId = "0B1DFD06-3317-40CA-B510-4969A0718C16";
width = 755;
}
);
leftKerningGroup = O;
note = Ograve;
rightKerningGroup = O;
unicode = 00D2;
},
{
glyphname = Ohookabove;
lastChange = "2017-12-19 05:21:12 +0000";
layers = (
{
background = {
paths = (
{
closed = 1;
nodes = (
"601 -10 OFFCURVE",
"719 124 OFFCURVE",
"719 350 CURVE SMOOTH",
"719 574 OFFCURVE",
"601 710 OFFCURVE",
"378 710 CURVE SMOOTH",
"154 710 OFFCURVE",
"36 574 OFFCURVE",
"36 350 CURVE SMOOTH",
"36 124 OFFCURVE",
"154 -10 OFFCURVE",
"378 -10 CURVE SMOOTH"
);
},
{
closed = 1;
nodes = (
"215 32 OFFCURVE",
"135 158 OFFCURVE",
"135 350 CURVE SMOOTH",
"135 541 OFFCURVE",
"215 668 OFFCURVE",
"377 668 CURVE SMOOTH",
"541 668 OFFCURVE",
"620 541 OFFCURVE",
"620 350 CURVE SMOOTH",
"620 158 OFFCURVE",
"541 32 OFFCURVE",
"377 32 CURVE SMOOTH"
);
},
{
closed = 1;
nodes = (
"407 798 LINE",
"388 805 OFFCURVE",
"376 811 OFFCURVE",
"376 828 CURVE SMOOTH",
"376 861 OFFCURVE",
"465 876 OFFCURVE",
"465 927 CURVE SMOOTH",
"465 969 OFFCURVE",
"429 991 OFFCURVE",
"376 991 CURVE SMOOTH",
"329 991 OFFCURVE",
"288 974 OFFCURVE",
"288 940 CURVE SMOOTH",
"288 923 OFFCURVE",
"296 915 OFFCURVE",
"311 915 CURVE SMOOTH",
"334 915 OFFCURVE",
"336 934 OFFCURVE",
"339 942 CURVE SMOOTH",
"344 956 OFFCURVE",
"361 962 OFFCURVE",
"377 962 CURVE SMOOTH",
"398 962 OFFCURVE",
"411 947 OFFCURVE",
"411 930 CURVE SMOOTH",
"411 885 OFFCURVE",
"329 874 OFFCURVE",
"329 828 CURVE SMOOTH",
"329 801 OFFCURVE",
"347 778 OFFCURVE",
"398 778 CURVE"
);
}
);
};
components = (
{
name = O;
},
{
name = hookabovecomb;
transform = "{1, 0, 0, 1, 629, 230}";
}
);
layerId = "0B1DFD06-3317-40CA-B510-4969A0718C16";
width = 755;
}
);
leftKerningGroup = O;
note = Ohookabove;
rightKerningGroup = O;
unicode = 1ECE;
},
{
glyphname = Ohorn;
lastChange = "2017-12-19 05:47:50 +0000";
layers = (
{
layerId = "0B1DFD06-3317-40CA-B510-4969A0718C16";
paths = (
{
closed = 1;
nodes = (
"883 536 OFFCURVE",
"842 643 OFFCURVE",
"774 721 CURVE",
"833 754 OFFCURVE",
"859 802 OFFCURVE",
"870 844 CURVE SMOOTH",
"877 869 OFFCURVE",
"880 894 OFFCURVE",
"879 921 CURVE",
"875 955 OFFCURVE",
"817 939 OFFCURVE",
"830 902 CURVE",
"828 881 OFFCURVE",
"824 860 OFFCURVE",
"817 841 CURVE",
"804 809 OFFCURVE",
"783 770 OFFCURVE",
"741 754 CURVE",
"666 823 OFFCURVE",
"564 857 OFFCURVE",
"452 857 CURVE SMOOTH",
"218 857 OFFCURVE",
"47 683 OFFCURVE",
"47 405 CURVE SMOOTH",
"47 134 OFFCURVE",
"269 0 OFFCURVE",
"449 0 CURVE SMOOTH",
"659 0 OFFCURVE",
"870 132 OFFCURVE",
"879 407 CURVE SMOOTH"
);
},
{
closed = 1;
nodes = (
"825 144 OFFCURVE",
"626 44 OFFCURVE",
"455 45 CURVE SMOOTH",
"384 45 OFFCURVE",
"295 71 OFFCURVE",
"223 128 CURVE SMOOTH",
"151 187 OFFCURVE",
"96 275 OFFCURVE",
"96 405 CURVE SMOOTH",
"96 675 OFFCURVE",
"261 809 OFFCURVE",
"452 809 CURVE SMOOTH",
"661 809 OFFCURVE",
"821 674 OFFCURVE",
"830 407 CURVE"
);
}
);
width = 944;
}
);
note = Ohorn;
unicode = 01A0;
},
{
glyphname = Ohornacute;
lastChange = "2017-12-19 05:21:12 +0000";
layers = (
{
background = {
paths = (
{
closed = 1;
nodes = (
"602 -10 OFFCURVE",
"720 124 OFFCURVE",
"720 350 CURVE SMOOTH",
"720 574 OFFCURVE",
"602 710 OFFCURVE",
"379 710 CURVE SMOOTH",
"155 710 OFFCURVE",
"37 574 OFFCURVE",
"37 350 CURVE SMOOTH",
"37 124 OFFCURVE",
"155 -10 OFFCURVE",
"379 -10 CURVE SMOOTH"
);
},
{
closed = 1;
nodes = (
"216 32 OFFCURVE",
"136 158 OFFCURVE",
"136 350 CURVE SMOOTH",
"136 541 OFFCURVE",
"216 668 OFFCURVE",
"378 668 CURVE SMOOTH",
"542 668 OFFCURVE",
"621 541 OFFCURVE",
"621 350 CURVE SMOOTH",
"621 158 OFFCURVE",
"542 32 OFFCURVE",
"378 32 CURVE SMOOTH"
);
},
{
closed = 1;
nodes = (
"424 864 LINE SMOOTH",
"446 876 OFFCURVE",
"458 889 OFFCURVE",
"458 906 CURVE SMOOTH",
"458 921 OFFCURVE",
"446 936 OFFCURVE",
"424 936 CURVE SMOOTH",
"403 936 OFFCURVE",
"388 920 OFFCURVE",
"380 913 CURVE SMOOTH",
"265 806 LINE",
"282 781 LINE"
);
},
{
closed = 1;
nodes = (
"691 567 OFFCURVE",
"756 632 OFFCURVE",
"756 705 CURVE SMOOTH",
"756 752 OFFCURVE",
"729 772 OFFCURVE",
"701 772 CURVE SMOOTH",
"672 772 OFFCURVE",
"656 752 OFFCURVE",
"656 729 CURVE SMOOTH",
"656 695 OFFCURVE",
"689 688 OFFCURVE",
"689 653 CURVE SMOOTH",
"689 617 OFFCURVE",
"658 588 OFFCURVE",
"623 568 CURVE",
"623 543 LINE"
);
}
);
};
components = (
{
name = acute;
transform = "{1, 0, 0, 1, 120, 230}";
},
{
name = Ohorn;
}
);
layerId = "0B1DFD06-3317-40CA-B510-4969A0718C16";
width = 755;
}
);
leftKerningGroup = O;
note = Ohornacute;
rightKerningGroup = O;
unicode = 1EDA;
},
{
glyphname = Ohorndotbelow;
lastChange = "2017-12-19 05:21:12 +0000";
layers = (
{
background = {
paths = (
{
closed = 1;
nodes = (
"602 -10 OFFCURVE",
"720 124 OFFCURVE",
"720 350 CURVE SMOOTH",
"720 574 OFFCURVE",
"602 710 OFFCURVE",
"379 710 CURVE SMOOTH",
"155 710 OFFCURVE",
"37 574 OFFCURVE",
"37 350 CURVE SMOOTH",
"37 124 OFFCURVE",
"155 -10 OFFCURVE",
"379 -10 CURVE SMOOTH"
);
},
{
closed = 1;
nodes = (
"216 32 OFFCURVE",
"136 158 OFFCURVE",
"136 350 CURVE SMOOTH",
"136 541 OFFCURVE",
"216 668 OFFCURVE",
"378 668 CURVE SMOOTH",
"542 668 OFFCURVE",
"621 541 OFFCURVE",
"621 350 CURVE SMOOTH",
"621 158 OFFCURVE",
"542 32 OFFCURVE",
"378 32 CURVE SMOOTH"
);
},
{
closed = 1;
nodes = (
"691 567 OFFCURVE",
"756 632 OFFCURVE",
"756 705 CURVE SMOOTH",
"756 752 OFFCURVE",
"729 772 OFFCURVE",
"701 772 CURVE SMOOTH",
"672 772 OFFCURVE",
"656 752 OFFCURVE",
"656 729 CURVE SMOOTH",
"656 695 OFFCURVE",
"689 688 OFFCURVE",
"689 653 CURVE SMOOTH",
"689 617 OFFCURVE",
"658 588 OFFCURVE",
"623 568 CURVE",
"623 543 LINE"
);
},
{
closed = 1;
nodes = (
"395 -159 OFFCURVE",
"413 -140 OFFCURVE",
"413 -112 CURVE SMOOTH",
"413 -84 OFFCURVE",
"395 -64 OFFCURVE",
"367 -64 CURVE SMOOTH",
"339 -64 OFFCURVE",
"320 -84 OFFCURVE",
"320 -112 CURVE SMOOTH",
"320 -140 OFFCURVE",
"339 -159 OFFCURVE",
"367 -159 CURVE SMOOTH"
);
}
);
};
components = (
{
name = dotbelowcomb;
transform = "{1, 0, 0, 1, 629, 0}";
},
{
name = Ohorn;
}
);
layerId = "0B1DFD06-3317-40CA-B510-4969A0718C16";
width = 755;
}
);
leftKerningGroup = O;
note = Ohorndotbelow;
rightKerningGroup = O;
unicode = 1EE2;
},
{
glyphname = Ohorngrave;
lastChange = "2017-12-19 05:21:12 +0000";
layers = (
{
background = {
paths = (
{
closed = 1;
nodes = (
"602 -10 OFFCURVE",
"720 124 OFFCURVE",
"720 350 CURVE SMOOTH",
"720 574 OFFCURVE",
"602 710 OFFCURVE",
"379 710 CURVE SMOOTH",
"155 710 OFFCURVE",
"37 574 OFFCURVE",
"37 350 CURVE SMOOTH",
"37 124 OFFCURVE",
"155 -10 OFFCURVE",
"379 -10 CURVE SMOOTH"
);
},
{
closed = 1;
nodes = (
"216 32 OFFCURVE",
"136 158 OFFCURVE",
"136 350 CURVE SMOOTH",
"136 541 OFFCURVE",
"216 668 OFFCURVE",
"378 668 CURVE SMOOTH",
"542 668 OFFCURVE",
"621 541 OFFCURVE",
"621 350 CURVE SMOOTH",
"621 158 OFFCURVE",
"542 32 OFFCURVE",
"378 32 CURVE SMOOTH"
);
},
{
closed = 1;
nodes = (
"464 816 LINE",
"349 922 LINE",
"340 931 OFFCURVE",
"324 946 OFFCURVE",
"304 946 CURVE SMOOTH",
"284 946 OFFCURVE",
"272 933 OFFCURVE",
"272 917 CURVE SMOOTH",
"272 899 OFFCURVE",
"284 885 OFFCURVE",
"303 874 CURVE SMOOTH",
"446 791 LINE"
);
},
{
closed = 1;
nodes = (
"691 567 OFFCURVE",
"756 632 OFFCURVE",
"756 705 CURVE SMOOTH",
"756 752 OFFCURVE",
"729 772 OFFCURVE",
"701 772 CURVE SMOOTH",
"672 772 OFFCURVE",
"656 752 OFFCURVE",
"656 729 CURVE SMOOTH",
"656 695 OFFCURVE",
"689 688 OFFCURVE",
"689 653 CURVE SMOOTH",
"689 617 OFFCURVE",
"658 588 OFFCURVE",
"623 568 CURVE",
"623 543 LINE"
);
}
);
};
components = (
{
name = grave;
transform = "{1, 0, 0, 1, 132, 230}";
},
{
name = Ohorn;
}
);
layerId = "0B1DFD06-3317-40CA-B510-4969A0718C16";
width = 755;
}
);
leftKerningGroup = O;
note = Ohorngrave;
rightKerningGroup = O;
unicode = 1EDC;
},
{
glyphname = Ohornhookabove;
lastChange = "2017-12-19 05:21:12 +0000";
layers = (
{
background = {
paths = (
{
closed = 1;
nodes = (
"602 -10 OFFCURVE",
"720 124 OFFCURVE",
"720 350 CURVE SMOOTH",
"720 574 OFFCURVE",
"602 710 OFFCURVE",
"379 710 CURVE SMOOTH",
"155 710 OFFCURVE",
"37 574 OFFCURVE",
"37 350 CURVE SMOOTH",
"37 124 OFFCURVE",
"155 -10 OFFCURVE",
"379 -10 CURVE SMOOTH"
);
},
{
closed = 1;
nodes = (
"216 32 OFFCURVE",
"136 158 OFFCURVE",
"136 350 CURVE SMOOTH",
"136 541 OFFCURVE",
"216 668 OFFCURVE",
"378 668 CURVE SMOOTH",
"542 668 OFFCURVE",
"621 541 OFFCURVE",
"621 350 CURVE SMOOTH",
"621 158 OFFCURVE",
"542 32 OFFCURVE",
"378 32 CURVE SMOOTH"
);
},
{
closed = 1;
nodes = (
"412 809 LINE",
"393 816 OFFCURVE",
"381 822 OFFCURVE",
"381 839 CURVE SMOOTH",
"381 872 OFFCURVE",
"470 887 OFFCURVE",
"470 938 CURVE SMOOTH",
"470 980 OFFCURVE",
"434 1002 OFFCURVE",
"381 1002 CURVE SMOOTH",
"334 1002 OFFCURVE",
"293 985 OFFCURVE",
"293 951 CURVE SMOOTH",
"293 934 OFFCURVE",
"301 926 OFFCURVE",
"316 926 CURVE SMOOTH",
"339 926 OFFCURVE",
"341 945 OFFCURVE",
"344 953 CURVE SMOOTH",
"349 967 OFFCURVE",
"366 973 OFFCURVE",
"382 973 CURVE SMOOTH",
"403 973 OFFCURVE",
"416 958 OFFCURVE",
"416 941 CURVE SMOOTH",
"416 896 OFFCURVE",
"334 885 OFFCURVE",
"334 839 CURVE SMOOTH",
"334 812 OFFCURVE",
"352 789 OFFCURVE",
"403 789 CURVE"
);
},
{
closed = 1;
nodes = (
"691 567 OFFCURVE",
"756 632 OFFCURVE",
"756 705 CURVE SMOOTH",
"756 752 OFFCURVE",
"729 772 OFFCURVE",
"701 772 CURVE SMOOTH",
"672 772 OFFCURVE",
"656 752 OFFCURVE",
"656 729 CURVE SMOOTH",
"656 695 OFFCURVE",
"689 688 OFFCURVE",
"689 653 CURVE SMOOTH",
"689 617 OFFCURVE",
"658 588 OFFCURVE",
"623 568 CURVE",
"623 543 LINE"
);
}
);
};
components = (
{
name = hookabovecomb;
transform = "{1, 0, 0, 1, 629, 230}";
},
{
name = Ohorn;
}
);
layerId = "0B1DFD06-3317-40CA-B510-4969A0718C16";
width = 755;
}
);
leftKerningGroup = O;
note = Ohornhookabove;
rightKerningGroup = O;
unicode = 1EDE;
},
{
glyphname = Ohorntilde;
lastChange = "2017-12-19 05:21:12 +0000";
layers = (
{
background = {
paths = (
{
closed = 1;
nodes = (
"602 -10 OFFCURVE",
"720 124 OFFCURVE",
"720 350 CURVE SMOOTH",
"720 574 OFFCURVE",
"602 710 OFFCURVE",
"379 710 CURVE SMOOTH",
"155 710 OFFCURVE",
"37 574 OFFCURVE",
"37 350 CURVE SMOOTH",
"37 124 OFFCURVE",
"155 -10 OFFCURVE",
"379 -10 CURVE SMOOTH"
);
},
{
closed = 1;
nodes = (
"216 32 OFFCURVE",
"136 158 OFFCURVE",
"136 350 CURVE SMOOTH",
"136 541 OFFCURVE",
"216 668 OFFCURVE",
"378 668 CURVE SMOOTH",
"542 668 OFFCURVE",
"621 541 OFFCURVE",
"621 350 CURVE SMOOTH",
"621 158 OFFCURVE",
"542 32 OFFCURVE",
"378 32 CURVE SMOOTH"
);
},
{
closed = 1;
nodes = (
"234 828 OFFCURVE",
"252 849 OFFCURVE",
"285 849 CURVE SMOOTH",
"336 849 OFFCURVE",
"385 795 OFFCURVE",
"436 795 CURVE SMOOTH",
"494 795 OFFCURVE",
"524 843 OFFCURVE",
"536 895 CURVE",
"515 906 LINE",
"499 866 OFFCURVE",
"483 844 OFFCURVE",
"449 844 CURVE SMOOTH",
"400 844 OFFCURVE",
"348 897 OFFCURVE",
"297 897 CURVE SMOOTH",
"243 897 OFFCURVE",
"210 853 OFFCURVE",
"198 801 CURVE",
"220 790 LINE"
);
},
{
closed = 1;
nodes = (
"691 567 OFFCURVE",
"756 632 OFFCURVE",
"756 705 CURVE SMOOTH",
"756 752 OFFCURVE",
"729 772 OFFCURVE",
"701 772 CURVE SMOOTH",
"672 772 OFFCURVE",
"656 752 OFFCURVE",
"656 729 CURVE SMOOTH",
"656 695 OFFCURVE",
"689 688 OFFCURVE",
"689 653 CURVE SMOOTH",
"689 617 OFFCURVE",
"658 588 OFFCURVE",
"623 568 CURVE",
"623 543 LINE"
);
}
);
};
components = (
{
name = tilde;
transform = "{1, 0, 0, 1, 132, 230}";
},
{
name = Ohorn;
}
);
layerId = "0B1DFD06-3317-40CA-B510-4969A0718C16";
width = 755;
}
);
leftKerningGroup = O;
note = Ohorntilde;
rightKerningGroup = O;
unicode = 1EE0;
},
{
glyphname = Ohungarumlaut;
lastChange = "2017-12-19 05:21:12 +0000";
layers = (
{
background = {
paths = (
{
closed = 1;
nodes = (
"601 -10 OFFCURVE",
"719 124 OFFCURVE",
"719 350 CURVE SMOOTH",
"719 574 OFFCURVE",
"601 710 OFFCURVE",
"378 710 CURVE SMOOTH",
"154 710 OFFCURVE",
"36 574 OFFCURVE",
"36 350 CURVE SMOOTH",
"36 124 OFFCURVE",
"154 -10 OFFCURVE",
"378 -10 CURVE SMOOTH"
);
},
{
closed = 1;
nodes = (
"215 32 OFFCURVE",
"135 158 OFFCURVE",
"135 350 CURVE SMOOTH",
"135 541 OFFCURVE",
"215 668 OFFCURVE",
"377 668 CURVE SMOOTH",
"541 668 OFFCURVE",
"620 541 OFFCURVE",
"620 350 CURVE SMOOTH",
"620 158 OFFCURVE",
"541 32 OFFCURVE",
"377 32 CURVE SMOOTH"
);
},
{
closed = 1;
nodes = (
"395 864 LINE SMOOTH",
"417 877 OFFCURVE",
"429 891 OFFCURVE",
"429 908 CURVE SMOOTH",
"429 922 OFFCURVE",
"421 937 OFFCURVE",
"399 937 CURVE SMOOTH",
"378 937 OFFCURVE",
"357 919 OFFCURVE",
"350 913 CURVE",
"236 807 LINE",
"253 782 LINE"
);
},
{
closed = 1;
nodes = (
"556 864 LINE SMOOTH",
"577 877 OFFCURVE",
"589 891 OFFCURVE",
"589 908 CURVE SMOOTH",
"589 922 OFFCURVE",
"578 937 OFFCURVE",
"556 937 CURVE SMOOTH",
"534 937 OFFCURVE",
"517 919 OFFCURVE",
"510 913 CURVE",
"396 807 LINE",
"414 782 LINE"
);
}
);
};
components = (
{
name = O;
},
{
name = hungarumlaut;
transform = "{1, 0, 0, 1, 131, 230}";
}
);
layerId = "0B1DFD06-3317-40CA-B510-4969A0718C16";
width = 755;
}
);
leftKerningGroup = O;
note = Ohungarumlaut;
rightKerningGroup = O;
unicode = 0150;
},
{
glyphname = Omacron;
lastChange = "2017-12-19 05:21:12 +0000";
layers = (
{
background = {
paths = (
{
closed = 1;
nodes = (
"601 -10 OFFCURVE",
"719 124 OFFCURVE",
"719 350 CURVE SMOOTH",
"719 574 OFFCURVE",
"601 710 OFFCURVE",
"378 710 CURVE SMOOTH",
"154 710 OFFCURVE",
"36 574 OFFCURVE",
"36 350 CURVE SMOOTH",
"36 124 OFFCURVE",
"154 -10 OFFCURVE",
"378 -10 CURVE SMOOTH"
);
},
{
closed = 1;
nodes = (
"215 32 OFFCURVE",
"135 158 OFFCURVE",
"135 350 CURVE SMOOTH",
"135 541 OFFCURVE",
"215 668 OFFCURVE",
"377 668 CURVE SMOOTH",
"541 668 OFFCURVE",
"620 541 OFFCURVE",
"620 350 CURVE SMOOTH",
"620 158 OFFCURVE",
"541 32 OFFCURVE",
"377 32 CURVE SMOOTH"
);
},
{
closed = 1;
nodes = (
"543 793 LINE",
"543 835 LINE",
"210 835 LINE",
"210 793 LINE"
);
}
);
};
components = (
{
name = O;
},
{
name = macron;
transform = "{1, 0, 0, 1, 132, 230}";
}
);
layerId = "0B1DFD06-3317-40CA-B510-4969A0718C16";
width = 755;
}
);
leftKerningGroup = O;
note = Omacron;
rightKerningGroup = O;
unicode = 014C;
},
{
glyphname = Oslash;
lastChange = "2017-12-19 05:48:06 +0000";
layers = (
{
layerId = "0B1DFD06-3317-40CA-B510-4969A0718C16";
paths = (
{
closed = 1;
nodes = (
"723 751 LINE",
"648 804 OFFCURVE",
"548 842 OFFCURVE",
"451 842 CURVE SMOOTH",
"209 842 OFFCURVE",
"56 665 OFFCURVE",
"56 394 CURVE SMOOTH",
"56 264 OFFCURVE",
"112 163 OFFCURVE",
"181 101 CURVE",
"106 14 LINE SMOOTH",
"84 -13 OFFCURVE",
"116 -41 OFFCURVE",
"139 -10 CURVE",
"216 77 LINE",
"285 30 OFFCURVE",
"368 9 OFFCURVE",
"449 12 CURVE SMOOTH",
"660 12 OFFCURVE",
"871 123 OFFCURVE",
"881 395 CURVE SMOOTH",
"885 535 OFFCURVE",
"837 647 OFFCURVE",
"756 724 CURVE",
"839 825 LINE SMOOTH",
"861 852 OFFCURVE",
"832 878 OFFCURVE",
"808 849 CURVE SMOOTH"
);
},
{
closed = 1;
nodes = (
"101 664 OFFCURVE",
"250 801 OFFCURVE",
"451 801 CURVE SMOOTH",
"541 803 OFFCURVE",
"632 768 OFFCURVE",
"694 719 CURVE",
"209 134 LINE",
"149 188 OFFCURVE",
"101 275 OFFCURVE",
"101 394 CURVE SMOOTH"
);
},
{
closed = 1;
nodes = (
"827 142 OFFCURVE",
"621 46 OFFCURVE",
"452 50 CURVE SMOOTH",
"385 53 OFFCURVE",
"309 66 OFFCURVE",
"242 108 CURVE",
"728 691 LINE",
"795 622 OFFCURVE",
"836 524 OFFCURVE",
"841 395 CURVE"
);
}
);
width = 944;
}
);
note = Oslash;
unicode = 00D8;
},
{
glyphname = OE;
lastChange = "2017-12-19 05:47:59 +0000";
layers = (
{
layerId = "0B1DFD06-3317-40CA-B510-4969A0718C16";
paths = (
{
closed = 1;
nodes = (
"745 425 LINE",
"847 434 OFFCURVE",
"1060 418 OFFCURVE",
"1067 425 CURVE",
"1076 425 OFFCURVE",
"1080 431 OFFCURVE",
"1079 443 CURVE SMOOTH",
"1077 456 OFFCURVE",
"1071 462 OFFCURVE",
"1062 463 CURVE SMOOTH",
"971 472 OFFCURVE",
"828 466 OFFCURVE",
"743 470 CURVE",
"745 512 OFFCURVE",
"745 553 OFFCURVE",
"745 592 CURVE SMOOTH",
"745 660 OFFCURVE",
"746 742 OFFCURVE",
"743 797 CURVE",
"888 811 OFFCURVE",
"1097 796 OFFCURVE",
"1161 792 CURVE",
"1172 795 OFFCURVE",
"1179 801 OFFCURVE",
"1181 811 CURVE",
"1183 822 OFFCURVE",
"1179 828 OFFCURVE",
"1170 830 CURVE SMOOTH",
"1119 844 OFFCURVE",
"860 848 OFFCURVE",
"698 839 CURVE",
"659 839 OFFCURVE",
"666 804 OFFCURVE",
"698 804 CURVE",
"700 762 LINE",
"666 803 OFFCURVE",
"630 829 OFFCURVE",
"590 839 CURVE SMOOTH",
"551 850 OFFCURVE",
"507 855 OFFCURVE",
"460 855 CURVE SMOOTH",
"249 855 OFFCURVE",
"56 703 OFFCURVE",
"56 411 CURVE SMOOTH",
"56 118 OFFCURVE",
"251 -1 OFFCURVE",
"427 3 CURVE SMOOTH",
"587 8 OFFCURVE",
"630 18 OFFCURVE",
"681 26 CURVE",
"725 30 OFFCURVE",
"853 22 OFFCURVE",
"962 17 CURVE SMOOTH",
"1075 14 OFFCURVE",
"1173 20 OFFCURVE",
"1173 47 CURVE SMOOTH",
"1173 56 OFFCURVE",
"1164 66 OFFCURVE",
"1146 66 CURVE",
"974 43 OFFCURVE",
"893 55 OFFCURVE",
"736 65 CURVE"
);
},
{
closed = 1;
nodes = (
"689 75 LINE",
"598 43 OFFCURVE",
"552 47 OFFCURVE",
"427 47 CURVE SMOOTH",
"267 47 OFFCURVE",
"98 150 OFFCURVE",
"98 414 CURVE SMOOTH",
"98 677 OFFCURVE",
"270 815 OFFCURVE",
"460 811 CURVE SMOOTH",
"548 807 OFFCURVE",
"643 794 OFFCURVE",
"698 688 CURVE",
"702 648 OFFCURVE",
"701 535 OFFCURVE",
"701 425 CURVE SMOOTH"
);
}
);
width = 1206;
}
);
note = OE;
unicode = 0152;
},
{
glyphname = Thorn;
lastChange = "2017-12-19 05:48:13 +0000";
layers = (
{
layerId = "0B1DFD06-3317-40CA-B510-4969A0718C16";
paths = (
{
closed = 1;
nodes = (
"350 712 OFFCURVE",
"583 612 OFFCURVE",
"578 455 CURVE SMOOTH",
"574 277 OFFCURVE",
"359 223 OFFCURVE",
"162 294 CURVE",
"152 401 OFFCURVE",
"154 535 OFFCURVE",
"150 613 CURVE"
);
},
{
closed = 1;
nodes = (
"150 652 OFFCURVE",
"151 748 OFFCURVE",
"146 832 CURVE",
"146 853 OFFCURVE",
"108 858 OFFCURVE",
"108 822 CURVE SMOOTH",
"111 633 LINE",
"109 633 OFFCURVE",
"106 632 OFFCURVE",
"103 630 CURVE",
"99 626 OFFCURVE",
"89 622 OFFCURVE",
"78 613 CURVE",
"72 609 OFFCURVE",
"71 602 OFFCURVE",
"76 592 CURVE",
"80 584 OFFCURVE",
"86 582 OFFCURVE",
"94 587 CURVE",
"113 593 LINE",
"113 446 OFFCURVE",
"125 302 OFFCURVE",
"111 33 CURVE",
"111 1 OFFCURVE",
"158 12 OFFCURVE",
"158 31 CURVE SMOOTH",
"160 256 LINE",
"376 172 OFFCURVE",
"610 236 OFFCURVE",
"615 452 CURVE SMOOTH",
"615 507 OFFCURVE",
"600 553 OFFCURVE",
"569 589 CURVE SMOOTH",
"537 626 OFFCURVE",
"498 653 OFFCURVE",
"451 670 CURVE SMOOTH",
"405 688 OFFCURVE",
"354 694 OFFCURVE",
"299 692 CURVE SMOOTH",
"245 689 OFFCURVE",
"195 676 OFFCURVE",
"150 653 CURVE"
);
}
);
width = 688;
}
);
note = Thorn;
unicode = 00DE;
},
{
color = 0;
glyphname = Germandbls;
lastChange = "2017-12-19 05:23:49 +0000";
layers = (
{
layerId = "0B1DFD06-3317-40CA-B510-4969A0718C16";
paths = (
{
closed = 1;
nodes = (
"606 -10 OFFCURVE",
"674 88 OFFCURVE",
"674 203 CURVE SMOOTH",
"674 313 OFFCURVE",
"592 385 OFFCURVE",
"445 398 CURVE",
"591 553 LINE",
"569 627 OFFCURVE",
"489 710 OFFCURVE",
"354 710 CURVE SMOOTH",
"177 710 OFFCURVE",
"92 616 OFFCURVE",
"92 470 CURVE SMOOTH",
"92 62 LINE SMOOTH",
"92 37 OFFCURVE",
"72 26 OFFCURVE",
"33 26 CURVE SMOOTH",
"5 26 LINE",
"5 0 LINE",
"255 0 LINE",
"255 26 LINE",
"227 26 LINE SMOOTH",
"202 26 OFFCURVE",
"188 44 OFFCURVE",
"188 63 CURVE SMOOTH",
"188 495 LINE SMOOTH",
"188 602 OFFCURVE",
"246 668 OFFCURVE",
"347 668 CURVE SMOOTH",
"431 668 OFFCURVE",
"479 617 OFFCURVE",
"499 555 CURVE",
"344 387 LINE",
"344 361 LINE",
"406 361 LINE SMOOTH",
"520 361 OFFCURVE",
"578 296 OFFCURVE",
"578 203 CURVE SMOOTH",
"578 100 OFFCURVE",
"521 29 OFFCURVE",
"419 29 CURVE SMOOTH",
"374 29 OFFCURVE",
"324 37 OFFCURVE",
"277 56 CURVE",
"277 14 LINE",
"318 -2 OFFCURVE",
"367 -10 OFFCURVE",
"423 -10 CURVE SMOOTH"
);
}
);
width = 703;
}
);
note = uni1E9E;
unicode = 1E9E;
},
{
color = 0;
glyphname = Schwa;
lastChange = "2017-12-19 05:23:49 +0000";
layers = (
{
layerId = "0B1DFD06-3317-40CA-B510-4969A0718C16";
paths = (
{
closed = 1;
nodes = (
"543 -10 OFFCURVE",
"658 120 OFFCURVE",
"658 346 CURVE SMOOTH",
"658 569 OFFCURVE",
"533 710 OFFCURVE",
"323 710 CURVE SMOOTH",
"160 710 OFFCURVE",
"56 618 OFFCURVE",
"41 500 CURVE",
"84 500 LINE",
"111 616 OFFCURVE",
"202 660 OFFCURVE",
"298 660 CURVE SMOOTH",
"479 660 OFFCURVE",
"559 515 OFFCURVE",
"559 341 CURVE SMOOTH",
"559 185 OFFCURVE",
"486 39 OFFCURVE",
"327 39 CURVE SMOOTH",
"181 39 OFFCURVE",
"133 180 OFFCURVE",
"132 283 CURVE",
"573 283 LINE",
"573 333 LINE",
"33 333 LINE",
"33 303 LINE SMOOTH",
"33 132 OFFCURVE",
"119 -10 OFFCURVE",
"330 -10 CURVE SMOOTH"
);
}
);
width = 692;
}
);
note = uni018F;
unicode = 018F;
},
{
glyphname = Tbar;
lastChange = "2017-12-19 05:21:12 +0000";
layers = (
{
components = (
{
name = T;
}
);
layerId = "0B1DFD06-3317-40CA-B510-4969A0718C16";
paths = (
{
closed = 1;
nodes = (
"520 317 LINE",
"520 363 LINE",
"134 363 LINE",
"134 317 LINE"
);
}
);
width = 652;
}
);
leftKerningGroup = T;
note = Tbar;
rightKerningGroup = T;
unicode = 0166;
},
{
glyphname = Uacute;
lastChange = "2017-12-19 05:21:12 +0000";
layers = (
{
background = {
paths = (
{
closed = 1;
nodes = (
"539 -10 OFFCURVE",
"636 51 OFFCURVE",
"636 204 CURVE SMOOTH",
"636 637 LINE SMOOTH",
"636 662 OFFCURVE",
"660 673 OFFCURVE",
"690 673 CURVE SMOOTH",
"713 673 LINE",
"713 700 LINE",
"510 700 LINE",
"510 673 LINE",
"532 673 LINE SMOOTH",
"564 673 OFFCURVE",
"586 662 OFFCURVE",
"586 637 CURVE SMOOTH",
"586 197 LINE SMOOTH",
"586 65 OFFCURVE",
"489 31 OFFCURVE",
"397 31 CURVE SMOOTH",
"290 31 OFFCURVE",
"203 63 OFFCURVE",
"203 197 CURVE SMOOTH",
"203 637 LINE SMOOTH",
"203 662 OFFCURVE",
"226 673 OFFCURVE",
"257 673 CURVE SMOOTH",
"280 673 LINE",
"280 700 LINE",
"28 700 LINE",
"28 673 LINE",
"51 673 LINE SMOOTH",
"82 673 OFFCURVE",
"105 662 OFFCURVE",
"105 637 CURVE SMOOTH",
"105 204 LINE SMOOTH",
"105 46 OFFCURVE",
"208 -10 OFFCURVE",
"375 -10 CURVE SMOOTH"
);
},
{
closed = 1;
nodes = (
"447 865 LINE SMOOTH",
"469 877 OFFCURVE",
"481 890 OFFCURVE",
"481 907 CURVE SMOOTH",
"481 922 OFFCURVE",
"469 937 OFFCURVE",
"447 937 CURVE SMOOTH",
"426 937 OFFCURVE",
"411 921 OFFCURVE",
"403 914 CURVE SMOOTH",
"288 807 LINE",
"305 782 LINE"
);
}
);
};
components = (
{
name = U;
},
{
name = acute;
transform = "{1, 0, 0, 1, 136, 230}";
}
);
layerId = "0B1DFD06-3317-40CA-B510-4969A0718C16";
width = 742;
}
);
leftKerningGroup = U;
note = Uacute;
rightKerningGroup = U;
unicode = 00DA;
},
{
glyphname = Ubreve;
lastChange = "2017-12-19 05:21:12 +0000";
layers = (
{
background = {
paths = (
{
closed = 1;
nodes = (
"539 -10 OFFCURVE",
"636 51 OFFCURVE",
"636 204 CURVE SMOOTH",
"636 637 LINE SMOOTH",
"636 662 OFFCURVE",
"660 673 OFFCURVE",
"690 673 CURVE SMOOTH",
"713 673 LINE",
"713 700 LINE",
"510 700 LINE",
"510 673 LINE",
"532 673 LINE SMOOTH",
"564 673 OFFCURVE",
"586 662 OFFCURVE",
"586 637 CURVE SMOOTH",
"586 197 LINE SMOOTH",
"586 65 OFFCURVE",
"489 31 OFFCURVE",
"397 31 CURVE SMOOTH",
"290 31 OFFCURVE",
"203 63 OFFCURVE",
"203 197 CURVE SMOOTH",
"203 637 LINE SMOOTH",
"203 662 OFFCURVE",
"226 673 OFFCURVE",
"257 673 CURVE SMOOTH",
"280 673 LINE",
"280 700 LINE",
"28 700 LINE",
"28 673 LINE",
"51 673 LINE SMOOTH",
"82 673 OFFCURVE",
"105 662 OFFCURVE",
"105 637 CURVE SMOOTH",
"105 204 LINE SMOOTH",
"105 46 OFFCURVE",
"208 -10 OFFCURVE",
"375 -10 CURVE SMOOTH"
);
},
{
closed = 1;
nodes = (
"483 774 OFFCURVE",
"525 830 OFFCURVE",
"529 905 CURVE",
"496 905 LINE",
"490 846 OFFCURVE",
"448 820 OFFCURVE",
"384 820 CURVE SMOOTH",
"320 820 OFFCURVE",
"277 846 OFFCURVE",
"270 905 CURVE",
"237 905 LINE",
"241 827 OFFCURVE",
"283 774 OFFCURVE",
"384 774 CURVE SMOOTH"
);
}
);
};
components = (
{
name = U;
},
{
name = breve;
transform = "{1, 0, 0, 1, 148, 230}";
}
);
layerId = "0B1DFD06-3317-40CA-B510-4969A0718C16";
width = 742;
}
);
leftKerningGroup = U;
note = Ubreve;
rightKerningGroup = U;
unicode = 016C;
},
{
glyphname = Ucaron;
lastChange = "2017-12-19 05:21:12 +0000";
layers = (
{
background = {
paths = (
{
closed = 1;
nodes = (
"539 -10 OFFCURVE",
"636 51 OFFCURVE",
"636 204 CURVE SMOOTH",
"636 637 LINE SMOOTH",
"636 662 OFFCURVE",
"660 673 OFFCURVE",
"690 673 CURVE SMOOTH",
"713 673 LINE",
"713 700 LINE",
"510 700 LINE",
"510 673 LINE",
"532 673 LINE SMOOTH",
"564 673 OFFCURVE",
"586 662 OFFCURVE",
"586 637 CURVE SMOOTH",
"586 197 LINE SMOOTH",
"586 65 OFFCURVE",
"489 31 OFFCURVE",
"397 31 CURVE SMOOTH",
"290 31 OFFCURVE",
"203 63 OFFCURVE",
"203 197 CURVE SMOOTH",
"203 637 LINE SMOOTH",
"203 662 OFFCURVE",
"226 673 OFFCURVE",
"257 673 CURVE SMOOTH",
"280 673 LINE",
"280 700 LINE",
"28 700 LINE",
"28 673 LINE",
"51 673 LINE SMOOTH",
"82 673 OFFCURVE",
"105 662 OFFCURVE",
"105 637 CURVE SMOOTH",
"105 204 LINE SMOOTH",
"105 46 OFFCURVE",
"208 -10 OFFCURVE",
"375 -10 CURVE SMOOTH"
);
},
{
closed = 1;
nodes = (
"397 782 LINE",
"521 911 LINE",
"502 932 LINE",
"394 847 LINE",
"386 840 OFFCURVE",
"377 836 OFFCURVE",
"371 836 CURVE SMOOTH",
"365 836 OFFCURVE",
"357 840 OFFCURVE",
"347 847 CURVE",
"239 932 LINE",
"220 911 LINE",
"344 782 LINE"
);
}
);
};
components = (
{
name = U;
},
{
name = caron;
transform = "{1, 0, 0, 1, 148, 230}";
}
);
layerId = "0B1DFD06-3317-40CA-B510-4969A0718C16";
width = 742;
}
);
leftKerningGroup = U;
note = Ucaron;
rightKerningGroup = U;
unicode = 01D3;
},
{
glyphname = Ucircumflex;
lastChange = "2017-12-19 05:21:12 +0000";
layers = (
{
background = {
paths = (
{
closed = 1;
nodes = (
"539 -10 OFFCURVE",
"636 51 OFFCURVE",
"636 204 CURVE SMOOTH",
"636 637 LINE SMOOTH",
"636 662 OFFCURVE",
"660 673 OFFCURVE",
"690 673 CURVE SMOOTH",
"713 673 LINE",
"713 700 LINE",
"510 700 LINE",
"510 673 LINE",
"532 673 LINE SMOOTH",
"564 673 OFFCURVE",
"586 662 OFFCURVE",
"586 637 CURVE SMOOTH",
"586 197 LINE SMOOTH",
"586 65 OFFCURVE",
"489 31 OFFCURVE",
"397 31 CURVE SMOOTH",
"290 31 OFFCURVE",
"203 63 OFFCURVE",
"203 197 CURVE SMOOTH",
"203 637 LINE SMOOTH",
"203 662 OFFCURVE",
"226 673 OFFCURVE",
"257 673 CURVE SMOOTH",
"280 673 LINE",
"280 700 LINE",
"28 700 LINE",
"28 673 LINE",
"51 673 LINE SMOOTH",
"82 673 OFFCURVE",
"105 662 OFFCURVE",
"105 637 CURVE SMOOTH",
"105 204 LINE SMOOTH",
"105 46 OFFCURVE",
"208 -10 OFFCURVE",
"375 -10 CURVE SMOOTH"
);
},
{
closed = 1;
nodes = (
"360 868 LINE SMOOTH",
"368 874 OFFCURVE",
"378 879 OFFCURVE",
"384 879 CURVE SMOOTH",
"390 879 OFFCURVE",
"398 874 OFFCURVE",
"407 868 CURVE",
"515 782 LINE",
"534 803 LINE",
"410 932 LINE",
"357 932 LINE",
"233 803 LINE",
"252 782 LINE"
);
}
);
};
components = (
{
name = U;
},
{
name = circumflex;
transform = "{1, 0, 0, 1, 148, 230}";
}
);
layerId = "0B1DFD06-3317-40CA-B510-4969A0718C16";
width = 742;
}
);
leftKerningGroup = U;
note = Ucircumflex;
rightKerningGroup = U;
unicode = 00DB;
},
{
glyphname = Udieresis;
lastChange = "2017-12-19 05:21:12 +0000";
layers = (
{
background = {
paths = (
{
closed = 1;
nodes = (
"539 -10 OFFCURVE",
"636 51 OFFCURVE",
"636 204 CURVE SMOOTH",
"636 637 LINE SMOOTH",
"636 662 OFFCURVE",
"660 673 OFFCURVE",
"690 673 CURVE SMOOTH",
"713 673 LINE",
"713 700 LINE",
"510 700 LINE",
"510 673 LINE",
"532 673 LINE SMOOTH",
"564 673 OFFCURVE",
"586 662 OFFCURVE",
"586 637 CURVE SMOOTH",
"586 197 LINE SMOOTH",
"586 65 OFFCURVE",
"489 31 OFFCURVE",
"397 31 CURVE SMOOTH",
"290 31 OFFCURVE",
"203 63 OFFCURVE",
"203 197 CURVE SMOOTH",
"203 637 LINE SMOOTH",
"203 662 OFFCURVE",
"226 673 OFFCURVE",
"257 673 CURVE SMOOTH",
"280 673 LINE",
"280 700 LINE",
"28 700 LINE",
"28 673 LINE",
"51 673 LINE SMOOTH",
"82 673 OFFCURVE",
"105 662 OFFCURVE",
"105 637 CURVE SMOOTH",
"105 204 LINE SMOOTH",
"105 46 OFFCURVE",
"208 -10 OFFCURVE",
"375 -10 CURVE SMOOTH"
);
},
{
closed = 1;
nodes = (
"304 781 OFFCURVE",
"322 800 OFFCURVE",
"322 827 CURVE SMOOTH",
"322 855 OFFCURVE",
"304 875 OFFCURVE",
"275 875 CURVE SMOOTH",
"247 875 OFFCURVE",
"229 855 OFFCURVE",
"229 827 CURVE SMOOTH",
"229 800 OFFCURVE",
"247 781 OFFCURVE",
"275 781 CURVE SMOOTH"
);
},
{
closed = 1;
nodes = (
"520 781 OFFCURVE",
"538 800 OFFCURVE",
"538 827 CURVE SMOOTH",
"538 855 OFFCURVE",
"520 875 OFFCURVE",
"491 875 CURVE SMOOTH",
"462 875 OFFCURVE",
"444 855 OFFCURVE",
"444 827 CURVE SMOOTH",
"444 800 OFFCURVE",
"462 781 OFFCURVE",
"491 781 CURVE SMOOTH"
);
}
);
};
components = (
{
name = U;
},
{
name = dieresis;
transform = "{1, 0, 0, 1, 148, 230}";
}
);
layerId = "0B1DFD06-3317-40CA-B510-4969A0718C16";
width = 742;
}
);
leftKerningGroup = U;
note = Udieresis;
rightKerningGroup = U;
unicode = 00DC;
},
{
glyphname = Udieresisacute;
lastChange = "2017-12-19 05:21:12 +0000";
layers = (
{
background = {
paths = (
{
closed = 1;
nodes = (
"539 -10 OFFCURVE",
"636 51 OFFCURVE",
"636 204 CURVE SMOOTH",
"636 637 LINE SMOOTH",
"636 662 OFFCURVE",
"660 673 OFFCURVE",
"690 673 CURVE SMOOTH",
"713 673 LINE",
"713 700 LINE",
"510 700 LINE",
"510 673 LINE",
"532 673 LINE SMOOTH",
"564 673 OFFCURVE",
"586 662 OFFCURVE",
"586 637 CURVE SMOOTH",
"586 197 LINE SMOOTH",
"586 65 OFFCURVE",
"489 31 OFFCURVE",
"397 31 CURVE SMOOTH",
"290 31 OFFCURVE",
"203 63 OFFCURVE",
"203 197 CURVE SMOOTH",
"203 637 LINE SMOOTH",
"203 662 OFFCURVE",
"226 673 OFFCURVE",
"257 673 CURVE SMOOTH",
"280 673 LINE",
"280 700 LINE",
"28 700 LINE",
"28 673 LINE",
"51 673 LINE SMOOTH",
"82 673 OFFCURVE",
"105 662 OFFCURVE",
"105 637 CURVE SMOOTH",
"105 204 LINE SMOOTH",
"105 46 OFFCURVE",
"208 -10 OFFCURVE",
"375 -10 CURVE SMOOTH"
);
},
{
closed = 1;
nodes = (
"291 780 OFFCURVE",
"310 799 OFFCURVE",
"310 827 CURVE SMOOTH",
"310 855 OFFCURVE",
"291 875 OFFCURVE",
"262 875 CURVE SMOOTH",
"235 875 OFFCURVE",
"216 855 OFFCURVE",
"216 827 CURVE SMOOTH",
"216 799 OFFCURVE",
"235 780 OFFCURVE",
"262 780 CURVE SMOOTH"
);
},
{
closed = 1;
nodes = (
"507 780 OFFCURVE",
"526 799 OFFCURVE",
"526 827 CURVE SMOOTH",
"526 855 OFFCURVE",
"507 875 OFFCURVE",
"479 875 CURVE SMOOTH",
"451 875 OFFCURVE",
"432 855 OFFCURVE",
"432 827 CURVE SMOOTH",
"432 799 OFFCURVE",
"451 780 OFFCURVE",
"479 780 CURVE SMOOTH"
);
},
{
closed = 1;
nodes = (
"481 969 LINE SMOOTH",
"502 981 OFFCURVE",
"512 993 OFFCURVE",
"512 1009 CURVE SMOOTH",
"512 1024 OFFCURVE",
"503 1037 OFFCURVE",
"481 1037 CURVE SMOOTH",
"460 1037 OFFCURVE",
"442 1020 OFFCURVE",
"435 1013 CURVE SMOOTH",
"344 924 LINE",
"362 899 LINE"
);
}
);
};
components = (
{
name = U;
},
{
name = dieresisacute;
transform = "{1, 0, 0, 1, 149, 230}";
}
);
layerId = "0B1DFD06-3317-40CA-B510-4969A0718C16";
width = 742;
}
);
leftKerningGroup = U;
note = Udieresisacute;
rightKerningGroup = U;
unicode = 01D7;
},
{
glyphname = Udieresiscaron;
lastChange = "2017-12-19 05:21:12 +0000";
layers = (
{
background = {
paths = (
{
closed = 1;
nodes = (
"539 -10 OFFCURVE",
"636 51 OFFCURVE",
"636 204 CURVE SMOOTH",
"636 637 LINE SMOOTH",
"636 662 OFFCURVE",
"660 673 OFFCURVE",
"690 673 CURVE SMOOTH",
"713 673 LINE",
"713 700 LINE",
"510 700 LINE",
"510 673 LINE",
"532 673 LINE SMOOTH",
"564 673 OFFCURVE",
"586 662 OFFCURVE",
"586 637 CURVE SMOOTH",
"586 197 LINE SMOOTH",
"586 65 OFFCURVE",
"489 31 OFFCURVE",
"397 31 CURVE SMOOTH",
"290 31 OFFCURVE",
"203 63 OFFCURVE",
"203 197 CURVE SMOOTH",
"203 637 LINE SMOOTH",
"203 662 OFFCURVE",
"226 673 OFFCURVE",
"257 673 CURVE SMOOTH",
"280 673 LINE",
"280 700 LINE",
"28 700 LINE",
"28 673 LINE",
"51 673 LINE SMOOTH",
"82 673 OFFCURVE",
"105 662 OFFCURVE",
"105 637 CURVE SMOOTH",
"105 204 LINE SMOOTH",
"105 46 OFFCURVE",
"208 -10 OFFCURVE",
"375 -10 CURVE SMOOTH"
);
},
{
closed = 1;
nodes = (
"296 780 OFFCURVE",
"315 799 OFFCURVE",
"315 827 CURVE SMOOTH",
"315 855 OFFCURVE",
"296 875 OFFCURVE",
"267 875 CURVE SMOOTH",
"240 875 OFFCURVE",
"221 855 OFFCURVE",
"221 827 CURVE SMOOTH",
"221 799 OFFCURVE",
"240 780 OFFCURVE",
"267 780 CURVE SMOOTH"
);
},
{
closed = 1;
nodes = (
"512 780 OFFCURVE",
"531 799 OFFCURVE",
"531 827 CURVE SMOOTH",
"531 855 OFFCURVE",
"512 875 OFFCURVE",
"484 875 CURVE SMOOTH",
"456 875 OFFCURVE",
"437 855 OFFCURVE",
"437 827 CURVE SMOOTH",
"437 799 OFFCURVE",
"456 780 OFFCURVE",
"484 780 CURVE SMOOTH"
);
},
{
closed = 1;
nodes = (
"401 911 LINE",
"523 1035 LINE",
"505 1056 LINE",
"404 978 LINE",
"394 971 OFFCURVE",
"385 963 OFFCURVE",
"376 963 CURVE SMOOTH",
"369 963 OFFCURVE",
"357 971 OFFCURVE",
"347 978 CURVE",
"246 1056 LINE",
"228 1035 LINE",
"350 911 LINE"
);
}
);
};
components = (
{
name = U;
},
{
name = dieresiscaron;
transform = "{1, 0, 0, 1, 149, 230}";
}
);
layerId = "0B1DFD06-3317-40CA-B510-4969A0718C16";
width = 742;
}
);
leftKerningGroup = U;
note = Udieresiscaron;
rightKerningGroup = U;
unicode = 01D9;
},
{
glyphname = Udieresisgrave;
lastChange = "2017-12-19 05:21:12 +0000";
layers = (
{
background = {
paths = (
{
closed = 1;
nodes = (
"539 -10 OFFCURVE",
"636 51 OFFCURVE",
"636 204 CURVE SMOOTH",
"636 637 LINE SMOOTH",
"636 662 OFFCURVE",
"660 673 OFFCURVE",
"690 673 CURVE SMOOTH",
"713 673 LINE",
"713 700 LINE",
"510 700 LINE",
"510 673 LINE",
"532 673 LINE SMOOTH",
"564 673 OFFCURVE",
"586 662 OFFCURVE",
"586 637 CURVE SMOOTH",
"586 197 LINE SMOOTH",
"586 65 OFFCURVE",
"489 31 OFFCURVE",
"397 31 CURVE SMOOTH",
"290 31 OFFCURVE",
"203 63 OFFCURVE",
"203 197 CURVE SMOOTH",
"203 637 LINE SMOOTH",
"203 662 OFFCURVE",
"226 673 OFFCURVE",
"257 673 CURVE SMOOTH",
"280 673 LINE",
"280 700 LINE",
"28 700 LINE",
"28 673 LINE",
"51 673 LINE SMOOTH",
"82 673 OFFCURVE",
"105 662 OFFCURVE",
"105 637 CURVE SMOOTH",
"105 204 LINE SMOOTH",
"105 46 OFFCURVE",
"208 -10 OFFCURVE",
"375 -10 CURVE SMOOTH"
);
},
{
closed = 1;
nodes = (
"296 780 OFFCURVE",
"315 799 OFFCURVE",
"315 827 CURVE SMOOTH",
"315 855 OFFCURVE",
"296 875 OFFCURVE",
"267 875 CURVE SMOOTH",
"240 875 OFFCURVE",
"221 855 OFFCURVE",
"221 827 CURVE SMOOTH",
"221 799 OFFCURVE",
"240 780 OFFCURVE",
"267 780 CURVE SMOOTH"
);
},
{
closed = 1;
nodes = (
"403 924 LINE",
"312 1013 LINE SMOOTH",
"305 1020 OFFCURVE",
"288 1036 OFFCURVE",
"267 1036 CURVE SMOOTH",
"245 1036 OFFCURVE",
"235 1024 OFFCURVE",
"235 1009 CURVE SMOOTH",
"235 993 OFFCURVE",
"245 981 OFFCURVE",
"266 969 CURVE SMOOTH",
"385 899 LINE"
);
},
{
closed = 1;
nodes = (
"512 780 OFFCURVE",
"531 799 OFFCURVE",
"531 827 CURVE SMOOTH",
"531 855 OFFCURVE",
"512 875 OFFCURVE",
"484 875 CURVE SMOOTH",
"456 875 OFFCURVE",
"437 855 OFFCURVE",
"437 827 CURVE SMOOTH",
"437 799 OFFCURVE",
"456 780 OFFCURVE",
"484 780 CURVE SMOOTH"
);
}
);
};
components = (
{
name = U;
},
{
name = dieresisgrave;
transform = "{1, 0, 0, 1, 149, 230}";
}
);
layerId = "0B1DFD06-3317-40CA-B510-4969A0718C16";
width = 742;
}
);
leftKerningGroup = U;
note = Udieresisgrave;
rightKerningGroup = U;
unicode = 01DB;
},
{
glyphname = Udieresismacron;
lastChange = "2017-12-19 05:21:12 +0000";
layers = (
{
background = {
paths = (
{
closed = 1;
nodes = (
"539 -10 OFFCURVE",
"636 51 OFFCURVE",
"636 204 CURVE SMOOTH",
"636 637 LINE SMOOTH",
"636 662 OFFCURVE",
"660 673 OFFCURVE",
"690 673 CURVE SMOOTH",
"713 673 LINE",
"713 700 LINE",
"510 700 LINE",
"510 673 LINE",
"532 673 LINE SMOOTH",
"564 673 OFFCURVE",
"586 662 OFFCURVE",
"586 637 CURVE SMOOTH",
"586 197 LINE SMOOTH",
"586 65 OFFCURVE",
"489 31 OFFCURVE",
"397 31 CURVE SMOOTH",
"290 31 OFFCURVE",
"203 63 OFFCURVE",
"203 197 CURVE SMOOTH",
"203 637 LINE SMOOTH",
"203 662 OFFCURVE",
"226 673 OFFCURVE",
"257 673 CURVE SMOOTH",
"280 673 LINE",
"280 700 LINE",
"28 700 LINE",
"28 673 LINE",
"51 673 LINE SMOOTH",
"82 673 OFFCURVE",
"105 662 OFFCURVE",
"105 637 CURVE SMOOTH",
"105 204 LINE SMOOTH",
"105 46 OFFCURVE",
"208 -10 OFFCURVE",
"375 -10 CURVE SMOOTH"
);
},
{
closed = 1;
nodes = (
"291 781 OFFCURVE",
"309 800 OFFCURVE",
"309 827 CURVE SMOOTH",
"309 855 OFFCURVE",
"291 875 OFFCURVE",
"262 875 CURVE SMOOTH",
"234 875 OFFCURVE",
"216 855 OFFCURVE",
"216 827 CURVE SMOOTH",
"216 800 OFFCURVE",
"234 781 OFFCURVE",
"262 781 CURVE SMOOTH"
);
},
{
closed = 1;
nodes = (
"507 781 OFFCURVE",
"525 800 OFFCURVE",
"525 827 CURVE SMOOTH",
"525 855 OFFCURVE",
"507 875 OFFCURVE",
"478 875 CURVE SMOOTH",
"449 875 OFFCURVE",
"431 855 OFFCURVE",
"431 827 CURVE SMOOTH",
"431 800 OFFCURVE",
"449 781 OFFCURVE",
"478 781 CURVE SMOOTH"
);
},
{
closed = 1;
nodes = (
"537 928 LINE",
"537 970 LINE",
"204 970 LINE",
"204 928 LINE"
);
}
);
};
components = (
{
name = U;
},
{
name = dieresis;
transform = "{1, 0, 0, 1, 148, 230}";
},
{
alignment = -1;
name = macron;
transform = "{1, 0, 0, 1, 145, 356}";
}
);
layerId = "0B1DFD06-3317-40CA-B510-4969A0718C16";
width = 742;
}
);
leftKerningGroup = U;
note = Udieresismacron;
rightKerningGroup = U;
unicode = 01D5;
},
{
glyphname = Uhorn;
lastChange = "2017-12-19 05:48:22 +0000";
layers = (
{
layerId = "0B1DFD06-3317-40CA-B510-4969A0718C16";
paths = (
{
closed = 1;
nodes = (
"712 147 OFFCURVE",
"713 117 OFFCURVE",
"711 87 CURVE SMOOTH",
"710 70 OFFCURVE",
"707 49 OFFCURVE",
"705 26 CURVE",
"709 -15 OFFCURVE",
"754 -4 OFFCURVE",
"754 25 CURVE",
"747 709 LINE",
"770 716 OFFCURVE",
"791 727 OFFCURVE",
"811 741 CURVE",
"844 768 OFFCURVE",
"877 812 OFFCURVE",
"877 893 CURVE SMOOTH",
"877 939 OFFCURVE",
"827 940 OFFCURVE",
"832 907 CURVE",
"836 842 OFFCURVE",
"813 807 OFFCURVE",
"791 784 CURVE SMOOTH",
"778 771 OFFCURVE",
"762 762 OFFCURVE",
"743 756 CURVE",
"743 830 LINE SMOOTH",
"743 853 OFFCURVE",
"701 855 OFFCURVE",
"701 829 CURVE SMOOTH",
"703 374 LINE SMOOTH",
"703 224 OFFCURVE",
"675 49 OFFCURVE",
"445 45 CURVE SMOOTH",
"213 41 OFFCURVE",
"145 222 OFFCURVE",
"155 364 CURVE",
"164 817 LINE SMOOTH",
"164 839 OFFCURVE",
"122 846 OFFCURVE",
"122 819 CURVE",
"117 761 OFFCURVE",
"117 620 OFFCURVE",
"113 299 CURVE SMOOTH",
"113 181 OFFCURVE",
"189 3 OFFCURVE",
"439 5 CURVE SMOOTH",
"519 6 OFFCURVE",
"578 20 OFFCURVE",
"617 45 CURVE SMOOTH",
"656 71 OFFCURVE",
"683 104 OFFCURVE",
"700 145 CURVE"
);
}
);
width = 893;
}
);
note = Uhorn;
unicode = 01AF;
},
{
color = 0;
glyphname = "alpha-latin";
lastChange = "2017-12-19 05:24:05 +0000";
layers = (
{
layerId = "0B1DFD06-3317-40CA-B510-4969A0718C16";
paths = (
{
closed = 1;
nodes = (
"304 -10 OFFCURVE",
"357 10 OFFCURVE",
"393 69 CURVE",
"393 37 LINE SMOOTH",
"393 0 OFFCURVE",
"429 -10 OFFCURVE",
"461 -10 CURVE SMOOTH",
"491 -10 OFFCURVE",
"523 -1 OFFCURVE",
"545 17 CURVE",
"545 34 LINE",
"531 29 OFFCURVE",
"519 26 OFFCURVE",
"510 26 CURVE SMOOTH",
"494 26 OFFCURVE",
"486 36 OFFCURVE",
"486 58 CURVE SMOOTH",
"486 403 LINE",
"452 444 OFFCURVE",
"374 480 OFFCURVE",
"279 480 CURVE SMOOTH",
"141 480 OFFCURVE",
"26 405 OFFCURVE",
"26 215 CURVE SMOOTH",
"26 67 OFFCURVE",
"96 -10 OFFCURVE",
"234 -10 CURVE SMOOTH"
);
},
{
closed = 1;
nodes = (
"152 28 OFFCURVE",
"119 116 OFFCURVE",
"119 222 CURVE SMOOTH",
"119 370 OFFCURVE",
"183 441 OFFCURVE",
"279 441 CURVE SMOOTH",
"330 441 OFFCURVE",
"368 421 OFFCURVE",
"392 398 CURVE",
"392 169 LINE SMOOTH",
"392 98 OFFCURVE",
"346 28 OFFCURVE",
"255 28 CURVE SMOOTH"
);
}
);
width = 558;
}
);
leftKerningGroup = a;
note = ascript;
rightKerningGroup = a;
unicode = 0251;
},
{
glyphname = ae;
lastChange = "2017-12-19 05:48:47 +0000";
layers = (
{
layerId = "0B1DFD06-3317-40CA-B510-4969A0718C16";
paths = (
{
closed = 1;
nodes = (
"1012 315 LINE",
"1011 418 OFFCURVE",
"973 607 OFFCURVE",
"759 606 CURVE SMOOTH",
"655 606 OFFCURVE",
"556 541 OFFCURVE",
"498 437 CURVE",
"485 485 OFFCURVE",
"462 526 OFFCURVE",
"430 558 CURVE SMOOTH",
"398 590 OFFCURVE",
"351 606 OFFCURVE",
"289 606 CURVE SMOOTH",
"247 606 OFFCURVE",
"178 600 OFFCURVE",
"106 553 CURVE SMOOTH",
"97 547 OFFCURVE",
"95 541 OFFCURVE",
"100 533 CURVE SMOOTH",
"105 525 OFFCURVE",
"112 524 OFFCURVE",
"120 528 CURVE",
"164 558 OFFCURVE",
"229 575 OFFCURVE",
"289 575 CURVE SMOOTH",
"456 575 OFFCURVE",
"473 406 OFFCURVE",
"473 352 CURVE",
"195 361 OFFCURVE",
"73 269 OFFCURVE",
"73 146 CURVE SMOOTH",
"73 82 OFFCURVE",
"111 -3 OFFCURVE",
"244 -3 CURVE SMOOTH",
"355 -3 OFFCURVE",
"475 58 OFFCURVE",
"491 183 CURVE",
"536 69 OFFCURVE",
"622 -9 OFFCURVE",
"829 0 CURVE",
"860 -3 OFFCURVE",
"853 34 OFFCURVE",
"836 35 CURVE",
"634 17 OFFCURVE",
"507 109 OFFCURVE",
"503 319 CURVE"
);
},
{
closed = 1;
nodes = (
"942 578 OFFCURVE",
"983 412 OFFCURVE",
"985 341 CURVE",
"505 350 LINE",
"519 450 OFFCURVE",
"601 580 OFFCURVE",
"759 580 CURVE SMOOTH"
);
},
{
closed = 1;
nodes = (
"473 219 LINE SMOOTH",
"473 107 OFFCURVE",
"369 25 OFFCURVE",
"249 25 CURVE SMOOTH",
"209 25 OFFCURVE",
"175 37 OFFCURVE",
"146 60 CURVE SMOOTH",
"117 84 OFFCURVE",
"103 115 OFFCURVE",
"103 151 CURVE SMOOTH",
"103 305 OFFCURVE",
"315 325 OFFCURVE",
"473 320 CURVE"
);
}
);
width = 1046;
}
);
note = ae;
unicode = 00E6;
},
{
glyphname = eth;
lastChange = "2017-12-19 05:48:56 +0000";
layers = (
{
layerId = "0B1DFD06-3317-40CA-B510-4969A0718C16";
paths = (
{
closed = 1;
nodes = (
"665 410 OFFCURVE",
"644 486 OFFCURVE",
"611 560 CURVE",
"564 644 OFFCURVE",
"507 717 OFFCURVE",
"428 778 CURVE",
"568 841 LINE",
"543 895 LINE",
"377 814 LINE",
"322 854 OFFCURVE",
"260 885 OFFCURVE",
"195 912 CURVE",
"167 855 LINE",
"221 836 OFFCURVE",
"275 810 OFFCURVE",
"315 785 CURVE",
"150 706 LINE",
"171 656 LINE",
"238 687 OFFCURVE",
"302 718 OFFCURVE",
"369 749 CURVE",
"451 685 OFFCURVE",
"508 621 OFFCURVE",
"555 547 CURVE",
"488 604 OFFCURVE",
"426 618 OFFCURVE",
"359 618 CURVE SMOOTH",
"207 618 OFFCURVE",
"54 491 OFFCURVE",
"54 292 CURVE SMOOTH",
"54 117 OFFCURVE",
"176 -15 OFFCURVE",
"354 -15 CURVE SMOOTH",
"502 -15 OFFCURVE",
"665 82 OFFCURVE",
"665 317 CURVE SMOOTH"
);
},
{
closed = 1;
nodes = (
"595 133 OFFCURVE",
"486 42 OFFCURVE",
"352 42 CURVE SMOOTH",
"235 42 OFFCURVE",
"118 132 OFFCURVE",
"118 294 CURVE SMOOTH",
"118 418 OFFCURVE",
"192 560 OFFCURVE",
"359 560 CURVE SMOOTH",
"440 560 OFFCURVE",
"496 523 OFFCURVE",
"536 491 CURVE",
"574 451 OFFCURVE",
"595 396 OFFCURVE",
"595 308 CURVE SMOOTH"
);
}
);
width = 724;
}
);
note = eth;
unicode = 00F0;
},
{
color = 0;
glyphname = dcaron;
lastChange = "2017-12-19 05:24:30 +0000";
layers = (
{
layerId = "0B1DFD06-3317-40CA-B510-4969A0718C16";
paths = (
{
closed = 1;
nodes = (
"321 -10 OFFCURVE",
"381 14 OFFCURVE",
"417 74 CURVE",
"422 -4 LINE",
"564 11 LINE",
"564 34 LINE",
"541 34 LINE SMOOTH",
"513 34 OFFCURVE",
"499 44 OFFCURVE",
"499 69 CURVE SMOOTH",
"499 717 LINE",
"474 717 LINE",
"349 672 LINE",
"355 649 LINE",
"365 653 OFFCURVE",
"377 657 OFFCURVE",
"385 657 CURVE SMOOTH",
"394 657 OFFCURVE",
"405 654 OFFCURVE",
"405 636 CURVE SMOOTH",
"405 410 LINE",
"363 467 OFFCURVE",
"298 480 OFFCURVE",
"242 480 CURVE SMOOTH",
"123 480 OFFCURVE",
"31 401 OFFCURVE",
"31 245 CURVE SMOOTH",
"31 60 OFFCURVE",
"118 -10 OFFCURVE",
"243 -10 CURVE SMOOTH"
);
},
{
closed = 1;
nodes = (
"160 28 OFFCURVE",
"124 120 OFFCURVE",
"124 242 CURVE SMOOTH",
"124 372 OFFCURVE",
"176 440 OFFCURVE",
"275 440 CURVE SMOOTH",
"337 440 OFFCURVE",
"406 392 OFFCURVE",
"406 320 CURVE SMOOTH",
"406 168 LINE SMOOTH",
"406 97 OFFCURVE",
"357 28 OFFCURVE",
"269 28 CURVE SMOOTH"
);
},
{
closed = 1;
nodes = (
"630 523 OFFCURVE",
"674 583 OFFCURVE",
"674 646 CURVE SMOOTH",
"674 694 OFFCURVE",
"650 714 OFFCURVE",
"621 714 CURVE SMOOTH",
"592 714 OFFCURVE",
"575 694 OFFCURVE",
"575 670 CURVE SMOOTH",
"575 636 OFFCURVE",
"610 629 OFFCURVE",
"610 594 CURVE SMOOTH",
"610 558 OFFCURVE",
"584 525 OFFCURVE",
"557 499 CURVE",
"574 482 LINE"
);
}
);
width = 686;
}
);
leftKerningGroup = d;
note = dcaron;
unicode = 010F;
},
{
glyphname = dcroat;
lastChange = "2017-12-19 05:48:56 +0000";
layers = (
{
layerId = "0B1DFD06-3317-40CA-B510-4969A0718C16";
paths = (
{
closed = 1;
nodes = (
"570 635 LINE",
"564 520 OFFCURVE",
"564 473 OFFCURVE",
"564 455 CURVE SMOOTH",
"564 444 OFFCURVE",
"564 442 OFFCURVE",
"564 442 CURVE",
"500 516 OFFCURVE",
"424 520 OFFCURVE",
"362 520 CURVE SMOOTH",
"236 520 OFFCURVE",
"115 437 OFFCURVE",
"115 255 CURVE SMOOTH",
"115 57 OFFCURVE",
"274 5 OFFCURVE",
"359 5 CURVE SMOOTH",
"422 5 OFFCURVE",
"501 31 OFFCURVE",
"575 98 CURVE",
"586 30 LINE",
"594 20 OFFCURVE",
"604 14 OFFCURVE",
"613 14 CURVE SMOOTH",
"623 14 OFFCURVE",
"631 21 OFFCURVE",
"631 30 CURVE SMOOTH",
"631 39 OFFCURVE",
"624 48 OFFCURVE",
"622 60 CURVE",
"608 122 OFFCURVE",
"605 216 OFFCURVE",
"605 372 CURVE SMOOTH",
"605 444 OFFCURVE",
"608 531 OFFCURVE",
"613 636 CURVE",
"687 636 LINE SMOOTH",
"700 636 OFFCURVE",
"708 645 OFFCURVE",
"708 655 CURVE SMOOTH",
"708 666 OFFCURVE",
"700 675 OFFCURVE",
"687 675 CURVE SMOOTH",
"614 675 LINE",
"618 728 OFFCURVE",
"618 691 OFFCURVE",
"621 751 CURVE",
"619 762 OFFCURVE",
"610 767 OFFCURVE",
"602 767 CURVE SMOOTH",
"591 767 OFFCURVE",
"580 760 OFFCURVE",
"580 748 CURVE",
"572 677 OFFCURVE",
"576 719 OFFCURVE",
"572 673 CURVE",
"461 669 LINE",
"447 669 OFFCURVE",
"439 660 OFFCURVE",
"439 651 CURVE SMOOTH",
"439 641 OFFCURVE",
"447 631 OFFCURVE",
"461 632 CURVE SMOOTH"
);
},
{
closed = 1;
nodes = (
"574 201 LINE",
"572 100 OFFCURVE",
"457 41 OFFCURVE",
"366 41 CURVE SMOOTH",
"301 41 OFFCURVE",
"150 88 OFFCURVE",
"150 255 CURVE SMOOTH",
"150 410 OFFCURVE",
"258 482 OFFCURVE",
"371 482 CURVE SMOOTH",
"439 482 OFFCURVE",
"527 445 OFFCURVE",
"565 377 CURVE",
"568 325 OFFCURVE",
"568 280 OFFCURVE",
"570 249 CURVE SMOOTH"
);
}
);
width = 768;
}
);
note = dslash;
unicode = 0111;
},
{
color = 0;
glyphname = schwa;
lastChange = "2017-12-19 05:24:34 +0000";
layers = (
{
layerId = "0B1DFD06-3317-40CA-B510-4969A0718C16";
paths = (
{
closed = 1;
nodes = (
"396 -10 OFFCURVE",
"487 83 OFFCURVE",
"487 236 CURVE SMOOTH",
"487 393 OFFCURVE",
"392 480 OFFCURVE",
"246 480 CURVE SMOOTH",
"112 480 OFFCURVE",
"47 407 OFFCURVE",
"36 303 CURVE",
"65 303 LINE",
"83 407 OFFCURVE",
"154 444 OFFCURVE",
"225 444 CURVE SMOOTH",
"331 444 OFFCURVE",
"392 360 OFFCURVE",
"392 234 CURVE SMOOTH",
"392 121 OFFCURVE",
"343 28 OFFCURVE",
"242 28 CURVE SMOOTH",
"147 28 OFFCURVE",
"117 112 OFFCURVE",
"115 173 CURVE",
"403 173 LINE",
"403 212 LINE",
"32 212 LINE",
"32 189 LINE SMOOTH",
"32 77 OFFCURVE",
"100 -10 OFFCURVE",
"246 -10 CURVE SMOOTH"
);
}
);
width = 521;
}
);
note = schwa;
unicode = 0259;
},
{
color = 0;
glyphname = hbar;
lastChange = "2017-12-19 05:24:39 +0000";
layers = (
{
layerId = "0B1DFD06-3317-40CA-B510-4969A0718C16";
paths = (
{
closed = 1;
nodes = (
"600 0 LINE",
"600 25 LINE",
"582 25 LINE SMOOTH",
"552 25 OFFCURVE",
"528 34 OFFCURVE",
"528 57 CURVE SMOOTH",
"528 344 LINE SMOOTH",
"528 424 OFFCURVE",
"471 480 OFFCURVE",
"357 480 CURVE SMOOTH",
"265 480 OFFCURVE",
"194 424 OFFCURVE",
"178 373 CURVE",
"178 285 LINE",
"188 285 LINE",
"188 389 OFFCURVE",
"264 439 OFFCURVE",
"330 439 CURVE SMOOTH",
"396 439 OFFCURVE",
"434 404 OFFCURVE",
"434 332 CURVE SMOOTH",
"434 57 LINE SMOOTH",
"434 34 OFFCURVE",
"411 25 OFFCURVE",
"383 25 CURVE SMOOTH",
"367 25 LINE",
"367 0 LINE"
);
},
{
closed = 1;
nodes = (
"255 0 LINE",
"255 25 LINE",
"240 25 LINE SMOOTH",
"212 25 OFFCURVE",
"188 34 OFFCURVE",
"188 57 CURVE SMOOTH",
"188 717 LINE",
"163 717 LINE",
"37 672 LINE",
"44 649 LINE",
"54 653 OFFCURVE",
"66 657 OFFCURVE",
"73 657 CURVE SMOOTH",
"83 657 OFFCURVE",
"94 654 OFFCURVE",
"94 636 CURVE SMOOTH",
"94 57 LINE SMOOTH",
"94 34 OFFCURVE",
"71 25 OFFCURVE",
"41 25 CURVE SMOOTH",
"22 25 LINE",
"22 0 LINE"
);
},
{
closed = 1;
nodes = (
"339 559 LINE",
"339 594 LINE",
"40 594 LINE",
"40 559 LINE"
);
}
);
width = 622;
}
);
note = hbar;
rightKerningGroup = h;
unicode = 0127;
},
{
glyphname = idotless;
lastChange = "2017-12-19 05:49:06 +0000";
layers = (
{
layerId = "0B1DFD06-3317-40CA-B510-4969A0718C16";
paths = (
{
closed = 1;
nodes = (
"155 576 LINE",
"155 604 OFFCURVE",
"110 604 OFFCURVE",
"110 576 CURVE SMOOTH",
"115 40 LINE",
"119 14 OFFCURVE",
"157 8 OFFCURVE",
"162 40 CURVE"
);
}
);
width = 282;
}
);
note = dotlessi;
unicode = 0131;
},
{
color = 0;
glyphname = ij;
lastChange = "2017-12-19 05:24:49 +0000";
layers = (
{
layerId = "0B1DFD06-3317-40CA-B510-4969A0718C16";
paths = (
{
closed = 1;
nodes = (
"472 -107 OFFCURVE",
"516 -25 OFFCURVE",
"516 102 CURVE SMOOTH",
"516 473 LINE",
"491 473 LINE",
"365 428 LINE",
"372 406 LINE",
"383 410 OFFCURVE",
"394 414 OFFCURVE",
"402 414 CURVE SMOOTH",
"411 414 OFFCURVE",
"423 410 OFFCURVE",
"423 393 CURVE SMOOTH",
"423 97 LINE SMOOTH",
"423 -4 OFFCURVE",
"418 -72 OFFCURVE",
"326 -110 CURVE",
"331 -132 LINE"
);
},
{
closed = 1;
nodes = (
"265 0 LINE",
"265 25 LINE",
"246 25 LINE SMOOTH",
"217 25 OFFCURVE",
"193 34 OFFCURVE",
"193 57 CURVE SMOOTH",
"193 475 LINE",
"168 475 LINE",
"42 431 LINE",
"49 408 LINE",
"59 411 OFFCURVE",
"71 416 OFFCURVE",
"78 416 CURVE SMOOTH",
"88 416 OFFCURVE",
"99 412 OFFCURVE",
"99 394 CURVE SMOOTH",
"99 57 LINE SMOOTH",
"99 34 OFFCURVE",
"76 25 OFFCURVE",
"46 25 CURVE SMOOTH",
"27 25 LINE",
"27 0 LINE"
);
},
{
closed = 1;
nodes = (
"171 561 OFFCURVE",
"194 584 OFFCURVE",
"194 616 CURVE SMOOTH",
"194 649 OFFCURVE",
"171 671 OFFCURVE",
"138 671 CURVE SMOOTH",
"103 671 OFFCURVE",
"81 649 OFFCURVE",
"81 616 CURVE SMOOTH",
"81 584 OFFCURVE",
"103 561 OFFCURVE",
"138 561 CURVE SMOOTH"
);
},
{
closed = 1;
nodes = (
"499 561 OFFCURVE",
"522 584 OFFCURVE",
"522 616 CURVE SMOOTH",
"522 649 OFFCURVE",
"499 671 OFFCURVE",
"465 671 CURVE SMOOTH",
"431 671 OFFCURVE",
"409 649 OFFCURVE",
"409 616 CURVE SMOOTH",
"409 584 OFFCURVE",
"431 561 OFFCURVE",
"465 561 CURVE SMOOTH"
);
}
);
width = 598;
}
);
note = ij;
unicode = 0133;
},
{
color = 0;
glyphname = jdotless;
lastChange = "2017-12-19 05:24:51 +0000";
layers = (
{
anchors = (
{
name = bottom;
position = "{151, 0}";
},
{
name = top;
position = "{151, 470}";
}
);
layerId = "0B1DFD06-3317-40CA-B510-4969A0718C16";
paths = (
{
closed = 1;
nodes = (
"176 -107 OFFCURVE",
"220 -25 OFFCURVE",
"220 102 CURVE SMOOTH",
"220 473 LINE",
"195 473 LINE",
"69 428 LINE",
"76 406 LINE",
"86 410 OFFCURVE",
"98 414 OFFCURVE",
"106 414 CURVE SMOOTH",
"115 414 OFFCURVE",
"126 410 OFFCURVE",
"126 393 CURVE SMOOTH",
"126 97 LINE SMOOTH",
"126 -3 OFFCURVE",
"123 -71 OFFCURVE",
"31 -110 CURVE",
"35 -132 LINE"
);
}
);
width = 302;
}
);
leftKerningGroup = j;
note = dotlessj;
unicode = 0237;
},
{
color = 0;
glyphname = kgreenlandic;
lastChange = "2017-12-19 05:24:51 +0000";
layers = (
{
layerId = "0B1DFD06-3317-40CA-B510-4969A0718C16";
paths = (
{
closed = 1;
nodes = (
"257 0 LINE",
"257 25 LINE",
"240 25 LINE SMOOTH",
"211 25 OFFCURVE",
"187 35 OFFCURVE",
"187 57 CURVE SMOOTH",
"187 487 LINE",
"162 487 LINE",
"36 442 LINE",
"43 419 LINE",
"54 423 OFFCURVE",
"65 427 OFFCURVE",
"73 427 CURVE SMOOTH",
"82 427 OFFCURVE",
"94 424 OFFCURVE",
"94 406 CURVE SMOOTH",
"94 57 LINE SMOOTH",
"94 34 OFFCURVE",
"70 25 OFFCURVE",
"40 25 CURVE SMOOTH",
"21 25 LINE",
"21 0 LINE"
);
},
{
closed = 1;
nodes = (
"577 0 LINE",
"577 25 LINE",
"550 25 LINE SMOOTH",
"530 25 OFFCURVE",
"496 35 OFFCURVE",
"475 55 CURVE SMOOTH",
"247 266 LINE",
"185 217 LINE",
"421 0 LINE"
);
},
{
closed = 1;
nodes = (
"446 417 LINE SMOOTH",
"463 432 OFFCURVE",
"488 444 OFFCURVE",
"506 444 CURVE SMOOTH",
"528 444 LINE",
"528 470 LINE",
"332 470 LINE",
"332 444 LINE",
"354 444 LINE SMOOTH",
"380 444 OFFCURVE",
"401 428 OFFCURVE",
"380 411 CURVE SMOOTH",
"155 225 LINE",
"155 173 LINE"
);
}
);
width = 591;
}
);
note = kgreenlandic;
rightKerningGroup = k;
unicode = 0138;
},
{
glyphname = lslash;
lastChange = "2017-12-19 05:49:46 +0000";
layers = (
{
layerId = "0B1DFD06-3317-40CA-B510-4969A0718C16";
paths = (
{
closed = 1;
nodes = (
"35 407 LINE",
"9 394 OFFCURVE",
"29 337 OFFCURVE",
"56 359 CURVE SMOOTH",
"122 407 LINE",
"116 23 LINE SMOOTH",
"116 14 OFFCURVE",
"123 8 OFFCURVE",
"136 6 CURVE SMOOTH",
"150 4 OFFCURVE",
"158 11 OFFCURVE",
"162 26 CURVE",
"164 439 LINE",
"256 528 LINE",
"287 569 OFFCURVE",
"249 586 OFFCURVE",
"230 568 CURVE",
"162 500 LINE",
"162 872 LINE SMOOTH",
"162 906 OFFCURVE",
"110 903 OFFCURVE",
"115 874 CURVE",
"113 465 LINE"
);
}
);
width = 282;
}
);
note = lslash;
unicode = 0142;
},
{
color = 0;
glyphname = eng;
lastChange = "2017-12-19 05:24:55 +0000";
layers = (
{
layerId = "0B1DFD06-3317-40CA-B510-4969A0718C16";
paths = (
{
closed = 1;
nodes = (
"478 -215 OFFCURVE",
"529 -140 OFFCURVE",
"529 -17 CURVE SMOOTH",
"529 344 LINE SMOOTH",
"529 424 OFFCURVE",
"472 480 OFFCURVE",
"358 480 CURVE SMOOTH",
"266 480 OFFCURVE",
"195 424 OFFCURVE",
"178 373 CURVE",
"178 285 LINE",
"188 285 LINE",
"188 389 OFFCURVE",
"264 439 OFFCURVE",
"331 439 CURVE SMOOTH",
"395 439 OFFCURVE",
"435 404 OFFCURVE",
"435 332 CURVE SMOOTH",
"435 -58 LINE SMOOTH",
"435 -128 OFFCURVE",
"413 -186 OFFCURVE",
"339 -215 CURVE",
"344 -238 LINE"
);
},
{
closed = 1;
nodes = (
"255 0 LINE",
"255 25 LINE",
"240 25 LINE SMOOTH",
"205 25 OFFCURVE",
"188 37 OFFCURVE",
"188 66 CURVE SMOOTH",
"188 473 LINE",
"166 473 LINE",
"38 428 LINE",
"44 406 LINE",
"54 410 OFFCURVE",
"66 414 OFFCURVE",
"74 414 CURVE SMOOTH",
"83 414 OFFCURVE",
"94 410 OFFCURVE",
"94 393 CURVE SMOOTH",
"94 66 LINE SMOOTH",
"94 37 OFFCURVE",
"77 25 OFFCURVE",
"41 25 CURVE SMOOTH",
"22 25 LINE",
"22 0 LINE"
);
}
);
width = 609;
}
);
leftKerningGroup = m;
note = eng;
rightKerningGroup = m;
unicode = 014B;
},
{
glyphname = ohorn;
lastChange = "2017-12-19 05:49:58 +0000";
layers = (
{
layerId = "0B1DFD06-3317-40CA-B510-4969A0718C16";
paths = (
{
closed = 1;
nodes = (
"683 380 OFFCURVE",
"653 460 OFFCURVE",
"604 515 CURVE",
"690 548 OFFCURVE",
"703 650 OFFCURVE",
"703 694 CURVE",
"702 704 OFFCURVE",
"694 708 OFFCURVE",
"682 707 CURVE SMOOTH",
"669 706 OFFCURVE",
"664 702 OFFCURVE",
"666 693 CURVE",
"657 636 OFFCURVE",
"649 569 OFFCURVE",
"575 541 CURVE",
"519 595 OFFCURVE",
"450 613 OFFCURVE",
"366 613 CURVE SMOOTH",
"193 613 OFFCURVE",
"66 489 OFFCURVE",
"66 287 CURVE SMOOTH",
"66 93 OFFCURVE",
"224 -1 OFFCURVE",
"355 -5 CURVE SMOOTH",
"514 -9 OFFCURVE",
"672 91 OFFCURVE",
"681 289 CURVE SMOOTH"
);
},
{
closed = 1;
nodes = (
"624 113 OFFCURVE",
"493 37 OFFCURVE",
"367 37 CURVE SMOOTH",
"269 37 OFFCURVE",
"115 108 OFFCURVE",
"115 287 CURVE SMOOTH",
"115 476 OFFCURVE",
"232 570 OFFCURVE",
"366 570 CURVE SMOOTH",
"439 570 OFFCURVE",
"502 547 OFFCURVE",
"552 500 CURVE SMOOTH",
"602 452 OFFCURVE",
"629 382 OFFCURVE",
"633 289 CURVE"
);
}
);
width = 741;
}
);
note = ohorn;
unicode = 01A1;
},
{
glyphname = oslash;
lastChange = "2017-12-19 05:50:08 +0000";
layers = (
{
layerId = "0B1DFD06-3317-40CA-B510-4969A0718C16";
paths = (
{
closed = 1;
nodes = (
"545 552 LINE",
"491 592 OFFCURVE",
"425 613 OFFCURVE",
"354 613 CURVE SMOOTH",
"181 613 OFFCURVE",
"65 483 OFFCURVE",
"65 279 CURVE SMOOTH",
"65 186 OFFCURVE",
"101 120 OFFCURVE",
"150 73 CURVE",
"106 21 LINE",
"88 -4 OFFCURVE",
"122 -31 OFFCURVE",
"141 -7 CURVE SMOOTH",
"183 45 LINE",
"234 11 OFFCURVE",
"293 -3 OFFCURVE",
"352 -3 CURVE SMOOTH",
"505 -3 OFFCURVE",
"666 77 OFFCURVE",
"670 281 CURVE",
"676 383 OFFCURVE",
"636 464 OFFCURVE",
"578 522 CURVE",
"623 576 LINE SMOOTH",
"642 600 OFFCURVE",
"606 627 OFFCURVE",
"588 604 CURVE SMOOTH"
);
},
{
closed = 1;
nodes = (
"106 378 OFFCURVE",
"130 453 OFFCURVE",
"177 502 CURVE SMOOTH",
"224 550 OFFCURVE",
"283 575 OFFCURVE",
"354 576 CURVE SMOOTH",
"421 579 OFFCURVE",
"477 561 OFFCURVE",
"522 524 CURVE",
"173 101 LINE",
"133 141 OFFCURVE",
"106 197 OFFCURVE",
"106 279 CURVE SMOOTH"
);
},
{
closed = 1;
nodes = (
"621 88 OFFCURVE",
"475 35 OFFCURVE",
"355 35 CURVE SMOOTH",
"309 35 OFFCURVE",
"254 43 OFFCURVE",
"207 73 CURVE",
"555 495 LINE",
"602 444 OFFCURVE",
"630 373 OFFCURVE",
"630 281 CURVE"
);
}
);
width = 741;
}
);
note = oslash;
unicode = 00F8;
},
{
glyphname = oe;
lastChange = "2017-12-19 05:50:22 +0000";
layers = (
{
layerId = "0B1DFD06-3317-40CA-B510-4969A0718C16";
paths = (
{
closed = 1;
nodes = (
"829 313 OFFCURVE",
"1016 315 OFFCURVE",
"1149 315 CURVE",
"1181 311 OFFCURVE",
"1191 335 OFFCURVE",
"1191 388 CURVE SMOOTH",
"1191 486 OFFCURVE",
"1084 615 OFFCURVE",
"912 615 CURVE SMOOTH",
"782 615 OFFCURVE",
"694 547 OFFCURVE",
"648 455 CURVE",
"630 414 LINE",
"629 422 OFFCURVE",
"626 428 OFFCURVE",
"623 434 CURVE",
"575 556 OFFCURVE",
"466 616 OFFCURVE",
"349 616 CURVE SMOOTH",
"148 616 OFFCURVE",
"43 490 OFFCURVE",
"43 282 CURVE SMOOTH",
"43 64 OFFCURVE",
"214 -2 OFFCURVE",
"339 -2 CURVE SMOOTH",
"469 -2 OFFCURVE",
"577 46 OFFCURVE",
"625 156 CURVE SMOOTH",
"628 165 OFFCURVE",
"631 173 OFFCURVE",
"633 181 CURVE",
"644 158 LINE SMOOTH",
"666 113 OFFCURVE",
"700 75 OFFCURVE",
"744 45 CURVE SMOOTH",
"789 15 OFFCURVE",
"846 0 OFFCURVE",
"915 0 CURVE SMOOTH",
"1014 0 OFFCURVE",
"1120 55 OFFCURVE",
"1166 139 CURVE",
"1189 176 OFFCURVE",
"1148 207 OFFCURVE",
"1130 184 CURVE",
"1108 139 OFFCURVE",
"1077 105 OFFCURVE",
"1035 84 CURVE SMOOTH",
"994 63 OFFCURVE",
"954 52 OFFCURVE",
"915 52 CURVE SMOOTH",
"731 52 OFFCURVE",
"664 168 OFFCURVE",
"668 299 CURVE"
);
},
{
closed = 1;
nodes = (
"599 108 OFFCURVE",
"485 50 OFFCURVE",
"339 50 CURVE SMOOTH",
"228 50 OFFCURVE",
"94 102 OFFCURVE",
"94 282 CURVE SMOOTH",
"94 479 OFFCURVE",
"185 571 OFFCURVE",
"349 571 CURVE SMOOTH",
"473 571 OFFCURVE",
"599 481 OFFCURVE",
"599 279 CURVE SMOOTH"
);
},
{
closed = 1;
nodes = (
"679 414 OFFCURVE",
"706 465 OFFCURVE",
"749 505 CURVE SMOOTH",
"792 545 OFFCURVE",
"847 564 OFFCURVE",
"910 564 CURVE SMOOTH",
"1087 562 OFFCURVE",
"1148 423 OFFCURVE",
"1146 367 CURVE SMOOTH",
"1146 354 OFFCURVE",
"761 359 OFFCURVE",
"668 352 CURVE"
);
}
);
width = 1198;
}
);
note = oe;
unicode = 0153;
},
{
glyphname = thorn;
lastChange = "2017-12-19 05:50:22 +0000";
layers = (
{
layerId = "0B1DFD06-3317-40CA-B510-4969A0718C16";
paths = (
{
closed = 1;
nodes = (
"242 528 OFFCURVE",
"302 543 OFFCURVE",
"364 543 CURVE SMOOTH",
"519 543 OFFCURVE",
"653 441 OFFCURVE",
"653 303 CURVE SMOOTH",
"653 147 OFFCURVE",
"530 54 OFFCURVE",
"385 54 CURVE SMOOTH",
"325 54 OFFCURVE",
"261 70 OFFCURVE",
"198 103 CURVE",
"189 230 OFFCURVE",
"189 398 OFFCURVE",
"184 493 CURVE"
);
},
{
closed = 1;
nodes = (
"184 629 OFFCURVE",
"183 717 OFFCURVE",
"179 811 CURVE",
"179 824 OFFCURVE",
"171 831 OFFCURVE",
"162 831 CURVE SMOOTH",
"151 831 OFFCURVE",
"139 821 OFFCURVE",
"139 797 CURVE SMOOTH",
"145 517 LINE",
"118 508 OFFCURVE",
"102 487 OFFCURVE",
"102 479 CURVE SMOOTH",
"102 468 OFFCURVE",
"111 448 OFFCURVE",
"146 470 CURVE",
"146 353 OFFCURVE",
"151 239 OFFCURVE",
"151 88 CURVE SMOOTH",
"151 0 OFFCURVE",
"145 -100 OFFCURVE",
"145 -220 CURVE SMOOTH",
"145 -235 OFFCURVE",
"153 -241 OFFCURVE",
"163 -241 CURVE SMOOTH",
"178 -241 OFFCURVE",
"193 -231 OFFCURVE",
"193 -218 CURVE SMOOTH",
"196 56 LINE",
"262 27 OFFCURVE",
"329 13 OFFCURVE",
"393 13 CURVE SMOOTH",
"555 13 OFFCURVE",
"691 107 OFFCURVE",
"693 296 CURVE SMOOTH",
"693 490 OFFCURVE",
"533 587 OFFCURVE",
"369 587 CURVE SMOOTH",
"301 587 OFFCURVE",
"241 573 OFFCURVE",
"184 541 CURVE"
);
}
);
width = 768;
}
);
note = thorn;
unicode = 00FE;
},
{
glyphname = germandbls;
lastChange = "2017-12-19 05:50:32 +0000";
layers = (
{
layerId = "0B1DFD06-3317-40CA-B510-4969A0718C16";
paths = (
{
closed = 1;
nodes = (
"615 218 OFFCURVE",
"604 250 OFFCURVE",
"585 276 CURVE SMOOTH",
"565 303 OFFCURVE",
"544 326 OFFCURVE",
"521 349 CURVE SMOOTH",
"498 372 OFFCURVE",
"478 394 OFFCURVE",
"458 417 CURVE",
"439 439 OFFCURVE",
"430 466 OFFCURVE",
"430 496 CURVE SMOOTH",
"430 548 OFFCURVE",
"464 587 OFFCURVE",
"533 613 CURVE",
"609 735 OFFCURVE",
"521 897 OFFCURVE",
"366 895 CURVE SMOOTH",
"184 893 OFFCURVE",
"125 755 OFFCURVE",
"122 583 CURVE SMOOTH",
"123 -96 LINE SMOOTH",
"123 -156 OFFCURVE",
"107 -210 OFFCURVE",
"96 -235 CURVE",
"92 -242 OFFCURVE",
"94 -248 OFFCURVE",
"104 -252 CURVE SMOOTH",
"113 -257 OFFCURVE",
"122 -255 OFFCURVE",
"128 -246 CURVE",
"139 -222 OFFCURVE",
"155 -165 OFFCURVE",
"155 -96 CURVE SMOOTH",
"156 583 LINE SMOOTH",
"161 780 OFFCURVE",
"236 865 OFFCURVE",
"362 865 CURVE SMOOTH",
"478 865 OFFCURVE",
"564 750 OFFCURVE",
"517 636 CURVE",
"445 603 OFFCURVE",
"399 552 OFFCURVE",
"399 496 CURVE SMOOTH",
"399 443 OFFCURVE",
"436 392 OFFCURVE",
"500 334 CURVE",
"558 286 OFFCURVE",
"585 238 OFFCURVE",
"585 171 CURVE SMOOTH",
"585 92 OFFCURVE",
"531 30 OFFCURVE",
"420 30 CURVE SMOOTH",
"380 30 OFFCURVE",
"339 40 OFFCURVE",
"296 60 CURVE",
"289 62 OFFCURVE",
"284 58 OFFCURVE",
"281 48 CURVE SMOOTH",
"277 39 OFFCURVE",
"280 32 OFFCURVE",
"287 26 CURVE",
"327 7 OFFCURVE",
"374 0 OFFCURVE",
"418 0 CURVE SMOOTH",
"483 0 OFFCURVE",
"532 18 OFFCURVE",
"565 53 CURVE SMOOTH",
"599 88 OFFCURVE",
"616 131 OFFCURVE",
"616 181 CURVE"
);
}
);
width = 700;
}
);
note = uni00DF;
unicode = 00DF;
},
{
glyphname = tbar;
lastChange = "2017-12-19 05:21:12 +0000";
layers = (
{
components = (
{
name = t;
}
);
layerId = "0B1DFD06-3317-40CA-B510-4969A0718C16";
paths = (
{
closed = 1;
nodes = (
"321 260 LINE",
"321 297 LINE",
"33 297 LINE",
"33 260 LINE"
);
}
);
width = 397;
}
);
leftKerningGroup = t;
note = tbar;
rightKerningGroup = t;
unicode = 0167;
},
{
glyphname = uhorn;
lastChange = "2017-12-19 05:50:58 +0000";
layers = (
{
layerId = "0B1DFD06-3317-40CA-B510-4969A0718C16";
paths = (
{
closed = 1;
nodes = (
"561 98 OFFCURVE",
"564 77 OFFCURVE",
"566 56 CURVE",
"566 14 LINE",
"570 -13 OFFCURVE",
"608 -9 OFFCURVE",
"608 12 CURVE",
"603 502 LINE",
"594 489 OFFCURVE",
"736 541 OFFCURVE",
"741 703 CURVE SMOOTH",
"741 731 OFFCURVE",
"694 745 OFFCURVE",
"698 705 CURVE",
"694 644 OFFCURVE",
"671 606 OFFCURVE",
"646 580 CURVE SMOOTH",
"632 564 OFFCURVE",
"616 553 OFFCURVE",
"599 543 CURVE",
"599 587 LINE",
"598 596 OFFCURVE",
"591 601 OFFCURVE",
"580 601 CURVE SMOOTH",
"569 601 OFFCURVE",
"563 596 OFFCURVE",
"563 587 CURVE SMOOTH",
"563 259 LINE SMOOTH",
"563 152 OFFCURVE",
"545 37 OFFCURVE",
"369 35 CURVE SMOOTH",
"190 31 OFFCURVE",
"147 162 OFFCURVE",
"151 252 CURVE SMOOTH",
"158 581 LINE SMOOTH",
"158 599 OFFCURVE",
"120 600 OFFCURVE",
"120 583 CURVE",
"117 562 OFFCURVE",
"116 522 OFFCURVE",
"116 463 CURVE SMOOTH",
"115 405 OFFCURVE",
"114 320 OFFCURVE",
"111 207 CURVE SMOOTH",
"111 123 OFFCURVE",
"171 -2 OFFCURVE",
"364 -2 CURVE SMOOTH",
"487 -2 OFFCURVE",
"534 41 OFFCURVE",
"557 98 CURVE"
);
}
);
width = 769;
}
);
note = uhorn;
unicode = 01B0;
},
{
glyphname = fi;
lastChange = "2017-12-19 05:51:49 +0000";
layers = (
{
layerId = "0B1DFD06-3317-40CA-B510-4969A0718C16";
paths = (
{
closed = 1;
nodes = (
"20 392 LINE SMOOTH",
"10 389 OFFCURVE",
"5 383 OFFCURVE",
"5 371 CURVE SMOOTH",
"5 360 OFFCURVE",
"11 354 OFFCURVE",
"23 354 CURVE",
"60 360 OFFCURVE",
"43 360 OFFCURVE",
"99 362 CURVE",
"111 17 LINE SMOOTH",
"111 8 OFFCURVE",
"118 3 OFFCURVE",
"131 1 CURVE SMOOTH",
"145 -1 OFFCURVE",
"153 6 OFFCURVE",
"156 21 CURVE",
"146 366 LINE",
"197 366 OFFCURVE",
"184 366 OFFCURVE",
"230 362 CURVE SMOOTH",
"241 361 OFFCURVE",
"248 365 OFFCURVE",
"251 372 CURVE",
"252 376 OFFCURVE",
"252 380 OFFCURVE",
"251 385 CURVE SMOOTH",
"248 403 OFFCURVE",
"201 405 OFFCURVE",
"148 405 CURVE",
"148 590 OFFCURVE",
"159 698 OFFCURVE",
"239 698 CURVE SMOOTH",
"289 698 OFFCURVE",
"306 700 OFFCURVE",
"315 590 CURVE",
"320 568 OFFCURVE",
"366 558 OFFCURVE",
"362 601 CURVE SMOOTH",
"353 719 OFFCURVE",
"313 740 OFFCURVE",
"239 740 CURVE SMOOTH",
"160 740 OFFCURVE",
"125 687 OFFCURVE",
"111 619 CURVE SMOOTH",
"105 585 OFFCURVE",
"101 548 OFFCURVE",
"102 509 CURVE SMOOTH",
"103 470 OFFCURVE",
"102 435 OFFCURVE",
"101 404 CURVE",
"82 404 OFFCURVE",
"64 403 OFFCURVE",
"47 399 CURVE SMOOTH"
);
},
{
closed = 1;
nodes = (
"366 482 LINE SMOOTH",
"366 511 OFFCURVE",
"324 511 OFFCURVE",
"324 482 CURVE SMOOTH",
"314 28 LINE",
"318 1 OFFCURVE",
"353 -4 OFFCURVE",
"357 28 CURVE"
);
}
);
width = 456;
}
);
note = fi;
unicode = FB01;
},
{
glyphname = fl;
lastChange = "2017-12-19 05:51:49 +0000";
layers = (
{
layerId = "0B1DFD06-3317-40CA-B510-4969A0718C16";
paths = (
{
closed = 1;
nodes = (
"10 389 OFFCURVE",
"5 383 OFFCURVE",
"5 371 CURVE SMOOTH",
"5 360 OFFCURVE",
"11 354 OFFCURVE",
"23 354 CURVE",
"41 356 OFFCURVE",
"71 360 OFFCURVE",
"99 362 CURVE",
"111 17 LINE SMOOTH",
"111 8 OFFCURVE",
"118 3 OFFCURVE",
"131 1 CURVE SMOOTH",
"145 -1 OFFCURVE",
"153 6 OFFCURVE",
"156 21 CURVE",
"146 366 LINE",
"215 361 OFFCURVE",
"250 364 OFFCURVE",
"251 372 CURVE",
"252 376 OFFCURVE",
"252 380 OFFCURVE",
"251 385 CURVE",
"253 399 OFFCURVE",
"218 405 OFFCURVE",
"148 405 CURVE",
"148 498 OFFCURVE",
"152 570 OFFCURVE",
"163 621 CURVE SMOOTH",
"169 645 OFFCURVE",
"179 665 OFFCURVE",
"190 677 CURVE SMOOTH",
"203 691 OFFCURVE",
"221 699 OFFCURVE",
"244 700 CURVE SMOOTH",
"267 702 OFFCURVE",
"286 694 OFFCURVE",
"301 676 CURVE SMOOTH",
"341 628 OFFCURVE",
"312 548 OFFCURVE",
"329 500 CURVE SMOOTH",
"339 470 OFFCURVE",
"366 462 OFFCURVE",
"392 465 CURVE",
"395 30 LINE SMOOTH",
"395 1 OFFCURVE",
"433 3 OFFCURVE",
"437 30 CURVE",
"432 837 LINE",
"432 866 OFFCURVE",
"394 864 OFFCURVE",
"390 837 CURVE",
"392 555 LINE",
"394 530 OFFCURVE",
"366 519 OFFCURVE",
"366 541 CURVE SMOOTH",
"366 595 OFFCURVE",
"361 638 OFFCURVE",
"349 672 CURVE",
"343 690 OFFCURVE",
"334 705 OFFCURVE",
"325 714 CURVE SMOOTH",
"305 734 OFFCURVE",
"285 749 OFFCURVE",
"224 743 CURVE SMOOTH",
"164 739 OFFCURVE",
"125 687 OFFCURVE",
"111 619 CURVE SMOOTH",
"105 585 OFFCURVE",
"101 548 OFFCURVE",
"102 509 CURVE SMOOTH",
"103 470 OFFCURVE",
"102 435 OFFCURVE",
"101 404 CURVE",
"92 404 OFFCURVE",
"65 400 OFFCURVE",
"20 392 CURVE"
);
}
);
width = 485;
}
);
note = fl;
unicode = FB02;
},
{
glyphname = ordfeminine;
lastChange = "2017-12-19 05:51:49 +0000";
layers = (
{
layerId = "0B1DFD06-3317-40CA-B510-4969A0718C16";
paths = (
{
closed = 1;
nodes = (
"352 535 LINE SMOOTH",
"352 389 OFFCURVE",
"309 359 OFFCURVE",
"218 359 CURVE SMOOTH",
"97 359 OFFCURVE",
"73 462 OFFCURVE",
"73 535 CURVE",
"75 575 OFFCURVE",
"106 701 OFFCURVE",
"223 701 CURVE SMOOTH",
"274 701 OFFCURVE",
"337 665 OFFCURVE",
"350 590 CURVE"
);
},
{
closed = 1;
nodes = (
"438 338 OFFCURVE",
"441 344 OFFCURVE",
"441 350 CURVE SMOOTH",
"441 356 OFFCURVE",
"437 360 OFFCURVE",
"428 364 CURVE",
"388 364 OFFCURVE",
"385 395 OFFCURVE",
"385 424 CURVE SMOOTH",
"385 529 OFFCURVE",
"385 663 OFFCURVE",
"399 712 CURVE",
"399 719 OFFCURVE",
"390 725 OFFCURVE",
"375 725 CURVE SMOOTH",
"365 725 OFFCURVE",
"359 720 OFFCURVE",
"357 711 CURVE",
"354 663 LINE",
"314 711 OFFCURVE",
"275 729 OFFCURVE",
"221 729 CURVE SMOOTH",
"82 729 OFFCURVE",
"42 596 OFFCURVE",
"42 536 CURVE SMOOTH",
"42 453 OFFCURVE",
"66 326 OFFCURVE",
"219 326 CURVE SMOOTH",
"280 326 OFFCURVE",
"327 342 OFFCURVE",
"354 383 CURVE",
"360 345 OFFCURVE",
"375 333 OFFCURVE",
"413 333 CURVE SMOOTH",
"419 333 OFFCURVE",
"426 333 OFFCURVE",
"434 334 CURVE"
);
}
);
width = 439;
}
);
note = ordfeminine;
unicode = 00AA;
},
{
glyphname = ordmasculine;
lastChange = "2017-12-19 05:51:49 +0000";
layers = (
{
layerId = "0B1DFD06-3317-40CA-B510-4969A0718C16";
paths = (
{
closed = 1;
nodes = (
"420 643 OFFCURVE",
"343 731 OFFCURVE",
"218 731 CURVE SMOOTH",
"119 731 OFFCURVE",
"20 655 OFFCURVE",
"20 530 CURVE SMOOTH",
"20 417 OFFCURVE",
"101 336 OFFCURVE",
"218 336 CURVE SMOOTH",
"306 336 OFFCURVE",
"420 398 OFFCURVE",
"420 536 CURVE SMOOTH"
);
},
{
closed = 1;
nodes = (
"372 481 OFFCURVE",
"356 442 OFFCURVE",
"325 416 CURVE SMOOTH",
"293 390 OFFCURVE",
"258 377 OFFCURVE",
"219 377 CURVE SMOOTH",
"150 377 OFFCURVE",
"68 429 OFFCURVE",
"68 531 CURVE SMOOTH",
"68 609 OFFCURVE",
"118 689 OFFCURVE",
"219 689 CURVE SMOOTH",
"326 689 OFFCURVE",
"372 602 OFFCURVE",
"372 533 CURVE SMOOTH"
);
}
);
width = 439;
}
);
note = ordmasculine;
unicode = 00BA;
},
{
color = 0;
glyphname = nmod;
lastChange = "2017-12-19 05:26:45 +0000";
layers = (
{
layerId = "0B1DFD06-3317-40CA-B510-4969A0718C16";
paths = (
{
closed = 1;
nodes = (
"410 378 LINE",
"410 397 LINE",
"392 397 LINE SMOOTH",
"368 397 OFFCURVE",
"350 405 OFFCURVE",
"350 424 CURVE SMOOTH",
"350 599 LINE SMOOTH",
"350 660 OFFCURVE",
"323 708 OFFCURVE",
"240 708 CURVE SMOOTH",
"168 708 OFFCURVE",
"128 658 OFFCURVE",
"116 601 CURVE",
"116 548 LINE",
"135 548 LINE",
"135 628 OFFCURVE",
"173 677 OFFCURVE",
"221 677 CURVE SMOOTH",
"266 677 OFFCURVE",
"281 652 OFFCURVE",
"281 595 CURVE SMOOTH",
"281 424 LINE SMOOTH",
"281 405 OFFCURVE",
"264 397 OFFCURVE",
"239 397 CURVE SMOOTH",
"229 397 LINE",
"229 378 LINE"
);
},
{
closed = 1;
nodes = (
"187 378 LINE",
"187 397 LINE",
"177 397 LINE SMOOTH",
"152 397 OFFCURVE",
"135 405 OFFCURVE",
"135 424 CURVE SMOOTH",
"135 706 LINE",
"114 706 LINE",
"17 670 LINE",
"22 652 LINE",
"30 655 OFFCURVE",
"42 659 OFFCURVE",
"50 659 CURVE SMOOTH",
"58 659 OFFCURVE",
"66 656 OFFCURVE",
"66 643 CURVE SMOOTH",
"66 424 LINE SMOOTH",
"66 405 OFFCURVE",
"48 397 OFFCURVE",
"23 397 CURVE SMOOTH",
"6 397 LINE",
"6 378 LINE"
);
}
);
width = 416;
}
);
note = uni207F;
unicode = 207F;
},
{
glyphname = Delta;
lastChange = "2017-12-19 06:06:26 +0000";
layers = (
{
layerId = "0B1DFD06-3317-40CA-B510-4969A0718C16";
paths = (
{
closed = 1;
nodes = (
"37 45 OFFCURVE",
"19 5 OFFCURVE",
"67 9 CURVE",
"524 11 LINE SMOOTH",
"626 9 OFFCURVE",
"646 34 OFFCURVE",
"619 92 CURVE SMOOTH",
"535 260 OFFCURVE",
"512 324 OFFCURVE",
"438 480 CURVE SMOOTH",
"408 543 OFFCURVE",
"360 669 OFFCURVE",
"313 572 CURVE SMOOTH",
"283 514 OFFCURVE",
"241 436 OFFCURVE",
"190 338 CURVE SMOOTH",
"138 241 OFFCURVE",
"94 157 OFFCURVE",
"37 48 CURVE"
);
},
{
closed = 1;
nodes = (
"66 35 LINE",
"65 34 OFFCURVE",
"44 29 OFFCURVE",
"65 56 CURVE",
"322 553 LINE",
"323 557 OFFCURVE",
"339 581 OFFCURVE",
"368 525 CURVE SMOOTH",
"395 473 OFFCURVE",
"457 333 OFFCURVE",
"458 331 CURVE",
"581 63 LINE",
"595 45 OFFCURVE",
"570 36 OFFCURVE",
"564 35 CURVE"
);
}
);
width = 664;
}
);
note = Delta;
unicode = 0394;
},
{
glyphname = Omega;
lastChange = "2017-12-19 06:06:17 +0000";
layers = (
{
layerId = "0B1DFD06-3317-40CA-B510-4969A0718C16";
paths = (
{
closed = 1;
nodes = (
"487 37 LINE SMOOTH",
"487 34 OFFCURVE",
"489 32 OFFCURVE",
"491 30 CURVE",
"494 26 OFFCURVE",
"499 24 OFFCURVE",
"507 25 CURVE",
"706 25 LINE SMOOTH",
"718 25 OFFCURVE",
"725 31 OFFCURVE",
"728 43 CURVE SMOOTH",
"730 55 OFFCURVE",
"723 61 OFFCURVE",
"706 61 CURVE SMOOTH",
"530 61 LINE",
"520 73 LINE",
"520 167 LINE",
"646 248 OFFCURVE",
"704 346 OFFCURVE",
"706 472 CURVE",
"706 677 OFFCURVE",
"604 781 OFFCURVE",
"402 782 CURVE SMOOTH",
"202 781 OFFCURVE",
"100 677 OFFCURVE",
"96 472 CURVE",
"99 349 OFFCURVE",
"157 248 OFFCURVE",
"286 167 CURVE",
"286 71 LINE",
"275 61 LINE",
"87 61 LINE SMOOTH",
"74 61 OFFCURVE",
"68 55 OFFCURVE",
"68 43 CURVE SMOOTH",
"68 31 OFFCURVE",
"74 25 OFFCURVE",
"87 25 CURVE SMOOTH",
"299 25 LINE SMOOTH",
"309 25 OFFCURVE",
"315 27 OFFCURVE",
"317 33 CURVE",
"318 36 OFFCURVE",
"319 38 OFFCURVE",
"319 42 CURVE SMOOTH",
"319 181 LINE",
"320 184 OFFCURVE",
"320 188 OFFCURVE",
"319 191 CURVE",
"318 194 OFFCURVE",
"316 196 OFFCURVE",
"315 196 CURVE",
"201 271 OFFCURVE",
"137 360 OFFCURVE",
"139 472 CURVE",
"137 646 OFFCURVE",
"231 738 OFFCURVE",
"402 738 CURVE SMOOTH",
"572 740 OFFCURVE",
"663 646 OFFCURVE",
"663 472 CURVE SMOOTH",
"666 360 OFFCURVE",
"606 274 OFFCURVE",
"500 202 CURVE",
"496 201 OFFCURVE",
"491 198 OFFCURVE",
"489 193 CURVE",
"488 190 OFFCURVE",
"487 188 OFFCURVE",
"487 184 CURVE SMOOTH"
);
}
);
width = 796;
}
);
note = Omega;
unicode = 03A9;
},
{
glyphname = mu;
lastChange = "2017-12-19 06:06:37 +0000";
layers = (
{
layerId = "0B1DFD06-3317-40CA-B510-4969A0718C16";
paths = (
{
closed = 1;
nodes = (
"554 121 OFFCURVE",
"555 94 OFFCURVE",
"555 70 CURVE SMOOTH",
"555 54 OFFCURVE",
"554 37 OFFCURVE",
"553 20 CURVE",
"558 -16 OFFCURVE",
"603 -3 OFFCURVE",
"603 17 CURVE",
"595 595 LINE",
"595 615 OFFCURVE",
"550 618 OFFCURVE",
"550 593 CURVE SMOOTH",
"550 312 LINE SMOOTH",
"550 185 OFFCURVE",
"518 49 OFFCURVE",
"352 45 CURVE SMOOTH",
"268 43 OFFCURVE",
"218 82 OFFCURVE",
"190 133 CURVE SMOOTH",
"162 184 OFFCURVE",
"154 247 OFFCURVE",
"156 303 CURVE SMOOTH",
"164 588 LINE SMOOTH",
"164 609 OFFCURVE",
"116 612 OFFCURVE",
"116 590 CURVE",
"105 312 OFFCURVE",
"109 42 OFFCURVE",
"111 -231 CURVE SMOOTH",
"111 -262 OFFCURVE",
"153 -262 OFFCURVE",
"153 -231 CURVE SMOOTH",
"153 96 LINE",
"188 43 OFFCURVE",
"249 -1 OFFCURVE",
"347 2 CURVE SMOOTH",
"462 4 OFFCURVE",
"525 51 OFFCURVE",
"550 118 CURVE"
);
}
);
width = 712;
}
);
note = mu;
unicode = 03BC;
},
{
color = 0;
glyphname = pi;
lastChange = "2017-12-19 05:38:58 +0000";
layers = (
{
layerId = "0B1DFD06-3317-40CA-B510-4969A0718C16";
paths = (
{
closed = 1;
nodes = (
"577 -10 OFFCURVE",
"603 -4 OFFCURVE",
"633 13 CURVE",
"633 54 LINE",
"618 44 OFFCURVE",
"598 36 OFFCURVE",
"581 36 CURVE SMOOTH",
"555 36 OFFCURVE",
"528 49 OFFCURVE",
"528 100 CURVE SMOOTH",
"528 431 LINE",
"647 431 LINE",
"647 470 LINE",
"19 470 LINE",
"19 431 LINE",
"136 431 LINE",
"136 0 LINE",
"231 0 LINE",
"231 431 LINE",
"433 431 LINE",
"433 96 LINE SMOOTH",
"433 32 OFFCURVE",
"466 -10 OFFCURVE",
"540 -10 CURVE SMOOTH"
);
}
);
width = 664;
}
);
note = pi;
unicode = 03C0;
},
{
glyphname = "koKai-thai";
lastChange = "2017-12-19 05:52:17 +0000";
layers = (
{
layerId = "0B1DFD06-3317-40CA-B510-4969A0718C16";
paths = (
{
closed = 1;
nodes = (
"612 19 OFFCURVE",
"611 47 OFFCURVE",
"611 85 CURVE",
"601 472 OFFCURVE",
"607 633 OFFCURVE",
"344 633 CURVE SMOOTH",
"148 631 OFFCURVE",
"32 490 OFFCURVE",
"32 425 CURVE SMOOTH",
"32 412 OFFCURVE",
"41 402 OFFCURVE",
"58 395 CURVE SMOOTH",
"114 372 LINE SMOOTH",
"140 361 OFFCURVE",
"170 352 OFFCURVE",
"184 345 CURVE",
"194 337 OFFCURVE",
"196 307 OFFCURVE",
"196 263 CURVE SMOOTH",
"196 162 OFFCURVE",
"172 33 OFFCURVE",
"172 -17 CURVE SMOOTH",
"172 -26 OFFCURVE",
"177 -31 OFFCURVE",
"186 -31 CURVE SMOOTH",
"196 -31 OFFCURVE",
"201 -26 OFFCURVE",
"201 -17 CURVE",
"208 45 LINE SMOOTH",
"215 110 OFFCURVE",
"226 187 OFFCURVE",
"226 263 CURVE SMOOTH",
"226 318 OFFCURVE",
"219 361 OFFCURVE",
"196 372 CURVE",
"158 395 OFFCURVE",
"107 405 OFFCURVE",
"81 418 CURVE",
"62 425 LINE",
"62 479 OFFCURVE",
"167 600 OFFCURVE",
"344 603 CURVE SMOOTH",
"574 603 OFFCURVE",
"572 456 OFFCURVE",
"581 85 CURVE SMOOTH",
"581 60 OFFCURVE",
"577 -41 OFFCURVE",
"598 -41 CURVE SMOOTH",
"609 -41 OFFCURVE",
"615 -37 OFFCURVE",
"615 -28 CURVE"
);
}
);
width = 700;
}
);
note = uni0E01;
unicode = 0E01;
},
{
glyphname = "thoThung-thai";
lastChange = "2017-12-19 05:52:17 +0000";
layers = (
{
layerId = "0B1DFD06-3317-40CA-B510-4969A0718C16";
paths = (
{
closed = 1;
nodes = (
"337 122 OFFCURVE",
"322 190 OFFCURVE",
"246 190 CURVE",
"223 190 OFFCURVE",
"205 188 OFFCURVE",
"193 181 CURVE",
"187 177 OFFCURVE",
"182 172 OFFCURVE",
"178 167 CURVE",
"182 272 OFFCURVE",
"201 415 OFFCURVE",
"181 430 CURVE",
"52 468 LINE",
"56 496 OFFCURVE",
"113 610 OFFCURVE",
"352 606 CURVE SMOOTH",
"573 602 OFFCURVE",
"575 462 OFFCURVE",
"552 10 CURVE",
"563 3 OFFCURVE",
"574 1 OFFCURVE",
"583 12 CURVE",
"592 444 OFFCURVE",
"617 622 OFFCURVE",
"354 633 CURVE SMOOTH",
"101 644 OFFCURVE",
"24 518 OFFCURVE",
"17 462 CURVE",
"17 439 OFFCURVE",
"111 434 OFFCURVE",
"156 409 CURVE SMOOTH",
"171 401 OFFCURVE",
"145 189 OFFCURVE",
"145 96 CURVE SMOOTH",
"145 28 OFFCURVE",
"205 -3 OFFCURVE",
"237 2 CURVE",
"269 2 OFFCURVE",
"293 12 OFFCURVE",
"309 31 CURVE SMOOTH",
"326 51 OFFCURVE",
"335 73 OFFCURVE",
"337 96 CURVE"
);
},
{
closed = 1;
nodes = (
"307 55 OFFCURVE",
"277 26 OFFCURVE",
"239 26 CURVE SMOOTH",
"214 26 OFFCURVE",
"197 34 OFFCURVE",
"186 50 CURVE",
"176 66 OFFCURVE",
"171 82 OFFCURVE",
"171 96 CURVE SMOOTH",
"171 111 OFFCURVE",
"176 127 OFFCURVE",
"186 143 CURVE",
"197 159 OFFCURVE",
"214 167 OFFCURVE",
"239 167 CURVE SMOOTH",
"277 167 OFFCURVE",
"310 139 OFFCURVE",
"310 99 CURVE"
);
}
);
width = 660;
}
);
note = uni0E16;
unicode = 0E16;
},
{
glyphname = "phoSamphao-thai";
lastChange = "2017-12-19 05:52:17 +0000";
layers = (
{
layerId = "0B1DFD06-3317-40CA-B510-4969A0718C16";
paths = (
{
closed = 1;
nodes = (
"187 161 OFFCURVE",
"181 167 OFFCURVE",
"174 171 CURVE",
"163 180 OFFCURVE",
"145 188 OFFCURVE",
"118 188 CURVE",
"43 192 OFFCURVE",
"20 129 OFFCURVE",
"20 99 CURVE",
"16 46 OFFCURVE",
"48 4 OFFCURVE",
"108 0 CURVE",
"139 -4 OFFCURVE",
"215 16 OFFCURVE",
"219 83 CURVE SMOOTH",
"224 165 LINE SMOOTH",
"225 202 OFFCURVE",
"226 240 OFFCURVE",
"225 278 CURVE SMOOTH",
"224 316 OFFCURVE",
"224 351 OFFCURVE",
"221 381 CURVE SMOOTH",
"218 411 OFFCURVE",
"215 428 OFFCURVE",
"209 430 CURVE",
"85 468 LINE",
"89 496 OFFCURVE",
"129 611 OFFCURVE",
"376 611 CURVE SMOOTH",
"600 611 OFFCURVE",
"559 428 OFFCURVE",
"555 10 CURVE",
"563 7 LINE",
"567 4 OFFCURVE",
"572 3 OFFCURVE",
"576 3 CURVE SMOOTH",
"580 3 OFFCURVE",
"584 6 OFFCURVE",
"588 12 CURVE",
"588 120 OFFCURVE",
"590 213 OFFCURVE",
"592 292 CURVE SMOOTH",
"595 370 OFFCURVE",
"592 434 OFFCURVE",
"582 485 CURVE SMOOTH",
"573 537 OFFCURVE",
"553 575 OFFCURVE",
"522 599 CURVE SMOOTH",
"492 624 OFFCURVE",
"444 637 OFFCURVE",
"377 639 CURVE SMOOTH",
"128 646 OFFCURVE",
"55 517 OFFCURVE",
"50 462 CURVE",
"50 439 OFFCURVE",
"135 434 OFFCURVE",
"181 409 CURVE SMOOTH",
"185 406 OFFCURVE",
"190 382 OFFCURVE",
"193 334 CURVE SMOOTH",
"196 286 OFFCURVE",
"196 226 OFFCURVE",
"191 153 CURVE"
);
},
{
closed = 1;
nodes = (
"49 143 OFFCURVE",
"85 168 OFFCURVE",
"123 164 CURVE SMOOTH",
"148 162 OFFCURVE",
"164 151 OFFCURVE",
"173 133 CURVE SMOOTH",
"183 116 OFFCURVE",
"187 100 OFFCURVE",
"184 85 CURVE SMOOTH",
"182 71 OFFCURVE",
"175 57 OFFCURVE",
"163 42 CURVE SMOOTH",
"152 27 OFFCURVE",
"134 20 OFFCURVE",
"110 23 CURVE SMOOTH",
"70 27 OFFCURVE",
"43 59 OFFCURVE",
"45 103 CURVE"
);
}
);
width = 666;
}
);
note = uni0E20;
unicode = 0E20;
},
{
glyphname = "ru-thai";
lastChange = "2017-12-19 05:52:17 +0000";
layers = (
{
layerId = "0B1DFD06-3317-40CA-B510-4969A0718C16";
paths = (
{
closed = 1;
nodes = (
"332 121 OFFCURVE",
"315 188 OFFCURVE",
"241 188 CURVE",
"218 190 OFFCURVE",
"201 187 OFFCURVE",
"190 179 CURVE",
"173 166 LINE",
"177 269 OFFCURVE",
"201 410 OFFCURVE",
"181 425 CURVE",
"52 465 LINE",
"64 497 OFFCURVE",
"137 620 OFFCURVE",
"349 606 CURVE SMOOTH",
"409 603 OFFCURVE",
"454 587 OFFCURVE",
"485 558 CURVE SMOOTH",
"516 530 OFFCURVE",
"537 482 OFFCURVE",
"548 413 CURVE SMOOTH",
"560 344 OFFCURVE",
"565 251 OFFCURVE",
"563 132 CURVE SMOOTH",
"561 13 OFFCURVE",
"558 -140 OFFCURVE",
"553 -327 CURVE",
"554 -343 OFFCURVE",
"560 -350 OFFCURVE",
"570 -346 CURVE",
"580 -343 OFFCURVE",
"585 -336 OFFCURVE",
"585 -326 CURVE SMOOTH",
"598 470 OFFCURVE",
"621 613 OFFCURVE",
"354 633 CURVE SMOOTH",
"133 654 OFFCURVE",
"17 511 OFFCURVE",
"17 456 CURVE SMOOTH",
"17 435 OFFCURVE",
"108 428 OFFCURVE",
"156 404 CURVE",
"160 403 OFFCURVE",
"161 390 OFFCURVE",
"159 366 CURVE SMOOTH",
"152 281 LINE SMOOTH",
"146 217 OFFCURVE",
"139 141 OFFCURVE",
"136 94 CURVE",
"136 26 OFFCURVE",
"201 -5 OFFCURVE",
"231 0 CURVE",
"264 0 OFFCURVE",
"288 10 OFFCURVE",
"304 30 CURVE SMOOTH",
"320 49 OFFCURVE",
"330 71 OFFCURVE",
"332 94 CURVE"
);
},
{
closed = 1;
nodes = (
"300 54 OFFCURVE",
"273 25 OFFCURVE",
"233 25 CURVE SMOOTH",
"208 25 OFFCURVE",
"191 32 OFFCURVE",
"181 48 CURVE SMOOTH",
"171 65 OFFCURVE",
"166 80 OFFCURVE",
"166 94 CURVE SMOOTH",
"166 109 OFFCURVE",
"171 125 OFFCURVE",
"181 141 CURVE SMOOTH",
"191 157 OFFCURVE",
"208 166 OFFCURVE",
"233 166 CURVE SMOOTH",
"273 166 OFFCURVE",
"304 138 OFFCURVE",
"304 98 CURVE"
);
}
);
width = 663;
}
);
note = uni0E24;
unicode = 0E24;
},
{
color = 0;
glyphname = "ru-thai.short";
lastChange = "2017-12-19 05:26:58 +0000";
layers = (
{
layerId = "0B1DFD06-3317-40CA-B510-4969A0718C16";
paths = (
{
closed = 1;
nodes = (
"524 -140 LINE",
"524 379 LINE SMOOTH",
"524 505 OFFCURVE",
"416 563 OFFCURVE",
"285 563 CURVE SMOOTH",
"171 563 OFFCURVE",
"50 499 OFFCURVE",
"38 348 CURVE",
"145 348 LINE",
"81 321 OFFCURVE",
"59 268 OFFCURVE",
"59 215 CURVE SMOOTH",
"59 117 LINE SMOOTH",
"59 38 OFFCURVE",
"94 -10 OFFCURVE",
"181 -10 CURVE SMOOTH",
"239 -10 OFFCURVE",
"285 27 OFFCURVE",
"285 87 CURVE SMOOTH",
"285 155 OFFCURVE",
"229 179 OFFCURVE",
"196 179 CURVE SMOOTH",
"181 179 OFFCURVE",
"165 177 OFFCURVE",
"154 169 CURVE",
"154 222 LINE SMOOTH",
"154 288 OFFCURVE",
"176 319 OFFCURVE",
"232 346 CURVE",
"232 381 LINE",
"92 381 LINE",
"107 472 OFFCURVE",
"191 520 OFFCURVE",
"270 520 CURVE SMOOTH",
"373 520 OFFCURVE",
"429 461 OFFCURVE",
"429 396 CURVE SMOOTH",
"429 -140 LINE"
);
},
{
closed = 1;
nodes = (
"146 23 OFFCURVE",
"125 52 OFFCURVE",
"125 87 CURVE SMOOTH",
"125 122 OFFCURVE",
"152 149 OFFCURVE",
"188 149 CURVE SMOOTH",
"223 149 OFFCURVE",
"249 122 OFFCURVE",
"249 87 CURVE SMOOTH",
"249 52 OFFCURVE",
"226 23 OFFCURVE",
"188 23 CURVE SMOOTH"
);
}
);
width = 585;
}
);
note = "ru-thai.short";
},
